<ttFont>
    <TTGlyph name="A" xMin="-164" yMin="-94" xMax="1528" yMax="1495">
      <contour>
        <pt x="944" y="422" on="1"/>
        <pt x="567" y="422" on="1"/>
        <pt x="525" y="290" on="0"/>
        <pt x="428" y="96" on="0"/>
        <pt x="310" y="-32" on="0"/>
        <pt x="169" y="-94" on="0"/>
        <pt x="82" y="-94" on="1"/>
        <pt x="34" y="-94" on="0"/>
        <pt x="-55" y="-77" on="0"/>
        <pt x="-123" y="-47" on="0"/>
        <pt x="-164" y="-6" on="0"/>
        <pt x="-164" y="18" on="1"/>
        <pt x="-164" y="36" on="0"/>
        <pt x="-153" y="73" on="0"/>
        <pt x="-133" y="104" on="0"/>
        <pt x="-104" y="123" on="0"/>
        <pt x="-86" y="123" on="1"/>
        <pt x="-70" y="123" on="0"/>
        <pt x="-46" y="79" on="0"/>
        <pt x="-9" y="26" on="0"/>
        <pt x="49" y="-18" on="0"/>
        <pt x="100" y="-18" on="1"/>
        <pt x="152" y="-18" on="0"/>
        <pt x="246" y="32" on="0"/>
        <pt x="333" y="139" on="0"/>
        <pt x="413" y="305" on="0"/>
        <pt x="451" y="422" on="1"/>
        <pt x="215" y="422" on="1"/>
        <pt x="215" y="510" on="1"/>
        <pt x="477" y="510" on="1"/>
        <pt x="510" y="622" on="0"/>
        <pt x="573" y="850" on="0"/>
        <pt x="629" y="1060" on="0"/>
        <pt x="673" y="1243" on="0"/>
        <pt x="688" y="1311" on="1"/>
        <pt x="668" y="1367" on="0"/>
        <pt x="599" y="1405" on="0"/>
        <pt x="541" y="1405" on="1"/>
        <pt x="487" y="1405" on="0"/>
        <pt x="372" y="1372" on="0"/>
        <pt x="278" y="1311" on="0"/>
        <pt x="217" y="1222" on="0"/>
        <pt x="217" y="1167" on="1"/>
        <pt x="217" y="1135" on="0"/>
        <pt x="234" y="1097" on="0"/>
        <pt x="257" y="1078" on="0"/>
        <pt x="279" y="1073" on="0"/>
        <pt x="285" y="1073" on="1"/>
        <pt x="309" y="1073" on="0"/>
        <pt x="342" y="1090" on="0"/>
        <pt x="367" y="1109" on="0"/>
        <pt x="391" y="1126" on="0"/>
        <pt x="406" y="1126" on="1"/>
        <pt x="417" y="1126" on="0"/>
        <pt x="444" y="1115" on="0"/>
        <pt x="467" y="1091" on="0"/>
        <pt x="483" y="1052" on="0"/>
        <pt x="483" y="1024" on="1"/>
        <pt x="483" y="984" on="0"/>
        <pt x="452" y="926" on="0"/>
        <pt x="403" y="887" on="0"/>
        <pt x="340" y="868" on="0"/>
        <pt x="309" y="868" on="1"/>
        <pt x="261" y="868" on="0"/>
        <pt x="184" y="903" on="0"/>
        <pt x="130" y="963" on="0"/>
        <pt x="102" y="1043" on="0"/>
        <pt x="102" y="1087" on="1"/>
        <pt x="102" y="1153" on="0"/>
        <pt x="146" y="1264" on="0"/>
        <pt x="224" y="1355" on="0"/>
        <pt x="330" y="1424" on="0"/>
        <pt x="453" y="1471" on="0"/>
        <pt x="587" y="1495" on="0"/>
        <pt x="655" y="1495" on="1"/>
        <pt x="751" y="1495" on="0"/>
        <pt x="884" y="1464" on="0"/>
        <pt x="974" y="1403" on="0"/>
        <pt x="1029" y="1310" on="0"/>
        <pt x="1047" y="1249" on="1"/>
        <pt x="1262" y="510" on="1"/>
        <pt x="1479" y="510" on="1"/>
        <pt x="1479" y="422" on="1"/>
        <pt x="1286" y="422" on="1"/>
        <pt x="1364" y="160" on="1"/>
        <pt x="1368" y="145" on="0"/>
        <pt x="1376" y="119" on="0"/>
        <pt x="1387" y="100" on="0"/>
        <pt x="1404" y="88" on="0"/>
        <pt x="1417" y="88" on="1"/>
        <pt x="1445" y="88" on="0"/>
        <pt x="1493" y="107" on="0"/>
        <pt x="1511" y="117" on="1"/>
        <pt x="1528" y="80" on="1"/>
        <pt x="1510" y="67" on="0"/>
        <pt x="1455" y="34" on="0"/>
        <pt x="1384" y="4" on="0"/>
        <pt x="1298" y="-16" on="0"/>
        <pt x="1249" y="-16" on="1"/>
        <pt x="1181" y="-16" on="0"/>
        <pt x="1098" y="18" on="0"/>
        <pt x="1051" y="68" on="0"/>
        <pt x="1030" y="124" on="0"/>
        <pt x="1024" y="145" on="1"/>
      </contour>
      <contour>
        <pt x="750" y="1098" on="1"/>
        <pt x="709" y="931" on="0"/>
        <pt x="632" y="637" on="0"/>
        <pt x="594" y="510" on="1"/>
        <pt x="920" y="510" on="1"/>
      </contour>
    </TTGlyph>
    <TTGlyph name="AE" xMin="-164" yMin="-94" xMax="1827" yMax="1495">
      <contour>
        <pt x="1663" y="688" on="1"/>
        <pt x="1247" y="688" on="1"/>
        <pt x="1247" y="297" on="1"/>
        <pt x="1247" y="250" on="0"/>
        <pt x="1276" y="183" on="0"/>
        <pt x="1328" y="139" on="0"/>
        <pt x="1401" y="119" on="0"/>
        <pt x="1446" y="119" on="1"/>
        <pt x="1497" y="119" on="0"/>
        <pt x="1599" y="140" on="0"/>
        <pt x="1690" y="172" on="0"/>
        <pt x="1765" y="212" on="0"/>
        <pt x="1788" y="231" on="1"/>
        <pt x="1827" y="188" on="1"/>
        <pt x="1801" y="168" on="0"/>
        <pt x="1718" y="99" on="0"/>
        <pt x="1596" y="33" on="0"/>
        <pt x="1435" y="-16" on="0"/>
        <pt x="1333" y="-16" on="1"/>
        <pt x="1300" y="-16" on="0"/>
        <pt x="1213" y="-9" on="0"/>
        <pt x="1121" y="12" on="0"/>
        <pt x="1032" y="53" on="0"/>
        <pt x="963" y="121" on="0"/>
        <pt x="920" y="220" on="0"/>
        <pt x="920" y="289" on="1"/>
        <pt x="920" y="422" on="1"/>
        <pt x="588" y="422" on="1"/>
        <pt x="542" y="292" on="0"/>
        <pt x="440" y="99" on="0"/>
        <pt x="320" y="-30" on="0"/>
        <pt x="178" y="-94" on="0"/>
        <pt x="92" y="-94" on="1"/>
        <pt x="41" y="-94" on="0"/>
        <pt x="-51" y="-77" on="0"/>
        <pt x="-122" y="-47" on="0"/>
        <pt x="-164" y="-6" on="0"/>
        <pt x="-164" y="18" on="1"/>
        <pt x="-164" y="36" on="0"/>
        <pt x="-153" y="73" on="0"/>
        <pt x="-133" y="104" on="0"/>
        <pt x="-104" y="123" on="0"/>
        <pt x="-86" y="123" on="1"/>
        <pt x="-75" y="123" on="0"/>
        <pt x="-58" y="101" on="0"/>
        <pt x="-40" y="68" on="0"/>
        <pt x="-17" y="30" on="0"/>
        <pt x="20" y="-3" on="0"/>
        <pt x="72" y="-25" on="0"/>
        <pt x="111" y="-25" on="1"/>
        <pt x="223" y="-25" on="0"/>
        <pt x="397" y="193" on="0"/>
        <pt x="475" y="422" on="1"/>
        <pt x="236" y="422" on="1"/>
        <pt x="236" y="510" on="1"/>
        <pt x="504" y="510" on="1"/>
        <pt x="534" y="601" on="0"/>
        <pt x="590" y="786" on="0"/>
        <pt x="639" y="963" on="0"/>
        <pt x="682" y="1126" on="0"/>
        <pt x="716" y="1264" on="0"/>
        <pt x="739" y="1372" on="0"/>
        <pt x="745" y="1405" on="1"/>
        <pt x="619" y="1395" on="0"/>
        <pt x="439" y="1345" on="0"/>
        <pt x="324" y="1274" on="0"/>
        <pt x="270" y="1187" on="0"/>
        <pt x="270" y="1139" on="1"/>
        <pt x="270" y="1107" on="0"/>
        <pt x="287" y="1072" on="0"/>
        <pt x="310" y="1056" on="0"/>
        <pt x="333" y="1053" on="0"/>
        <pt x="338" y="1053" on="1"/>
        <pt x="362" y="1053" on="0"/>
        <pt x="395" y="1070" on="0"/>
        <pt x="420" y="1089" on="0"/>
        <pt x="444" y="1106" on="0"/>
        <pt x="459" y="1106" on="1"/>
        <pt x="470" y="1106" on="0"/>
        <pt x="497" y="1095" on="0"/>
        <pt x="521" y="1071" on="0"/>
        <pt x="537" y="1032" on="0"/>
        <pt x="537" y="1004" on="1"/>
        <pt x="537" y="964" on="0"/>
        <pt x="506" y="905" on="0"/>
        <pt x="456" y="867" on="0"/>
        <pt x="393" y="848" on="0"/>
        <pt x="362" y="848" on="1"/>
        <pt x="314" y="848" on="0"/>
        <pt x="237" y="882" on="0"/>
        <pt x="184" y="940" on="0"/>
        <pt x="156" y="1018" on="0"/>
        <pt x="156" y="1063" on="1"/>
        <pt x="156" y="1177" on="0"/>
        <pt x="267" y="1340" on="0"/>
        <pt x="477" y="1445" on="0"/>
        <pt x="780" y="1495" on="0"/>
        <pt x="973" y="1495" on="1"/>
        <pt x="1139" y="1495" on="0"/>
        <pt x="1388" y="1492" on="0"/>
        <pt x="1565" y="1486" on="0"/>
        <pt x="1673" y="1478" on="0"/>
        <pt x="1698" y="1473" on="1"/>
        <pt x="1721" y="1468" on="0"/>
        <pt x="1748" y="1456" on="0"/>
        <pt x="1763" y="1440" on="0"/>
        <pt x="1767" y="1419" on="0"/>
        <pt x="1767" y="1405" on="1"/>
        <pt x="1767" y="1393" on="0"/>
        <pt x="1762" y="1364" on="0"/>
        <pt x="1750" y="1339" on="0"/>
        <pt x="1731" y="1321" on="0"/>
        <pt x="1718" y="1321" on="1"/>
        <pt x="1710" y="1321" on="0"/>
        <pt x="1692" y="1335" on="0"/>
        <pt x="1657" y="1357" on="0"/>
        <pt x="1597" y="1381" on="0"/>
        <pt x="1498" y="1403" on="0"/>
        <pt x="1351" y="1417" on="0"/>
        <pt x="1247" y="1417" on="1"/>
        <pt x="1247" y="776" on="1"/>
        <pt x="1663" y="776" on="1"/>
      </contour>
      <contour>
        <pt x="864" y="1409" on="1"/>
        <pt x="801" y="1146" on="0"/>
        <pt x="678" y="696" on="0"/>
        <pt x="618" y="510" on="1"/>
        <pt x="920" y="510" on="1"/>
        <pt x="920" y="1409" on="1"/>
      </contour>
    </TTGlyph>
    <TTGlyph name="AEacute" xMin="-164" yMin="-94" xMax="1827" yMax="1904">
      <component glyphName="AE" x="0" y="0" flags="0x204"/>
      <component glyphName="acute" x="721" y="440" flags="0x4"/>
    </TTGlyph>
    <TTGlyph name="Aacute" xMin="-164" yMin="-94" xMax="1528" yMax="1904">
      <component glyphName="A" x="0" y="0" flags="0x204"/>
      <component glyphName="acute" x="369" y="440" flags="0x4"/>
    </TTGlyph>
    <TTGlyph name="Abreve" xMin="-164" yMin="-94" xMax="1528" yMax="1878">
      <component glyphName="A" x="0" y="0" flags="0x204"/>
      <component glyphName="breve" x="369" y="440" flags="0x4"/>
    </TTGlyph>
    <TTGlyph name="Acircumflex" xMin="-164" yMin="-94" xMax="1528" yMax="1904">
      <component glyphName="A" x="0" y="0" flags="0x204"/>
      <component glyphName="circumflex" x="369" y="440" flags="0x4"/>
    </TTGlyph>
    <TTGlyph name="Adieresis" xMin="-164" yMin="-94" xMax="1528" yMax="1859">
      <component glyphName="A" x="0" y="0" flags="0x204"/>
      <component glyphName="dieresis" x="369" y="440" flags="0x4"/>
    </TTGlyph>
    <TTGlyph name="Agrave" xMin="-164" yMin="-94" xMax="1528" yMax="1904">
      <component glyphName="A" x="0" y="0" flags="0x204"/>
      <component glyphName="grave" x="369" y="440" flags="0x4"/>
    </TTGlyph>
    <TTGlyph name="Amacron" xMin="-164" yMin="-94" xMax="1528" yMax="1822">
      <component glyphName="A" x="0" y="0" flags="0x204"/>
      <component glyphName="macron" x="369" y="440" flags="0x4"/>
    </TTGlyph>
    <TTGlyph name="Aogonek" xMin="-164" yMin="-408" xMax="1554" yMax="1495">
      <contour>
        <pt x="944" y="422" on="1"/>
        <pt x="567" y="422" on="1"/>
        <pt x="525" y="290" on="0"/>
        <pt x="428" y="96" on="0"/>
        <pt x="310" y="-32" on="0"/>
        <pt x="169" y="-94" on="0"/>
        <pt x="82" y="-94" on="1"/>
        <pt x="34" y="-94" on="0"/>
        <pt x="-55" y="-77" on="0"/>
        <pt x="-123" y="-47" on="0"/>
        <pt x="-164" y="-6" on="0"/>
        <pt x="-164" y="18" on="1"/>
        <pt x="-164" y="36" on="0"/>
        <pt x="-153" y="73" on="0"/>
        <pt x="-133" y="104" on="0"/>
        <pt x="-104" y="123" on="0"/>
        <pt x="-86" y="123" on="1"/>
        <pt x="-70" y="123" on="0"/>
        <pt x="-46" y="79" on="0"/>
        <pt x="-9" y="26" on="0"/>
        <pt x="49" y="-18" on="0"/>
        <pt x="100" y="-18" on="1"/>
        <pt x="152" y="-18" on="0"/>
        <pt x="246" y="32" on="0"/>
        <pt x="333" y="139" on="0"/>
        <pt x="413" y="305" on="0"/>
        <pt x="451" y="422" on="1"/>
        <pt x="215" y="422" on="1"/>
        <pt x="215" y="510" on="1"/>
        <pt x="477" y="510" on="1"/>
        <pt x="510" y="622" on="0"/>
        <pt x="573" y="850" on="0"/>
        <pt x="629" y="1060" on="0"/>
        <pt x="673" y="1243" on="0"/>
        <pt x="688" y="1311" on="1"/>
        <pt x="678" y="1339" on="0"/>
        <pt x="656" y="1376" on="0"/>
        <pt x="624" y="1397" on="0"/>
        <pt x="577" y="1405" on="0"/>
        <pt x="543" y="1405" on="1"/>
        <pt x="489" y="1405" on="0"/>
        <pt x="374" y="1372" on="0"/>
        <pt x="278" y="1311" on="0"/>
        <pt x="217" y="1222" on="0"/>
        <pt x="217" y="1167" on="1"/>
        <pt x="217" y="1135" on="0"/>
        <pt x="234" y="1097" on="0"/>
        <pt x="257" y="1078" on="0"/>
        <pt x="279" y="1073" on="0"/>
        <pt x="285" y="1073" on="1"/>
        <pt x="309" y="1073" on="0"/>
        <pt x="342" y="1090" on="0"/>
        <pt x="367" y="1109" on="0"/>
        <pt x="391" y="1126" on="0"/>
        <pt x="406" y="1126" on="1"/>
        <pt x="417" y="1126" on="0"/>
        <pt x="444" y="1115" on="0"/>
        <pt x="467" y="1091" on="0"/>
        <pt x="483" y="1052" on="0"/>
        <pt x="483" y="1024" on="1"/>
        <pt x="483" y="984" on="0"/>
        <pt x="452" y="926" on="0"/>
        <pt x="403" y="887" on="0"/>
        <pt x="340" y="868" on="0"/>
        <pt x="309" y="868" on="1"/>
        <pt x="261" y="868" on="0"/>
        <pt x="184" y="903" on="0"/>
        <pt x="130" y="963" on="0"/>
        <pt x="102" y="1043" on="0"/>
        <pt x="102" y="1087" on="1"/>
        <pt x="102" y="1153" on="0"/>
        <pt x="146" y="1264" on="0"/>
        <pt x="224" y="1355" on="0"/>
        <pt x="330" y="1424" on="0"/>
        <pt x="453" y="1471" on="0"/>
        <pt x="587" y="1495" on="0"/>
        <pt x="655" y="1495" on="1"/>
        <pt x="751" y="1495" on="0"/>
        <pt x="884" y="1464" on="0"/>
        <pt x="974" y="1403" on="0"/>
        <pt x="1029" y="1310" on="0"/>
        <pt x="1047" y="1249" on="1"/>
        <pt x="1262" y="510" on="1"/>
        <pt x="1479" y="510" on="1"/>
        <pt x="1479" y="422" on="1"/>
        <pt x="1286" y="422" on="1"/>
        <pt x="1364" y="160" on="1"/>
        <pt x="1368" y="145" on="0"/>
        <pt x="1376" y="119" on="0"/>
        <pt x="1387" y="100" on="0"/>
        <pt x="1404" y="88" on="0"/>
        <pt x="1417" y="88" on="1"/>
        <pt x="1445" y="88" on="0"/>
        <pt x="1493" y="107" on="0"/>
        <pt x="1511" y="117" on="1"/>
        <pt x="1528" y="80" on="1"/>
        <pt x="1490" y="51" on="0"/>
        <pt x="1394" y="1" on="0"/>
        <pt x="1309" y="-61" on="0"/>
        <pt x="1251" y="-147" on="0"/>
        <pt x="1251" y="-211" on="1"/>
        <pt x="1251" y="-270" on="0"/>
        <pt x="1324" y="-332" on="0"/>
        <pt x="1389" y="-332" on="1"/>
        <pt x="1441" y="-332" on="0"/>
        <pt x="1516" y="-310" on="0"/>
        <pt x="1538" y="-301" on="1"/>
        <pt x="1554" y="-338" on="1"/>
        <pt x="1538" y="-348" on="0"/>
        <pt x="1489" y="-373" on="0"/>
        <pt x="1426" y="-394" on="0"/>
        <pt x="1352" y="-408" on="0"/>
        <pt x="1311" y="-408" on="1"/>
        <pt x="1214" y="-408" on="0"/>
        <pt x="1098" y="-326" on="0"/>
        <pt x="1098" y="-248" on="1"/>
        <pt x="1098" y="-210" on="0"/>
        <pt x="1123" y="-146" on="0"/>
        <pt x="1167" y="-89" on="0"/>
        <pt x="1228" y="-39" on="0"/>
        <pt x="1264" y="-16" on="1"/>
        <pt x="1189" y="-16" on="0"/>
        <pt x="1100" y="18" on="0"/>
        <pt x="1051" y="68" on="0"/>
        <pt x="1030" y="124" on="0"/>
        <pt x="1024" y="145" on="1"/>
      </contour>
      <contour>
        <pt x="750" y="1098" on="1"/>
        <pt x="709" y="931" on="0"/>
        <pt x="632" y="637" on="0"/>
        <pt x="594" y="510" on="1"/>
        <pt x="920" y="510" on="1"/>
      </contour>
    </TTGlyph>
    <TTGlyph name="Aring" xMin="-164" yMin="-94" xMax="1528" yMax="2007">
      <component glyphName="A" x="0" y="0" flags="0x204"/>
      <component glyphName="ring" x="369" y="440" flags="0x4"/>
    </TTGlyph>
    <TTGlyph name="Atilde" xMin="-164" yMin="-94" xMax="1528" yMax="1878">
      <component glyphName="A" x="0" y="0" flags="0x204"/>
      <component glyphName="tilde" x="369" y="440" flags="0x4"/>
    </TTGlyph>
    <TTGlyph name="B" xMin="0" yMin="-16" xMax="1546" yMax="1495">
      <contour>
        <pt x="842" y="178" on="1"/>
        <pt x="842" y="155" on="0"/>
        <pt x="851" y="114" on="0"/>
        <pt x="878" y="84" on="0"/>
        <pt x="925" y="66" on="0"/>
        <pt x="963" y="66" on="1"/>
        <pt x="1018" y="66" on="0"/>
        <pt x="1110" y="129" on="0"/>
        <pt x="1176" y="228" on="0"/>
        <pt x="1212" y="351" on="0"/>
        <pt x="1212" y="412" on="1"/>
        <pt x="1212" y="503" on="0"/>
        <pt x="1163" y="642" on="0"/>
        <pt x="1075" y="738" on="0"/>
        <pt x="955" y="791" on="0"/>
        <pt x="885" y="795" on="1"/>
        <pt x="905" y="846" on="1"/>
        <pt x="949" y="844" on="0"/>
        <pt x="1029" y="872" on="0"/>
        <pt x="1090" y="942" on="0"/>
        <pt x="1126" y="1061" on="0"/>
        <pt x="1126" y="1151" on="1"/>
        <pt x="1126" y="1212" on="0"/>
        <pt x="1096" y="1310" on="0"/>
        <pt x="1047" y="1377" on="0"/>
        <pt x="982" y="1413" on="0"/>
        <pt x="948" y="1413" on="1"/>
        <pt x="927" y="1413" on="0"/>
        <pt x="888" y="1403" on="0"/>
        <pt x="859" y="1379" on="0"/>
        <pt x="842" y="1340" on="0"/>
        <pt x="842" y="1311" on="1"/>
      </contour>
      <contour>
        <pt x="862" y="1495" on="1"/>
        <pt x="1152" y="1495" on="0"/>
        <pt x="1425" y="1314" on="0"/>
        <pt x="1425" y="1141" on="1"/>
        <pt x="1425" y="1098" on="0"/>
        <pt x="1406" y="1026" on="0"/>
        <pt x="1376" y="967" on="0"/>
        <pt x="1338" y="921" on="0"/>
        <pt x="1318" y="904" on="1"/>
        <pt x="1271" y="863" on="0"/>
        <pt x="1212" y="840" on="1"/>
        <pt x="1212" y="825" on="1"/>
        <pt x="1305" y="814" on="0"/>
        <pt x="1379" y="769" on="1"/>
        <pt x="1410" y="750" on="0"/>
        <pt x="1470" y="693" on="0"/>
        <pt x="1517" y="612" on="0"/>
        <pt x="1546" y="505" on="0"/>
        <pt x="1546" y="436" on="1"/>
        <pt x="1546" y="331" on="0"/>
        <pt x="1470" y="163" on="0"/>
        <pt x="1320" y="46" on="0"/>
        <pt x="1096" y="-16" on="0"/>
        <pt x="948" y="-16" on="1"/>
        <pt x="811" y="-16" on="0"/>
        <pt x="639" y="18" on="0"/>
        <pt x="543" y="83" on="0"/>
        <pt x="508" y="175" on="0"/>
        <pt x="508" y="233" on="1"/>
        <pt x="508" y="1327" on="1"/>
        <pt x="508" y="1382" on="0"/>
        <pt x="432" y="1382" on="1"/>
        <pt x="377" y="1382" on="0"/>
        <pt x="264" y="1349" on="0"/>
        <pt x="173" y="1292" on="0"/>
        <pt x="115" y="1213" on="0"/>
        <pt x="115" y="1167" on="1"/>
        <pt x="115" y="1135" on="0"/>
        <pt x="132" y="1097" on="0"/>
        <pt x="154" y="1078" on="0"/>
        <pt x="177" y="1073" on="0"/>
        <pt x="182" y="1073" on="1"/>
        <pt x="207" y="1073" on="0"/>
        <pt x="239" y="1090" on="0"/>
        <pt x="265" y="1109" on="0"/>
        <pt x="288" y="1126" on="0"/>
        <pt x="303" y="1126" on="1"/>
        <pt x="315" y="1126" on="0"/>
        <pt x="342" y="1115" on="0"/>
        <pt x="365" y="1091" on="0"/>
        <pt x="381" y="1052" on="0"/>
        <pt x="381" y="1024" on="1"/>
        <pt x="381" y="984" on="0"/>
        <pt x="350" y="926" on="0"/>
        <pt x="301" y="887" on="0"/>
        <pt x="238" y="868" on="0"/>
        <pt x="207" y="868" on="1"/>
        <pt x="159" y="868" on="0"/>
        <pt x="82" y="901" on="0"/>
        <pt x="28" y="959" on="0"/>
        <pt x="0" y="1037" on="0"/>
        <pt x="0" y="1081" on="1"/>
        <pt x="0" y="1164" on="0"/>
        <pt x="62" y="1291" on="0"/>
        <pt x="175" y="1383" on="0"/>
        <pt x="333" y="1444" on="0"/>
        <pt x="525" y="1480" on="0"/>
        <pt x="744" y="1495" on="0"/>
      </contour>
    </TTGlyph>
    <TTGlyph name="C" xMin="82" yMin="-248" xMax="1147" yMax="1495">
      <contour>
        <pt x="768" y="1409" on="1"/>
        <pt x="741" y="1409" on="0"/>
        <pt x="669" y="1387" on="0"/>
        <pt x="594" y="1326" on="0"/>
        <pt x="522" y="1216" on="0"/>
        <pt x="465" y="1041" on="0"/>
        <pt x="430" y="791" on="0"/>
        <pt x="430" y="621" on="1"/>
        <pt x="430" y="459" on="0"/>
        <pt x="465" y="221" on="0"/>
        <pt x="524" y="54" on="0"/>
        <pt x="600" y="-52" on="0"/>
        <pt x="684" y="-111" on="0"/>
        <pt x="768" y="-133" on="0"/>
        <pt x="805" y="-133" on="1"/>
        <pt x="844" y="-133" on="0"/>
        <pt x="924" y="-113" on="0"/>
        <pt x="1001" y="-75" on="0"/>
        <pt x="1072" y="-21" on="0"/>
        <pt x="1102" y="14" on="1"/>
        <pt x="1147" y="-31" on="1"/>
        <pt x="1117" y="-68" on="0"/>
        <pt x="1033" y="-145" on="0"/>
        <pt x="922" y="-208" on="0"/>
        <pt x="784" y="-248" on="0"/>
        <pt x="700" y="-248" on="1"/>
        <pt x="569" y="-248" on="0"/>
        <pt x="344" y="-148" on="0"/>
        <pt x="177" y="63" on="0"/>
        <pt x="82" y="393" on="0"/>
        <pt x="82" y="623" on="1"/>
        <pt x="82" y="839" on="0"/>
        <pt x="182" y="1165" on="0"/>
        <pt x="354" y="1384" on="0"/>
        <pt x="586" y="1495" on="0"/>
        <pt x="717" y="1495" on="1"/>
        <pt x="804" y="1495" on="0"/>
        <pt x="947" y="1462" on="0"/>
        <pt x="1051" y="1399" on="0"/>
        <pt x="1108" y="1306" on="0"/>
        <pt x="1108" y="1247" on="1"/>
        <pt x="1108" y="1220" on="0"/>
        <pt x="1090" y="1161" on="0"/>
        <pt x="1053" y="1112" on="0"/>
        <pt x="999" y="1081" on="0"/>
        <pt x="963" y="1081" on="1"/>
        <pt x="931" y="1081" on="0"/>
        <pt x="896" y="1109" on="0"/>
        <pt x="879" y="1155" on="0"/>
        <pt x="874" y="1214" on="0"/>
        <pt x="872" y="1276" on="0"/>
        <pt x="865" y="1335" on="0"/>
        <pt x="844" y="1381" on="0"/>
        <pt x="804" y="1409" on="0"/>
      </contour>
    </TTGlyph>
    <TTGlyph name="Cacute" xMin="82" yMin="-248" xMax="1147" yMax="1904">
      <component glyphName="C" x="0" y="0" flags="0x204"/>
      <component glyphName="acute" x="315" y="440" flags="0x4"/>
    </TTGlyph>
    <TTGlyph name="Ccaron" xMin="82" yMin="-248" xMax="1147" yMax="1904">
      <component glyphName="C" x="0" y="0" flags="0x204"/>
      <component glyphName="caron" x="315" y="440" flags="0x4"/>
    </TTGlyph>
    <TTGlyph name="Ccedilla" xMin="82" yMin="-512" xMax="1147" yMax="1495">
      <contour>
        <pt x="768" y="1409" on="1"/>
        <pt x="741" y="1409" on="0"/>
        <pt x="669" y="1389" on="0"/>
        <pt x="594" y="1333" on="0"/>
        <pt x="522" y="1233" on="0"/>
        <pt x="465" y="1073" on="0"/>
        <pt x="430" y="846" on="0"/>
        <pt x="430" y="690" on="1"/>
        <pt x="430" y="542" on="0"/>
        <pt x="465" y="325" on="0"/>
        <pt x="524" y="172" on="0"/>
        <pt x="600" y="76" on="0"/>
        <pt x="684" y="22" on="0"/>
        <pt x="768" y="2" on="0"/>
        <pt x="805" y="2" on="1"/>
        <pt x="844" y="2" on="0"/>
        <pt x="924" y="22" on="0"/>
        <pt x="1001" y="60" on="0"/>
        <pt x="1072" y="115" on="0"/>
        <pt x="1102" y="150" on="1"/>
        <pt x="1147" y="104" on="1"/>
        <pt x="1117" y="67" on="0"/>
        <pt x="1033" y="-10" on="0"/>
        <pt x="922" y="-73" on="0"/>
        <pt x="784" y="-113" on="0"/>
        <pt x="700" y="-113" on="1"/>
        <pt x="668" y="-113" on="1"/>
        <pt x="657" y="-158" on="1"/>
        <pt x="720" y="-158" on="0"/>
        <pt x="814" y="-186" on="0"/>
        <pt x="876" y="-232" on="0"/>
        <pt x="907" y="-291" on="0"/>
        <pt x="907" y="-322" on="1"/>
        <pt x="907" y="-378" on="0"/>
        <pt x="858" y="-451" on="0"/>
        <pt x="781" y="-495" on="0"/>
        <pt x="689" y="-512" on="0"/>
        <pt x="647" y="-512" on="1"/>
        <pt x="606" y="-512" on="0"/>
        <pt x="534" y="-498" on="0"/>
        <pt x="475" y="-476" on="0"/>
        <pt x="429" y="-450" on="0"/>
        <pt x="414" y="-438" on="1"/>
        <pt x="432" y="-406" on="1"/>
        <pt x="472" y="-427" on="0"/>
        <pt x="560" y="-446" on="0"/>
        <pt x="602" y="-444" on="1"/>
        <pt x="634" y="-443" on="0"/>
        <pt x="688" y="-428" on="0"/>
        <pt x="727" y="-401" on="0"/>
        <pt x="748" y="-359" on="0"/>
        <pt x="748" y="-330" on="1"/>
        <pt x="748" y="-294" on="0"/>
        <pt x="718" y="-246" on="0"/>
        <pt x="668" y="-218" on="0"/>
        <pt x="606" y="-206" on="0"/>
        <pt x="575" y="-205" on="1"/>
        <pt x="600" y="-104" on="1"/>
        <pt x="488" y="-88" on="0"/>
        <pt x="298" y="21" on="0"/>
        <pt x="160" y="215" on="0"/>
        <pt x="82" y="499" on="0"/>
        <pt x="82" y="690" on="1"/>
        <pt x="82" y="889" on="0"/>
        <pt x="182" y="1190" on="0"/>
        <pt x="354" y="1393" on="0"/>
        <pt x="586" y="1495" on="0"/>
        <pt x="717" y="1495" on="1"/>
        <pt x="804" y="1495" on="0"/>
        <pt x="947" y="1462" on="0"/>
        <pt x="1051" y="1399" on="0"/>
        <pt x="1108" y="1306" on="0"/>
        <pt x="1108" y="1247" on="1"/>
        <pt x="1108" y="1220" on="0"/>
        <pt x="1090" y="1161" on="0"/>
        <pt x="1053" y="1112" on="0"/>
        <pt x="999" y="1081" on="0"/>
        <pt x="963" y="1081" on="1"/>
        <pt x="931" y="1081" on="0"/>
        <pt x="896" y="1109" on="0"/>
        <pt x="879" y="1155" on="0"/>
        <pt x="874" y="1214" on="0"/>
        <pt x="872" y="1276" on="0"/>
        <pt x="865" y="1335" on="0"/>
        <pt x="844" y="1381" on="0"/>
        <pt x="804" y="1409" on="0"/>
      </contour>
    </TTGlyph>
    <TTGlyph name="Ccircumflex" xMin="82" yMin="-248" xMax="1147" yMax="1904">
      <component glyphName="C" x="0" y="0" flags="0x204"/>
      <component glyphName="circumflex" x="315" y="440" flags="0x4"/>
    </TTGlyph>
    <TTGlyph name="Cdotaccent" xMin="82" yMin="-248" xMax="1147" yMax="1870">
      <component glyphName="C" x="0" y="0" flags="0x204"/>
      <component glyphName="dotaccent" x="315" y="440" flags="0x4"/>
    </TTGlyph>
    <TTGlyph name="D" xMin="0" yMin="-23" xMax="1612" yMax="1495">
      <contour>
        <pt x="487" y="1319" on="1"/>
        <pt x="487" y="1351" on="0"/>
        <pt x="440" y="1382" on="0"/>
        <pt x="412" y="1382" on="1"/>
        <pt x="356" y="1382" on="0"/>
        <pt x="250" y="1349" on="0"/>
        <pt x="166" y="1292" on="0"/>
        <pt x="115" y="1213" on="0"/>
        <pt x="115" y="1167" on="1"/>
        <pt x="115" y="1135" on="0"/>
        <pt x="132" y="1097" on="0"/>
        <pt x="154" y="1078" on="0"/>
        <pt x="177" y="1073" on="0"/>
        <pt x="182" y="1073" on="1"/>
        <pt x="207" y="1073" on="0"/>
        <pt x="239" y="1090" on="0"/>
        <pt x="265" y="1109" on="0"/>
        <pt x="288" y="1126" on="0"/>
        <pt x="303" y="1126" on="1"/>
        <pt x="315" y="1126" on="0"/>
        <pt x="342" y="1115" on="0"/>
        <pt x="365" y="1091" on="0"/>
        <pt x="381" y="1052" on="0"/>
        <pt x="381" y="1024" on="1"/>
        <pt x="381" y="984" on="0"/>
        <pt x="350" y="926" on="0"/>
        <pt x="301" y="887" on="0"/>
        <pt x="238" y="868" on="0"/>
        <pt x="207" y="868" on="1"/>
        <pt x="159" y="868" on="0"/>
        <pt x="82" y="901" on="0"/>
        <pt x="28" y="959" on="0"/>
        <pt x="0" y="1037" on="0"/>
        <pt x="0" y="1081" on="1"/>
        <pt x="0" y="1206" on="0"/>
        <pt x="126" y="1367" on="0"/>
        <pt x="343" y="1460" on="0"/>
        <pt x="632" y="1495" on="0"/>
        <pt x="795" y="1495" on="1"/>
        <pt x="981" y="1495" on="0"/>
        <pt x="1282" y="1420" on="0"/>
        <pt x="1496" y="1252" on="0"/>
        <pt x="1612" y="981" on="0"/>
        <pt x="1612" y="786" on="1"/>
        <pt x="1612" y="591" on="0"/>
        <pt x="1489" y="289" on="0"/>
        <pt x="1276" y="84" on="0"/>
        <pt x="989" y="-23" on="0"/>
        <pt x="825" y="-23" on="1"/>
        <pt x="716" y="-23" on="0"/>
        <pt x="583" y="-2" on="0"/>
        <pt x="511" y="49" on="0"/>
        <pt x="487" y="134" on="0"/>
        <pt x="487" y="199" on="1"/>
      </contour>
      <contour>
        <pt x="817" y="190" on="1"/>
        <pt x="817" y="133" on="0"/>
        <pt x="868" y="84" on="0"/>
        <pt x="918" y="84" on="1"/>
        <pt x="993" y="84" on="0"/>
        <pt x="1120" y="150" on="0"/>
        <pt x="1212" y="311" on="0"/>
        <pt x="1264" y="579" on="0"/>
        <pt x="1264" y="782" on="1"/>
        <pt x="1264" y="918" on="0"/>
        <pt x="1231" y="1117" on="0"/>
        <pt x="1177" y="1256" on="0"/>
        <pt x="1108" y="1343" on="0"/>
        <pt x="1036" y="1392" on="0"/>
        <pt x="967" y="1409" on="0"/>
        <pt x="940" y="1409" on="1"/>
        <pt x="875" y="1409" on="0"/>
        <pt x="817" y="1351" on="0"/>
        <pt x="817" y="1276" on="1"/>
      </contour>
    </TTGlyph>
    <TTGlyph name="Dcaron" xMin="0" yMin="-23" xMax="1612" yMax="1904">
      <component glyphName="D" x="0" y="0" flags="0x204"/>
      <component glyphName="caron" x="451" y="440" flags="0x4"/>
    </TTGlyph>
    <TTGlyph name="Dcroat" xMin="0" yMin="-23" xMax="1612" yMax="1495">
      <contour>
        <pt x="487" y="686" on="1"/>
        <pt x="270" y="686" on="1"/>
        <pt x="270" y="774" on="1"/>
        <pt x="487" y="774" on="1"/>
        <pt x="487" y="1319" on="1"/>
        <pt x="487" y="1351" on="0"/>
        <pt x="440" y="1382" on="0"/>
        <pt x="412" y="1382" on="1"/>
        <pt x="356" y="1382" on="0"/>
        <pt x="250" y="1349" on="0"/>
        <pt x="166" y="1292" on="0"/>
        <pt x="115" y="1213" on="0"/>
        <pt x="115" y="1167" on="1"/>
        <pt x="115" y="1135" on="0"/>
        <pt x="132" y="1097" on="0"/>
        <pt x="154" y="1078" on="0"/>
        <pt x="177" y="1073" on="0"/>
        <pt x="182" y="1073" on="1"/>
        <pt x="207" y="1073" on="0"/>
        <pt x="239" y="1090" on="0"/>
        <pt x="265" y="1109" on="0"/>
        <pt x="288" y="1126" on="0"/>
        <pt x="303" y="1126" on="1"/>
        <pt x="315" y="1126" on="0"/>
        <pt x="342" y="1115" on="0"/>
        <pt x="365" y="1091" on="0"/>
        <pt x="381" y="1052" on="0"/>
        <pt x="381" y="1024" on="1"/>
        <pt x="381" y="984" on="0"/>
        <pt x="350" y="926" on="0"/>
        <pt x="301" y="887" on="0"/>
        <pt x="238" y="868" on="0"/>
        <pt x="207" y="868" on="1"/>
        <pt x="159" y="868" on="0"/>
        <pt x="82" y="901" on="0"/>
        <pt x="28" y="959" on="0"/>
        <pt x="0" y="1037" on="0"/>
        <pt x="0" y="1081" on="1"/>
        <pt x="0" y="1206" on="0"/>
        <pt x="126" y="1367" on="0"/>
        <pt x="343" y="1460" on="0"/>
        <pt x="632" y="1495" on="0"/>
        <pt x="795" y="1495" on="1"/>
        <pt x="981" y="1495" on="0"/>
        <pt x="1282" y="1420" on="0"/>
        <pt x="1496" y="1252" on="0"/>
        <pt x="1612" y="981" on="0"/>
        <pt x="1612" y="786" on="1"/>
        <pt x="1612" y="591" on="0"/>
        <pt x="1489" y="289" on="0"/>
        <pt x="1276" y="84" on="0"/>
        <pt x="989" y="-23" on="0"/>
        <pt x="825" y="-23" on="1"/>
        <pt x="716" y="-23" on="0"/>
        <pt x="583" y="-2" on="0"/>
        <pt x="511" y="49" on="0"/>
        <pt x="487" y="134" on="0"/>
        <pt x="487" y="199" on="1"/>
      </contour>
      <contour>
        <pt x="1061" y="686" on="1"/>
        <pt x="817" y="686" on="1"/>
        <pt x="817" y="190" on="1"/>
        <pt x="817" y="133" on="0"/>
        <pt x="868" y="84" on="0"/>
        <pt x="918" y="84" on="1"/>
        <pt x="993" y="84" on="0"/>
        <pt x="1120" y="150" on="0"/>
        <pt x="1212" y="311" on="0"/>
        <pt x="1264" y="579" on="0"/>
        <pt x="1264" y="782" on="1"/>
        <pt x="1264" y="918" on="0"/>
        <pt x="1231" y="1117" on="0"/>
        <pt x="1177" y="1256" on="0"/>
        <pt x="1108" y="1343" on="0"/>
        <pt x="1036" y="1392" on="0"/>
        <pt x="967" y="1409" on="0"/>
        <pt x="940" y="1409" on="1"/>
        <pt x="875" y="1409" on="0"/>
        <pt x="817" y="1351" on="0"/>
        <pt x="817" y="1276" on="1"/>
        <pt x="817" y="774" on="1"/>
        <pt x="1061" y="774" on="1"/>
      </contour>
    </TTGlyph>
    <TTGlyph name="E" xMin="0" yMin="-16" xMax="1415" yMax="1495">
      <contour>
        <pt x="0" y="1061" on="1"/>
        <pt x="0" y="1178" on="0"/>
        <pt x="129" y="1342" on="0"/>
        <pt x="353" y="1447" on="0"/>
        <pt x="651" y="1495" on="0"/>
        <pt x="821" y="1495" on="1"/>
        <pt x="902" y="1495" on="0"/>
        <pt x="1056" y="1492" on="0"/>
        <pt x="1183" y="1486" on="0"/>
        <pt x="1275" y="1478" on="0"/>
        <pt x="1296" y="1473" on="1"/>
        <pt x="1316" y="1468" on="0"/>
        <pt x="1340" y="1456" on="0"/>
        <pt x="1352" y="1440" on="0"/>
        <pt x="1356" y="1419" on="0"/>
        <pt x="1356" y="1405" on="1"/>
        <pt x="1356" y="1393" on="0"/>
        <pt x="1350" y="1364" on="0"/>
        <pt x="1338" y="1339" on="0"/>
        <pt x="1320" y="1321" on="0"/>
        <pt x="1307" y="1321" on="1"/>
        <pt x="1299" y="1321" on="0"/>
        <pt x="1280" y="1335" on="0"/>
        <pt x="1245" y="1357" on="0"/>
        <pt x="1186" y="1381" on="0"/>
        <pt x="1087" y="1403" on="0"/>
        <pt x="940" y="1417" on="0"/>
        <pt x="836" y="1417" on="1"/>
        <pt x="836" y="776" on="1"/>
        <pt x="1251" y="776" on="1"/>
        <pt x="1251" y="688" on="1"/>
        <pt x="836" y="688" on="1"/>
        <pt x="836" y="297" on="1"/>
        <pt x="836" y="250" on="0"/>
        <pt x="864" y="183" on="0"/>
        <pt x="916" y="139" on="0"/>
        <pt x="989" y="119" on="0"/>
        <pt x="1034" y="119" on="1"/>
        <pt x="1085" y="119" on="0"/>
        <pt x="1187" y="140" on="0"/>
        <pt x="1278" y="172" on="0"/>
        <pt x="1353" y="212" on="0"/>
        <pt x="1376" y="231" on="1"/>
        <pt x="1415" y="188" on="1"/>
        <pt x="1390" y="168" on="0"/>
        <pt x="1306" y="99" on="0"/>
        <pt x="1185" y="33" on="0"/>
        <pt x="1024" y="-16" on="0"/>
        <pt x="922" y="-16" on="1"/>
        <pt x="888" y="-16" on="0"/>
        <pt x="801" y="-9" on="0"/>
        <pt x="709" y="12" on="0"/>
        <pt x="620" y="53" on="0"/>
        <pt x="551" y="121" on="0"/>
        <pt x="508" y="220" on="0"/>
        <pt x="508" y="289" on="1"/>
        <pt x="508" y="688" on="1"/>
        <pt x="352" y="688" on="1"/>
        <pt x="352" y="776" on="1"/>
        <pt x="508" y="776" on="1"/>
        <pt x="508" y="1405" on="1"/>
        <pt x="476" y="1402" on="0"/>
        <pt x="393" y="1385" on="0"/>
        <pt x="306" y="1354" on="0"/>
        <pt x="222" y="1312" on="0"/>
        <pt x="156" y="1256" on="0"/>
        <pt x="115" y="1187" on="0"/>
        <pt x="115" y="1147" on="1"/>
        <pt x="115" y="1115" on="0"/>
        <pt x="132" y="1077" on="0"/>
        <pt x="154" y="1058" on="0"/>
        <pt x="177" y="1053" on="0"/>
        <pt x="182" y="1053" on="1"/>
        <pt x="207" y="1053" on="0"/>
        <pt x="239" y="1070" on="0"/>
        <pt x="265" y="1089" on="0"/>
        <pt x="288" y="1106" on="0"/>
        <pt x="303" y="1106" on="1"/>
        <pt x="315" y="1106" on="0"/>
        <pt x="342" y="1095" on="0"/>
        <pt x="365" y="1071" on="0"/>
        <pt x="381" y="1032" on="0"/>
        <pt x="381" y="1004" on="1"/>
        <pt x="381" y="964" on="0"/>
        <pt x="350" y="905" on="0"/>
        <pt x="301" y="867" on="0"/>
        <pt x="238" y="848" on="0"/>
        <pt x="207" y="848" on="1"/>
        <pt x="159" y="848" on="0"/>
        <pt x="82" y="881" on="0"/>
        <pt x="28" y="939" on="0"/>
        <pt x="0" y="1016" on="0"/>
      </contour>
    </TTGlyph>
    <TTGlyph name="Eacute" xMin="0" yMin="-16" xMax="1415" yMax="1904">
      <component glyphName="E" x="0" y="0" flags="0x204"/>
      <component glyphName="acute" x="444" y="440" flags="0x4"/>
    </TTGlyph>
    <TTGlyph name="Ebreve" xMin="0" yMin="-16" xMax="1415" yMax="1878">
      <component glyphName="E" x="0" y="0" flags="0x204"/>
      <component glyphName="breve" x="444" y="440" flags="0x4"/>
    </TTGlyph>
    <TTGlyph name="Ecaron" xMin="0" yMin="-16" xMax="1415" yMax="1904">
      <component glyphName="E" x="0" y="0" flags="0x204"/>
      <component glyphName="caron" x="444" y="440" flags="0x4"/>
    </TTGlyph>
    <TTGlyph name="Ecircumflex" xMin="0" yMin="-16" xMax="1415" yMax="1904">
      <component glyphName="E" x="0" y="0" flags="0x204"/>
      <component glyphName="circumflex" x="444" y="440" flags="0x4"/>
    </TTGlyph>
    <TTGlyph name="Edieresis" xMin="0" yMin="-16" xMax="1415" yMax="1859">
      <component glyphName="E" x="0" y="0" flags="0x204"/>
      <component glyphName="dieresis" x="444" y="440" flags="0x4"/>
    </TTGlyph>
    <TTGlyph name="Edotaccent" xMin="0" yMin="-16" xMax="1415" yMax="1870">
      <component glyphName="E" x="0" y="0" flags="0x204"/>
      <component glyphName="dotaccent" x="444" y="440" flags="0x4"/>
    </TTGlyph>
    <TTGlyph name="Egrave" xMin="0" yMin="-16" xMax="1415" yMax="1904">
      <component glyphName="E" x="0" y="0" flags="0x204"/>
      <component glyphName="grave" x="444" y="440" flags="0x4"/>
    </TTGlyph>
    <TTGlyph name="Emacron" xMin="0" yMin="-16" xMax="1415" yMax="1822">
      <component glyphName="E" x="0" y="0" flags="0x204"/>
      <component glyphName="macron" x="444" y="440" flags="0x4"/>
    </TTGlyph>
    <TTGlyph name="Eng" xMin="-61" yMin="-391" xMax="1430" yMax="1495">
      <contour>
        <pt x="496" y="961" on="1"/>
        <pt x="496" y="1052" on="0"/>
        <pt x="493" y="1204" on="0"/>
        <pt x="491" y="1259" on="1"/>
        <pt x="489" y="1323" on="0"/>
        <pt x="487" y="1374" on="1"/>
        <pt x="487" y="1389" on="1"/>
        <pt x="467" y="1403" on="0"/>
        <pt x="416" y="1405" on="0"/>
        <pt x="391" y="1405" on="1"/>
        <pt x="356" y="1405" on="0"/>
        <pt x="258" y="1372" on="0"/>
        <pt x="166" y="1311" on="0"/>
        <pt x="102" y="1222" on="0"/>
        <pt x="102" y="1167" on="1"/>
        <pt x="102" y="1135" on="0"/>
        <pt x="119" y="1097" on="0"/>
        <pt x="142" y="1078" on="0"/>
        <pt x="165" y="1073" on="0"/>
        <pt x="170" y="1073" on="1"/>
        <pt x="195" y="1073" on="0"/>
        <pt x="227" y="1090" on="0"/>
        <pt x="253" y="1109" on="0"/>
        <pt x="276" y="1126" on="0"/>
        <pt x="291" y="1126" on="1"/>
        <pt x="303" y="1126" on="0"/>
        <pt x="330" y="1115" on="0"/>
        <pt x="353" y="1091" on="0"/>
        <pt x="369" y="1052" on="0"/>
        <pt x="369" y="1024" on="1"/>
        <pt x="369" y="984" on="0"/>
        <pt x="338" y="926" on="0"/>
        <pt x="289" y="887" on="0"/>
        <pt x="226" y="868" on="0"/>
        <pt x="195" y="868" on="1"/>
        <pt x="147" y="868" on="0"/>
        <pt x="70" y="901" on="0"/>
        <pt x="16" y="959" on="0"/>
        <pt x="-12" y="1037" on="0"/>
        <pt x="-12" y="1081" on="1"/>
        <pt x="-12" y="1185" on="0"/>
        <pt x="75" y="1340" on="0"/>
        <pt x="220" y="1444" on="0"/>
        <pt x="409" y="1495" on="0"/>
        <pt x="510" y="1495" on="1"/>
        <pt x="601" y="1495" on="0"/>
        <pt x="719" y="1471" on="0"/>
        <pt x="793" y="1431" on="0"/>
        <pt x="835" y="1376" on="0"/>
        <pt x="850" y="1346" on="1"/>
        <pt x="912" y="1220" on="0"/>
        <pt x="1028" y="1005" on="0"/>
        <pt x="1136" y="813" on="0"/>
        <pt x="1238" y="638" on="0"/>
        <pt x="1286" y="553" on="1"/>
        <pt x="1286" y="645" on="1"/>
        <pt x="1286" y="777" on="0"/>
        <pt x="1279" y="1022" on="0"/>
        <pt x="1275" y="1119" on="1"/>
        <pt x="1270" y="1232" on="0"/>
        <pt x="1264" y="1331" on="1"/>
        <pt x="1264" y="1350" on="0"/>
        <pt x="1258" y="1406" on="0"/>
        <pt x="1268" y="1458" on="0"/>
        <pt x="1305" y="1495" on="0"/>
        <pt x="1348" y="1495" on="1"/>
        <pt x="1361" y="1495" on="0"/>
        <pt x="1390" y="1489" on="0"/>
        <pt x="1414" y="1475" on="0"/>
        <pt x="1430" y="1455" on="0"/>
        <pt x="1430" y="1440" on="1"/>
        <pt x="1430" y="1424" on="0"/>
        <pt x="1425" y="1376" on="0"/>
        <pt x="1419" y="1300" on="0"/>
        <pt x="1411" y="1187" on="0"/>
        <pt x="1404" y="1022" on="0"/>
        <pt x="1400" y="798" on="0"/>
        <pt x="1401" y="649" on="1"/>
        <pt x="1403" y="150" on="1"/>
        <pt x="1403" y="14" on="0"/>
        <pt x="1354" y="-189" on="0"/>
        <pt x="1250" y="-324" on="0"/>
        <pt x="1087" y="-391" on="0"/>
        <pt x="973" y="-391" on="1"/>
        <pt x="922" y="-391" on="0"/>
        <pt x="828" y="-374" on="0"/>
        <pt x="756" y="-344" on="0"/>
        <pt x="713" y="-303" on="0"/>
        <pt x="713" y="-279" on="1"/>
        <pt x="713" y="-261" on="0"/>
        <pt x="723" y="-224" on="0"/>
        <pt x="743" y="-193" on="0"/>
        <pt x="772" y="-174" on="0"/>
        <pt x="791" y="-174" on="1"/>
        <pt x="802" y="-174" on="0"/>
        <pt x="819" y="-195" on="0"/>
        <pt x="837" y="-226" on="0"/>
        <pt x="860" y="-263" on="0"/>
        <pt x="896" y="-294" on="0"/>
        <pt x="949" y="-315" on="0"/>
        <pt x="987" y="-315" on="1"/>
        <pt x="1062" y="-315" on="0"/>
        <pt x="1174" y="-262" on="0"/>
        <pt x="1247" y="-166" on="0"/>
        <pt x="1284" y="-31" on="0"/>
        <pt x="1286" y="51" on="1"/>
        <pt x="1215" y="115" on="0"/>
        <pt x="1084" y="285" on="0"/>
        <pt x="963" y="479" on="0"/>
        <pt x="852" y="688" on="0"/>
        <pt x="750" y="896" on="0"/>
        <pt x="654" y="1092" on="0"/>
        <pt x="610" y="1176" on="1"/>
        <pt x="610" y="1116" on="0"/>
        <pt x="612" y="987" on="0"/>
        <pt x="612" y="922" on="1"/>
        <pt x="612" y="612" on="1"/>
        <pt x="612" y="529" on="0"/>
        <pt x="604" y="371" on="0"/>
        <pt x="574" y="230" on="0"/>
        <pt x="517" y="111" on="0"/>
        <pt x="419" y="25" on="0"/>
        <pt x="275" y="-23" on="0"/>
        <pt x="174" y="-23" on="1"/>
        <pt x="123" y="-23" on="0"/>
        <pt x="37" y="-8" on="0"/>
        <pt x="-26" y="20" on="0"/>
        <pt x="-61" y="60" on="0"/>
        <pt x="-61" y="86" on="1"/>
        <pt x="-61" y="102" on="0"/>
        <pt x="-52" y="137" on="0"/>
        <pt x="-34" y="165" on="0"/>
        <pt x="-8" y="184" on="0"/>
        <pt x="10" y="184" on="1"/>
        <pt x="20" y="184" on="0"/>
        <pt x="37" y="164" on="0"/>
        <pt x="56" y="134" on="0"/>
        <pt x="81" y="99" on="0"/>
        <pt x="116" y="69" on="0"/>
        <pt x="166" y="49" on="0"/>
        <pt x="201" y="49" on="1"/>
        <pt x="282" y="49" on="0"/>
        <pt x="388" y="106" on="0"/>
        <pt x="452" y="211" on="0"/>
        <pt x="481" y="359" on="0"/>
        <pt x="485" y="451" on="1"/>
        <pt x="488" y="514" on="0"/>
        <pt x="492" y="632" on="0"/>
        <pt x="495" y="754" on="0"/>
        <pt x="496" y="886" on="0"/>
      </contour>
    </TTGlyph>
    <TTGlyph name="Eogonek" xMin="0" yMin="-360" xMax="1415" yMax="1495">
      <contour>
        <pt x="0" y="1061" on="1"/>
        <pt x="0" y="1178" on="0"/>
        <pt x="129" y="1342" on="0"/>
        <pt x="353" y="1447" on="0"/>
        <pt x="651" y="1495" on="0"/>
        <pt x="821" y="1495" on="1"/>
        <pt x="902" y="1495" on="0"/>
        <pt x="1056" y="1492" on="0"/>
        <pt x="1183" y="1486" on="0"/>
        <pt x="1275" y="1478" on="0"/>
        <pt x="1296" y="1473" on="1"/>
        <pt x="1316" y="1468" on="0"/>
        <pt x="1340" y="1456" on="0"/>
        <pt x="1352" y="1440" on="0"/>
        <pt x="1356" y="1419" on="0"/>
        <pt x="1356" y="1405" on="1"/>
        <pt x="1356" y="1393" on="0"/>
        <pt x="1350" y="1364" on="0"/>
        <pt x="1338" y="1339" on="0"/>
        <pt x="1320" y="1321" on="0"/>
        <pt x="1307" y="1321" on="1"/>
        <pt x="1299" y="1321" on="0"/>
        <pt x="1280" y="1335" on="0"/>
        <pt x="1245" y="1357" on="0"/>
        <pt x="1186" y="1381" on="0"/>
        <pt x="1087" y="1403" on="0"/>
        <pt x="940" y="1417" on="0"/>
        <pt x="836" y="1417" on="1"/>
        <pt x="836" y="776" on="1"/>
        <pt x="1251" y="776" on="1"/>
        <pt x="1251" y="688" on="1"/>
        <pt x="836" y="688" on="1"/>
        <pt x="836" y="297" on="1"/>
        <pt x="836" y="250" on="0"/>
        <pt x="864" y="183" on="0"/>
        <pt x="916" y="139" on="0"/>
        <pt x="989" y="119" on="0"/>
        <pt x="1034" y="119" on="1"/>
        <pt x="1085" y="119" on="0"/>
        <pt x="1187" y="140" on="0"/>
        <pt x="1278" y="172" on="0"/>
        <pt x="1353" y="212" on="0"/>
        <pt x="1376" y="231" on="1"/>
        <pt x="1415" y="188" on="1"/>
        <pt x="1389" y="167" on="0"/>
        <pt x="1322" y="119" on="0"/>
        <pt x="1250" y="66" on="0"/>
        <pt x="1180" y="7" on="0"/>
        <pt x="1126" y="-57" on="0"/>
        <pt x="1092" y="-127" on="0"/>
        <pt x="1092" y="-164" on="1"/>
        <pt x="1092" y="-223" on="0"/>
        <pt x="1164" y="-285" on="0"/>
        <pt x="1229" y="-285" on="1"/>
        <pt x="1281" y="-285" on="0"/>
        <pt x="1357" y="-263" on="0"/>
        <pt x="1378" y="-254" on="1"/>
        <pt x="1395" y="-291" on="1"/>
        <pt x="1379" y="-301" on="0"/>
        <pt x="1330" y="-325" on="0"/>
        <pt x="1267" y="-346" on="0"/>
        <pt x="1193" y="-360" on="0"/>
        <pt x="1151" y="-360" on="1"/>
        <pt x="1054" y="-360" on="0"/>
        <pt x="938" y="-279" on="0"/>
        <pt x="938" y="-201" on="1"/>
        <pt x="938" y="-141" on="0"/>
        <pt x="992" y="-46" on="0"/>
        <pt x="1038" y="-6" on="1"/>
        <pt x="1010" y="-11" on="0"/>
        <pt x="953" y="-16" on="0"/>
        <pt x="922" y="-16" on="1"/>
        <pt x="888" y="-16" on="0"/>
        <pt x="801" y="-9" on="0"/>
        <pt x="709" y="12" on="0"/>
        <pt x="620" y="53" on="0"/>
        <pt x="551" y="121" on="0"/>
        <pt x="508" y="220" on="0"/>
        <pt x="508" y="289" on="1"/>
        <pt x="508" y="688" on="1"/>
        <pt x="352" y="688" on="1"/>
        <pt x="352" y="776" on="1"/>
        <pt x="508" y="776" on="1"/>
        <pt x="508" y="1405" on="1"/>
        <pt x="476" y="1402" on="0"/>
        <pt x="393" y="1385" on="0"/>
        <pt x="306" y="1354" on="0"/>
        <pt x="222" y="1312" on="0"/>
        <pt x="156" y="1256" on="0"/>
        <pt x="115" y="1187" on="0"/>
        <pt x="115" y="1147" on="1"/>
        <pt x="115" y="1115" on="0"/>
        <pt x="132" y="1077" on="0"/>
        <pt x="154" y="1058" on="0"/>
        <pt x="177" y="1053" on="0"/>
        <pt x="182" y="1053" on="1"/>
        <pt x="207" y="1053" on="0"/>
        <pt x="239" y="1070" on="0"/>
        <pt x="265" y="1089" on="0"/>
        <pt x="288" y="1106" on="0"/>
        <pt x="303" y="1106" on="1"/>
        <pt x="315" y="1106" on="0"/>
        <pt x="342" y="1095" on="0"/>
        <pt x="365" y="1071" on="0"/>
        <pt x="381" y="1032" on="0"/>
        <pt x="381" y="1004" on="1"/>
        <pt x="381" y="964" on="0"/>
        <pt x="350" y="905" on="0"/>
        <pt x="301" y="867" on="0"/>
        <pt x="238" y="848" on="0"/>
        <pt x="207" y="848" on="1"/>
        <pt x="159" y="848" on="0"/>
        <pt x="82" y="881" on="0"/>
        <pt x="28" y="939" on="0"/>
        <pt x="0" y="1016" on="0"/>
      </contour>
    </TTGlyph>
    <TTGlyph name="Eth" xMin="0" yMin="-23" xMax="1612" yMax="1495">
      <contour>
        <pt x="487" y="686" on="1"/>
        <pt x="270" y="686" on="1"/>
        <pt x="270" y="774" on="1"/>
        <pt x="487" y="774" on="1"/>
        <pt x="487" y="1319" on="1"/>
        <pt x="487" y="1351" on="0"/>
        <pt x="440" y="1382" on="0"/>
        <pt x="412" y="1382" on="1"/>
        <pt x="356" y="1382" on="0"/>
        <pt x="250" y="1349" on="0"/>
        <pt x="166" y="1292" on="0"/>
        <pt x="115" y="1213" on="0"/>
        <pt x="115" y="1167" on="1"/>
        <pt x="115" y="1135" on="0"/>
        <pt x="132" y="1097" on="0"/>
        <pt x="154" y="1078" on="0"/>
        <pt x="177" y="1073" on="0"/>
        <pt x="182" y="1073" on="1"/>
        <pt x="207" y="1073" on="0"/>
        <pt x="239" y="1090" on="0"/>
        <pt x="265" y="1109" on="0"/>
        <pt x="288" y="1126" on="0"/>
        <pt x="303" y="1126" on="1"/>
        <pt x="315" y="1126" on="0"/>
        <pt x="342" y="1115" on="0"/>
        <pt x="365" y="1091" on="0"/>
        <pt x="381" y="1052" on="0"/>
        <pt x="381" y="1024" on="1"/>
        <pt x="381" y="984" on="0"/>
        <pt x="350" y="926" on="0"/>
        <pt x="301" y="887" on="0"/>
        <pt x="238" y="868" on="0"/>
        <pt x="207" y="868" on="1"/>
        <pt x="159" y="868" on="0"/>
        <pt x="82" y="901" on="0"/>
        <pt x="28" y="959" on="0"/>
        <pt x="0" y="1037" on="0"/>
        <pt x="0" y="1081" on="1"/>
        <pt x="0" y="1206" on="0"/>
        <pt x="126" y="1367" on="0"/>
        <pt x="343" y="1460" on="0"/>
        <pt x="632" y="1495" on="0"/>
        <pt x="795" y="1495" on="1"/>
        <pt x="981" y="1495" on="0"/>
        <pt x="1282" y="1420" on="0"/>
        <pt x="1496" y="1252" on="0"/>
        <pt x="1612" y="981" on="0"/>
        <pt x="1612" y="786" on="1"/>
        <pt x="1612" y="591" on="0"/>
        <pt x="1489" y="289" on="0"/>
        <pt x="1276" y="84" on="0"/>
        <pt x="989" y="-23" on="0"/>
        <pt x="825" y="-23" on="1"/>
        <pt x="716" y="-23" on="0"/>
        <pt x="583" y="-2" on="0"/>
        <pt x="511" y="49" on="0"/>
        <pt x="487" y="134" on="0"/>
        <pt x="487" y="199" on="1"/>
      </contour>
      <contour>
        <pt x="1061" y="686" on="1"/>
        <pt x="817" y="686" on="1"/>
        <pt x="817" y="190" on="1"/>
        <pt x="817" y="133" on="0"/>
        <pt x="868" y="84" on="0"/>
        <pt x="918" y="84" on="1"/>
        <pt x="993" y="84" on="0"/>
        <pt x="1120" y="150" on="0"/>
        <pt x="1212" y="311" on="0"/>
        <pt x="1264" y="579" on="0"/>
        <pt x="1264" y="782" on="1"/>
        <pt x="1264" y="918" on="0"/>
        <pt x="1231" y="1117" on="0"/>
        <pt x="1177" y="1256" on="0"/>
        <pt x="1108" y="1343" on="0"/>
        <pt x="1036" y="1392" on="0"/>
        <pt x="967" y="1409" on="0"/>
        <pt x="940" y="1409" on="1"/>
        <pt x="875" y="1409" on="0"/>
        <pt x="817" y="1351" on="0"/>
        <pt x="817" y="1276" on="1"/>
        <pt x="817" y="774" on="1"/>
        <pt x="1061" y="774" on="1"/>
      </contour>
    </TTGlyph>
    <TTGlyph name="Euro" xMin="41" yMin="-16" xMax="1167" yMax="1495">
      <contour>
        <pt x="805" y="1409" on="1"/>
        <pt x="788" y="1409" on="0"/>
        <pt x="737" y="1394" on="0"/>
        <pt x="680" y="1352" on="0"/>
        <pt x="621" y="1278" on="0"/>
        <pt x="569" y="1162" on="0"/>
        <pt x="530" y="997" on="0"/>
        <pt x="522" y="885" on="1"/>
        <pt x="920" y="885" on="1"/>
        <pt x="899" y="813" on="1"/>
        <pt x="518" y="813" on="1"/>
        <pt x="518" y="700" on="1"/>
        <pt x="881" y="700" on="1"/>
        <pt x="860" y="629" on="1"/>
        <pt x="520" y="629" on="1"/>
        <pt x="527" y="515" on="0"/>
        <pt x="565" y="348" on="0"/>
        <pt x="619" y="229" on="0"/>
        <pt x="686" y="153" on="0"/>
        <pt x="756" y="110" on="0"/>
        <pt x="827" y="94" on="0"/>
        <pt x="858" y="94" on="1"/>
        <pt x="893" y="94" on="0"/>
        <pt x="968" y="110" on="0"/>
        <pt x="1042" y="144" on="0"/>
        <pt x="1109" y="194" on="0"/>
        <pt x="1137" y="229" on="1"/>
        <pt x="1167" y="201" on="1"/>
        <pt x="1140" y="164" on="0"/>
        <pt x="1062" y="87" on="0"/>
        <pt x="960" y="24" on="0"/>
        <pt x="832" y="-16" on="0"/>
        <pt x="754" y="-16" on="1"/>
        <pt x="643" y="-16" on="0"/>
        <pt x="447" y="62" on="0"/>
        <pt x="296" y="222" on="0"/>
        <pt x="200" y="464" on="0"/>
        <pt x="188" y="629" on="1"/>
        <pt x="41" y="629" on="1"/>
        <pt x="61" y="700" on="1"/>
        <pt x="184" y="700" on="1"/>
        <pt x="184" y="745" on="0"/>
        <pt x="184" y="793" on="0"/>
        <pt x="186" y="813" on="1"/>
        <pt x="41" y="813" on="1"/>
        <pt x="61" y="885" on="1"/>
        <pt x="195" y="885" on="1"/>
        <pt x="216" y="1035" on="0"/>
        <pt x="330" y="1263" on="0"/>
        <pt x="489" y="1417" on="0"/>
        <pt x="679" y="1495" on="0"/>
        <pt x="774" y="1495" on="1"/>
        <pt x="855" y="1495" on="0"/>
        <pt x="986" y="1457" on="0"/>
        <pt x="1078" y="1390" on="0"/>
        <pt x="1128" y="1299" on="0"/>
        <pt x="1128" y="1247" on="1"/>
        <pt x="1128" y="1223" on="0"/>
        <pt x="1112" y="1171" on="0"/>
        <pt x="1080" y="1128" on="0"/>
        <pt x="1031" y="1100" on="0"/>
        <pt x="999" y="1100" on="1"/>
        <pt x="961" y="1100" on="0"/>
        <pt x="930" y="1146" on="0"/>
        <pt x="918" y="1214" on="0"/>
        <pt x="915" y="1295" on="0"/>
        <pt x="897" y="1363" on="0"/>
        <pt x="852" y="1409" on="0"/>
      </contour>
    </TTGlyph>
    <TTGlyph name="F" xMin="0" yMin="-16" xMax="1356" yMax="1495">
      <contour>
        <pt x="1231" y="688" on="1"/>
        <pt x="836" y="688" on="1"/>
        <pt x="836" y="131" on="1"/>
        <pt x="836" y="54" on="0"/>
        <pt x="755" y="-16" on="0"/>
        <pt x="672" y="-16" on="1"/>
        <pt x="588" y="-16" on="0"/>
        <pt x="508" y="54" on="0"/>
        <pt x="508" y="131" on="1"/>
        <pt x="508" y="688" on="1"/>
        <pt x="352" y="688" on="1"/>
        <pt x="352" y="776" on="1"/>
        <pt x="508" y="776" on="1"/>
        <pt x="508" y="1405" on="1"/>
        <pt x="476" y="1402" on="0"/>
        <pt x="393" y="1385" on="0"/>
        <pt x="306" y="1354" on="0"/>
        <pt x="222" y="1312" on="0"/>
        <pt x="156" y="1256" on="0"/>
        <pt x="115" y="1187" on="0"/>
        <pt x="115" y="1147" on="1"/>
        <pt x="115" y="1115" on="0"/>
        <pt x="132" y="1077" on="0"/>
        <pt x="154" y="1058" on="0"/>
        <pt x="177" y="1053" on="0"/>
        <pt x="182" y="1053" on="1"/>
        <pt x="207" y="1053" on="0"/>
        <pt x="239" y="1070" on="0"/>
        <pt x="265" y="1089" on="0"/>
        <pt x="288" y="1106" on="0"/>
        <pt x="303" y="1106" on="1"/>
        <pt x="315" y="1106" on="0"/>
        <pt x="342" y="1095" on="0"/>
        <pt x="365" y="1071" on="0"/>
        <pt x="381" y="1032" on="0"/>
        <pt x="381" y="1004" on="1"/>
        <pt x="381" y="964" on="0"/>
        <pt x="350" y="905" on="0"/>
        <pt x="301" y="867" on="0"/>
        <pt x="238" y="848" on="0"/>
        <pt x="207" y="848" on="1"/>
        <pt x="159" y="848" on="0"/>
        <pt x="82" y="881" on="0"/>
        <pt x="28" y="939" on="0"/>
        <pt x="0" y="1016" on="0"/>
        <pt x="0" y="1061" on="1"/>
        <pt x="0" y="1178" on="0"/>
        <pt x="129" y="1342" on="0"/>
        <pt x="353" y="1447" on="0"/>
        <pt x="651" y="1495" on="0"/>
        <pt x="821" y="1495" on="1"/>
        <pt x="890" y="1495" on="0"/>
        <pt x="1040" y="1492" on="0"/>
        <pt x="1173" y="1486" on="0"/>
        <pt x="1275" y="1478" on="0"/>
        <pt x="1296" y="1473" on="1"/>
        <pt x="1316" y="1468" on="0"/>
        <pt x="1340" y="1456" on="0"/>
        <pt x="1352" y="1440" on="0"/>
        <pt x="1356" y="1419" on="0"/>
        <pt x="1356" y="1405" on="1"/>
        <pt x="1356" y="1393" on="0"/>
        <pt x="1350" y="1364" on="0"/>
        <pt x="1338" y="1339" on="0"/>
        <pt x="1320" y="1321" on="0"/>
        <pt x="1307" y="1321" on="1"/>
        <pt x="1299" y="1321" on="0"/>
        <pt x="1280" y="1335" on="0"/>
        <pt x="1245" y="1357" on="0"/>
        <pt x="1186" y="1381" on="0"/>
        <pt x="1087" y="1403" on="0"/>
        <pt x="940" y="1417" on="0"/>
        <pt x="836" y="1417" on="1"/>
        <pt x="836" y="776" on="1"/>
        <pt x="1231" y="776" on="1"/>
      </contour>
    </TTGlyph>
    <TTGlyph name="G" xMin="82" yMin="-512" xMax="1346" yMax="1495">
      <contour>
        <pt x="1346" y="616" on="1"/>
        <pt x="1202" y="616" on="1"/>
        <pt x="1202" y="29" on="1"/>
        <pt x="1202" y="-107" on="0"/>
        <pt x="1110" y="-310" on="0"/>
        <pt x="945" y="-445" on="0"/>
        <pt x="719" y="-512" on="0"/>
        <pt x="586" y="-512" on="1"/>
        <pt x="535" y="-512" on="0"/>
        <pt x="441" y="-495" on="0"/>
        <pt x="369" y="-465" on="0"/>
        <pt x="326" y="-424" on="0"/>
        <pt x="326" y="-399" on="1"/>
        <pt x="326" y="-381" on="0"/>
        <pt x="336" y="-344" on="0"/>
        <pt x="356" y="-314" on="0"/>
        <pt x="385" y="-295" on="0"/>
        <pt x="403" y="-295" on="1"/>
        <pt x="415" y="-295" on="0"/>
        <pt x="431" y="-317" on="0"/>
        <pt x="449" y="-349" on="0"/>
        <pt x="473" y="-388" on="0"/>
        <pt x="509" y="-420" on="0"/>
        <pt x="561" y="-442" on="0"/>
        <pt x="600" y="-442" on="1"/>
        <pt x="677" y="-442" on="0"/>
        <pt x="795" y="-386" on="0"/>
        <pt x="874" y="-285" on="0"/>
        <pt x="915" y="-144" on="0"/>
        <pt x="915" y="-59" on="1"/>
        <pt x="915" y="2" on="1"/>
        <pt x="873" y="-7" on="0"/>
        <pt x="788" y="-16" on="0"/>
        <pt x="735" y="-16" on="1"/>
        <pt x="599" y="-16" on="0"/>
        <pt x="361" y="67" on="0"/>
        <pt x="184" y="241" on="0"/>
        <pt x="82" y="511" on="0"/>
        <pt x="82" y="698" on="1"/>
        <pt x="82" y="828" on="0"/>
        <pt x="138" y="1048" on="0"/>
        <pt x="238" y="1225" on="0"/>
        <pt x="375" y="1359" on="0"/>
        <pt x="536" y="1449" on="0"/>
        <pt x="715" y="1495" on="0"/>
        <pt x="807" y="1495" on="1"/>
        <pt x="894" y="1495" on="0"/>
        <pt x="1044" y="1462" on="0"/>
        <pt x="1155" y="1399" on="0"/>
        <pt x="1219" y="1306" on="0"/>
        <pt x="1219" y="1247" on="1"/>
        <pt x="1219" y="1220" on="0"/>
        <pt x="1200" y="1161" on="0"/>
        <pt x="1164" y="1112" on="0"/>
        <pt x="1109" y="1081" on="0"/>
        <pt x="1073" y="1081" on="1"/>
        <pt x="1030" y="1081" on="0"/>
        <pt x="989" y="1130" on="0"/>
        <pt x="968" y="1202" on="0"/>
        <pt x="958" y="1288" on="0"/>
        <pt x="934" y="1360" on="0"/>
        <pt x="885" y="1409" on="0"/>
        <pt x="838" y="1409" on="1"/>
        <pt x="803" y="1409" on="0"/>
        <pt x="715" y="1375" on="0"/>
        <pt x="625" y="1302" on="0"/>
        <pt x="538" y="1189" on="0"/>
        <pt x="471" y="1031" on="0"/>
        <pt x="430" y="826" on="0"/>
        <pt x="430" y="698" on="1"/>
        <pt x="430" y="556" on="0"/>
        <pt x="466" y="355" on="0"/>
        <pt x="525" y="220" on="0"/>
        <pt x="602" y="141" on="0"/>
        <pt x="684" y="101" on="0"/>
        <pt x="765" y="90" on="0"/>
        <pt x="799" y="90" on="1"/>
        <pt x="834" y="90" on="0"/>
        <pt x="892" y="101" on="0"/>
        <pt x="915" y="111" on="1"/>
        <pt x="915" y="616" on="1"/>
        <pt x="739" y="616" on="1"/>
        <pt x="739" y="705" on="1"/>
        <pt x="1346" y="705" on="1"/>
      </contour>
    </TTGlyph>
    <TTGlyph name="Gbreve" xMin="82" yMin="-512" xMax="1346" yMax="1878">
      <component glyphName="G" x="0" y="0" flags="0x204"/>
      <component glyphName="breve" x="379" y="440" flags="0x4"/>
    </TTGlyph>
    <TTGlyph name="Gcircumflex" xMin="82" yMin="-512" xMax="1346" yMax="1904">
      <component glyphName="G" x="0" y="0" flags="0x204"/>
      <component glyphName="circumflex" x="379" y="440" flags="0x4"/>
    </TTGlyph>
    <TTGlyph name="Gcommaaccent" xMin="82" yMin="-512" xMax="1346" yMax="1495">
      <contour>
        <pt x="915" y="2" on="1"/>
        <pt x="873" y="-7" on="0"/>
        <pt x="788" y="-16" on="0"/>
        <pt x="735" y="-16" on="1"/>
        <pt x="599" y="-16" on="0"/>
        <pt x="361" y="67" on="0"/>
        <pt x="184" y="241" on="0"/>
        <pt x="82" y="511" on="0"/>
        <pt x="82" y="698" on="1"/>
        <pt x="82" y="828" on="0"/>
        <pt x="138" y="1048" on="0"/>
        <pt x="238" y="1225" on="0"/>
        <pt x="375" y="1359" on="0"/>
        <pt x="536" y="1449" on="0"/>
        <pt x="715" y="1495" on="0"/>
        <pt x="807" y="1495" on="1"/>
        <pt x="894" y="1495" on="0"/>
        <pt x="1044" y="1462" on="0"/>
        <pt x="1155" y="1399" on="0"/>
        <pt x="1219" y="1306" on="0"/>
        <pt x="1219" y="1247" on="1"/>
        <pt x="1219" y="1220" on="0"/>
        <pt x="1200" y="1161" on="0"/>
        <pt x="1164" y="1112" on="0"/>
        <pt x="1109" y="1081" on="0"/>
        <pt x="1073" y="1081" on="1"/>
        <pt x="1030" y="1081" on="0"/>
        <pt x="989" y="1130" on="0"/>
        <pt x="968" y="1202" on="0"/>
        <pt x="958" y="1288" on="0"/>
        <pt x="934" y="1360" on="0"/>
        <pt x="885" y="1409" on="0"/>
        <pt x="838" y="1409" on="1"/>
        <pt x="803" y="1409" on="0"/>
        <pt x="715" y="1375" on="0"/>
        <pt x="625" y="1302" on="0"/>
        <pt x="538" y="1189" on="0"/>
        <pt x="471" y="1031" on="0"/>
        <pt x="430" y="826" on="0"/>
        <pt x="430" y="698" on="1"/>
        <pt x="430" y="556" on="0"/>
        <pt x="466" y="355" on="0"/>
        <pt x="525" y="220" on="0"/>
        <pt x="602" y="141" on="0"/>
        <pt x="684" y="101" on="0"/>
        <pt x="765" y="90" on="0"/>
        <pt x="799" y="90" on="1"/>
        <pt x="834" y="90" on="0"/>
        <pt x="892" y="101" on="0"/>
        <pt x="915" y="111" on="1"/>
        <pt x="915" y="616" on="1"/>
        <pt x="739" y="616" on="1"/>
        <pt x="739" y="705" on="1"/>
        <pt x="1346" y="705" on="1"/>
        <pt x="1346" y="616" on="1"/>
        <pt x="1202" y="616" on="1"/>
        <pt x="1202" y="168" on="1"/>
        <pt x="1202" y="23" on="0"/>
        <pt x="1153" y="-191" on="0"/>
        <pt x="1074" y="-341" on="0"/>
        <pt x="973" y="-436" on="0"/>
        <pt x="870" y="-490" on="0"/>
        <pt x="773" y="-511" on="0"/>
        <pt x="737" y="-512" on="1"/>
        <pt x="727" y="-471" on="1"/>
        <pt x="772" y="-460" on="0"/>
        <pt x="842" y="-427" on="0"/>
        <pt x="890" y="-363" on="0"/>
        <pt x="915" y="-256" on="0"/>
        <pt x="915" y="-172" on="1"/>
      </contour>
      <contour>
        <pt x="451" y="-446" on="1"/>
        <pt x="479" y="-434" on="0"/>
        <pt x="514" y="-411" on="0"/>
        <pt x="534" y="-388" on="0"/>
        <pt x="541" y="-366" on="0"/>
        <pt x="541" y="-354" on="1"/>
        <pt x="541" y="-335" on="0"/>
        <pt x="515" y="-308" on="0"/>
        <pt x="483" y="-281" on="0"/>
        <pt x="457" y="-246" on="0"/>
        <pt x="457" y="-219" on="1"/>
        <pt x="457" y="-203" on="0"/>
        <pt x="471" y="-169" on="0"/>
        <pt x="500" y="-141" on="0"/>
        <pt x="543" y="-123" on="0"/>
        <pt x="573" y="-123" on="1"/>
        <pt x="604" y="-123" on="0"/>
        <pt x="650" y="-145" on="0"/>
        <pt x="681" y="-181" on="0"/>
        <pt x="696" y="-226" on="0"/>
        <pt x="696" y="-248" on="1"/>
        <pt x="696" y="-288" on="0"/>
        <pt x="662" y="-357" on="0"/>
        <pt x="602" y="-414" on="0"/>
        <pt x="518" y="-460" on="0"/>
        <pt x="467" y="-477" on="1"/>
      </contour>
    </TTGlyph>
    <TTGlyph name="Gdotaccent" xMin="82" yMin="-512" xMax="1346" yMax="1870">
      <component glyphName="G" x="0" y="0" flags="0x204"/>
      <component glyphName="dotaccent" x="379" y="440" flags="0x4"/>
    </TTGlyph>
    <TTGlyph name="H" xMin="-61" yMin="-360" xMax="1960" yMax="1858">
      <contour>
        <pt x="326" y="766" on="1"/>
        <pt x="508" y="766" on="1"/>
        <pt x="508" y="1335" on="1"/>
        <pt x="508" y="1357" on="0"/>
        <pt x="498" y="1383" on="0"/>
        <pt x="480" y="1398" on="0"/>
        <pt x="455" y="1403" on="0"/>
        <pt x="440" y="1403" on="1"/>
        <pt x="418" y="1403" on="0"/>
        <pt x="353" y="1389" on="0"/>
        <pt x="281" y="1361" on="0"/>
        <pt x="208" y="1320" on="0"/>
        <pt x="151" y="1268" on="0"/>
        <pt x="115" y="1204" on="0"/>
        <pt x="115" y="1167" on="1"/>
        <pt x="115" y="1135" on="0"/>
        <pt x="132" y="1097" on="0"/>
        <pt x="154" y="1078" on="0"/>
        <pt x="177" y="1073" on="0"/>
        <pt x="182" y="1073" on="1"/>
        <pt x="207" y="1073" on="0"/>
        <pt x="239" y="1090" on="0"/>
        <pt x="265" y="1109" on="0"/>
        <pt x="288" y="1126" on="0"/>
        <pt x="303" y="1126" on="1"/>
        <pt x="315" y="1126" on="0"/>
        <pt x="342" y="1115" on="0"/>
        <pt x="365" y="1091" on="0"/>
        <pt x="381" y="1052" on="0"/>
        <pt x="381" y="1024" on="1"/>
        <pt x="381" y="984" on="0"/>
        <pt x="350" y="926" on="0"/>
        <pt x="301" y="887" on="0"/>
        <pt x="238" y="868" on="0"/>
        <pt x="207" y="868" on="1"/>
        <pt x="159" y="868" on="0"/>
        <pt x="82" y="901" on="0"/>
        <pt x="28" y="959" on="0"/>
        <pt x="0" y="1037" on="0"/>
        <pt x="0" y="1081" on="1"/>
        <pt x="0" y="1150" on="0"/>
        <pt x="50" y="1265" on="0"/>
        <pt x="137" y="1357" on="0"/>
        <pt x="254" y="1426" on="0"/>
        <pt x="390" y="1472" on="0"/>
        <pt x="538" y="1495" on="0"/>
        <pt x="612" y="1495" on="1"/>
        <pt x="694" y="1495" on="0"/>
        <pt x="785" y="1464" on="0"/>
        <pt x="828" y="1420" on="0"/>
        <pt x="836" y="1372" on="0"/>
        <pt x="836" y="1356" on="1"/>
        <pt x="836" y="766" on="1"/>
        <pt x="1204" y="766" on="1"/>
        <pt x="1204" y="1247" on="1"/>
        <pt x="1204" y="1412" on="0"/>
        <pt x="1290" y="1644" on="0"/>
        <pt x="1426" y="1791" on="0"/>
        <pt x="1594" y="1858" on="0"/>
        <pt x="1677" y="1858" on="1"/>
        <pt x="1734" y="1858" on="0"/>
        <pt x="1837" y="1841" on="0"/>
        <pt x="1914" y="1807" on="0"/>
        <pt x="1960" y="1756" on="0"/>
        <pt x="1960" y="1722" on="1"/>
        <pt x="1960" y="1707" on="0"/>
        <pt x="1951" y="1680" on="0"/>
        <pt x="1935" y="1658" on="0"/>
        <pt x="1914" y="1645" on="0"/>
        <pt x="1903" y="1645" on="1"/>
        <pt x="1885" y="1645" on="0"/>
        <pt x="1857" y="1667" on="0"/>
        <pt x="1832" y="1700" on="0"/>
        <pt x="1808" y="1739" on="0"/>
        <pt x="1778" y="1772" on="0"/>
        <pt x="1740" y="1794" on="0"/>
        <pt x="1714" y="1794" on="1"/>
        <pt x="1653" y="1794" on="0"/>
        <pt x="1581" y="1727" on="0"/>
        <pt x="1543" y="1598" on="0"/>
        <pt x="1532" y="1406" on="0"/>
        <pt x="1532" y="1282" on="1"/>
        <pt x="1532" y="766" on="1"/>
        <pt x="1733" y="766" on="1"/>
        <pt x="1733" y="678" on="1"/>
        <pt x="1532" y="678" on="1"/>
        <pt x="1532" y="70" on="1"/>
        <pt x="1532" y="41" on="0"/>
        <pt x="1557" y="6" on="0"/>
        <pt x="1583" y="6" on="1"/>
        <pt x="1611" y="6" on="0"/>
        <pt x="1659" y="26" on="0"/>
        <pt x="1677" y="35" on="1"/>
        <pt x="1694" y="-2" on="1"/>
        <pt x="1672" y="-17" on="0"/>
        <pt x="1613" y="-50" on="0"/>
        <pt x="1542" y="-79" on="0"/>
        <pt x="1461" y="-98" on="0"/>
        <pt x="1417" y="-98" on="1"/>
        <pt x="1349" y="-98" on="0"/>
        <pt x="1265" y="-62" on="0"/>
        <pt x="1219" y="-3" on="0"/>
        <pt x="1204" y="71" on="0"/>
        <pt x="1204" y="109" on="1"/>
        <pt x="1204" y="678" on="1"/>
        <pt x="836" y="678" on="1"/>
        <pt x="836" y="180" on="1"/>
        <pt x="836" y="44" on="0"/>
        <pt x="737" y="-158" on="0"/>
        <pt x="565" y="-293" on="0"/>
        <pt x="332" y="-360" on="0"/>
        <pt x="199" y="-360" on="1"/>
        <pt x="148" y="-360" on="0"/>
        <pt x="54" y="-343" on="0"/>
        <pt x="-18" y="-313" on="0"/>
        <pt x="-61" y="-272" on="0"/>
        <pt x="-61" y="-248" on="1"/>
        <pt x="-61" y="-230" on="0"/>
        <pt x="-51" y="-193" on="0"/>
        <pt x="-31" y="-163" on="0"/>
        <pt x="-2" y="-143" on="0"/>
        <pt x="16" y="-143" on="1"/>
        <pt x="27" y="-143" on="0"/>
        <pt x="44" y="-165" on="0"/>
        <pt x="62" y="-198" on="0"/>
        <pt x="85" y="-236" on="0"/>
        <pt x="122" y="-269" on="0"/>
        <pt x="174" y="-291" on="0"/>
        <pt x="213" y="-291" on="1"/>
        <pt x="290" y="-291" on="0"/>
        <pt x="401" y="-235" on="0"/>
        <pt x="473" y="-133" on="0"/>
        <pt x="508" y="8" on="0"/>
        <pt x="508" y="92" on="1"/>
        <pt x="508" y="678" on="1"/>
        <pt x="326" y="678" on="1"/>
      </contour>
    </TTGlyph>
    <TTGlyph name="Hbar" xMin="-61" yMin="-360" xMax="1960" yMax="1858">
      <contour>
        <pt x="1677" y="1858" on="1"/>
        <pt x="1734" y="1858" on="0"/>
        <pt x="1837" y="1841" on="0"/>
        <pt x="1914" y="1807" on="0"/>
        <pt x="1960" y="1756" on="0"/>
        <pt x="1960" y="1722" on="1"/>
        <pt x="1960" y="1707" on="0"/>
        <pt x="1951" y="1680" on="0"/>
        <pt x="1935" y="1658" on="0"/>
        <pt x="1914" y="1645" on="0"/>
        <pt x="1903" y="1645" on="1"/>
        <pt x="1885" y="1645" on="0"/>
        <pt x="1857" y="1667" on="0"/>
        <pt x="1832" y="1700" on="0"/>
        <pt x="1808" y="1739" on="0"/>
        <pt x="1778" y="1772" on="0"/>
        <pt x="1740" y="1794" on="0"/>
        <pt x="1714" y="1794" on="1"/>
        <pt x="1653" y="1794" on="0"/>
        <pt x="1581" y="1727" on="0"/>
        <pt x="1543" y="1598" on="0"/>
        <pt x="1532" y="1406" on="0"/>
        <pt x="1532" y="1282" on="1"/>
        <pt x="1532" y="1063" on="1"/>
        <pt x="1622" y="1063" on="1"/>
        <pt x="1622" y="971" on="1"/>
        <pt x="1532" y="971" on="1"/>
        <pt x="1532" y="766" on="1"/>
        <pt x="1733" y="766" on="1"/>
        <pt x="1733" y="678" on="1"/>
        <pt x="1532" y="678" on="1"/>
        <pt x="1532" y="70" on="1"/>
        <pt x="1532" y="41" on="0"/>
        <pt x="1557" y="6" on="0"/>
        <pt x="1583" y="6" on="1"/>
        <pt x="1611" y="6" on="0"/>
        <pt x="1659" y="26" on="0"/>
        <pt x="1677" y="35" on="1"/>
        <pt x="1694" y="-2" on="1"/>
        <pt x="1672" y="-17" on="0"/>
        <pt x="1613" y="-50" on="0"/>
        <pt x="1542" y="-79" on="0"/>
        <pt x="1461" y="-98" on="0"/>
        <pt x="1417" y="-98" on="1"/>
        <pt x="1349" y="-98" on="0"/>
        <pt x="1265" y="-62" on="0"/>
        <pt x="1219" y="-3" on="0"/>
        <pt x="1204" y="71" on="0"/>
        <pt x="1204" y="109" on="1"/>
        <pt x="1204" y="678" on="1"/>
        <pt x="836" y="678" on="1"/>
        <pt x="836" y="180" on="1"/>
        <pt x="836" y="44" on="0"/>
        <pt x="737" y="-158" on="0"/>
        <pt x="565" y="-293" on="0"/>
        <pt x="332" y="-360" on="0"/>
        <pt x="199" y="-360" on="1"/>
        <pt x="148" y="-360" on="0"/>
        <pt x="54" y="-343" on="0"/>
        <pt x="-18" y="-313" on="0"/>
        <pt x="-61" y="-272" on="0"/>
        <pt x="-61" y="-248" on="1"/>
        <pt x="-61" y="-230" on="0"/>
        <pt x="-51" y="-193" on="0"/>
        <pt x="-31" y="-163" on="0"/>
        <pt x="-2" y="-143" on="0"/>
        <pt x="16" y="-143" on="1"/>
        <pt x="27" y="-143" on="0"/>
        <pt x="44" y="-165" on="0"/>
        <pt x="62" y="-198" on="0"/>
        <pt x="85" y="-236" on="0"/>
        <pt x="122" y="-269" on="0"/>
        <pt x="174" y="-291" on="0"/>
        <pt x="213" y="-291" on="1"/>
        <pt x="290" y="-291" on="0"/>
        <pt x="401" y="-235" on="0"/>
        <pt x="473" y="-133" on="0"/>
        <pt x="508" y="8" on="0"/>
        <pt x="508" y="92" on="1"/>
        <pt x="508" y="678" on="1"/>
        <pt x="326" y="678" on="1"/>
        <pt x="326" y="766" on="1"/>
        <pt x="508" y="766" on="1"/>
        <pt x="508" y="971" on="1"/>
        <pt x="418" y="971" on="1"/>
        <pt x="418" y="1063" on="1"/>
        <pt x="508" y="1063" on="1"/>
        <pt x="508" y="1335" on="1"/>
        <pt x="508" y="1357" on="0"/>
        <pt x="498" y="1383" on="0"/>
        <pt x="480" y="1398" on="0"/>
        <pt x="455" y="1403" on="0"/>
        <pt x="440" y="1403" on="1"/>
        <pt x="418" y="1403" on="0"/>
        <pt x="353" y="1389" on="0"/>
        <pt x="281" y="1361" on="0"/>
        <pt x="208" y="1320" on="0"/>
        <pt x="151" y="1268" on="0"/>
        <pt x="115" y="1204" on="0"/>
        <pt x="115" y="1167" on="1"/>
        <pt x="115" y="1135" on="0"/>
        <pt x="132" y="1097" on="0"/>
        <pt x="154" y="1078" on="0"/>
        <pt x="177" y="1073" on="0"/>
        <pt x="182" y="1073" on="1"/>
        <pt x="207" y="1073" on="0"/>
        <pt x="239" y="1090" on="0"/>
        <pt x="265" y="1109" on="0"/>
        <pt x="288" y="1126" on="0"/>
        <pt x="303" y="1126" on="1"/>
        <pt x="315" y="1126" on="0"/>
        <pt x="342" y="1115" on="0"/>
        <pt x="365" y="1091" on="0"/>
        <pt x="381" y="1052" on="0"/>
        <pt x="381" y="1024" on="1"/>
        <pt x="381" y="984" on="0"/>
        <pt x="350" y="926" on="0"/>
        <pt x="301" y="887" on="0"/>
        <pt x="238" y="868" on="0"/>
        <pt x="207" y="868" on="1"/>
        <pt x="159" y="868" on="0"/>
        <pt x="82" y="901" on="0"/>
        <pt x="28" y="959" on="0"/>
        <pt x="0" y="1037" on="0"/>
        <pt x="0" y="1081" on="1"/>
        <pt x="0" y="1150" on="0"/>
        <pt x="50" y="1265" on="0"/>
        <pt x="137" y="1357" on="0"/>
        <pt x="254" y="1426" on="0"/>
        <pt x="390" y="1472" on="0"/>
        <pt x="538" y="1495" on="0"/>
        <pt x="612" y="1495" on="1"/>
        <pt x="694" y="1495" on="0"/>
        <pt x="785" y="1464" on="0"/>
        <pt x="828" y="1420" on="0"/>
        <pt x="836" y="1372" on="0"/>
        <pt x="836" y="1356" on="1"/>
        <pt x="836" y="1063" on="1"/>
        <pt x="1204" y="1063" on="1"/>
        <pt x="1204" y="1247" on="1"/>
        <pt x="1204" y="1412" on="0"/>
        <pt x="1290" y="1644" on="0"/>
        <pt x="1426" y="1791" on="0"/>
        <pt x="1594" y="1858" on="0"/>
      </contour>
      <contour>
        <pt x="836" y="766" on="1"/>
        <pt x="1204" y="766" on="1"/>
        <pt x="1204" y="971" on="1"/>
        <pt x="836" y="971" on="1"/>
      </contour>
    </TTGlyph>
    <TTGlyph name="Hcircumflex" xMin="-61" yMin="-360" xMax="1960" yMax="1966">
      <component glyphName="H" x="0" y="0" flags="0x204"/>
      <component glyphName="circumflex" x="584" y="502" flags="0x4"/>
    </TTGlyph>
    <TTGlyph name="I" xMin="0" yMin="-16" xMax="836" yMax="1495">
      <contour>
        <pt x="836" y="131" on="1"/>
        <pt x="836" y="54" on="0"/>
        <pt x="755" y="-16" on="0"/>
        <pt x="672" y="-16" on="1"/>
        <pt x="588" y="-16" on="0"/>
        <pt x="508" y="54" on="0"/>
        <pt x="508" y="131" on="1"/>
        <pt x="508" y="1335" on="1"/>
        <pt x="508" y="1357" on="0"/>
        <pt x="498" y="1383" on="0"/>
        <pt x="480" y="1398" on="0"/>
        <pt x="455" y="1403" on="0"/>
        <pt x="440" y="1403" on="1"/>
        <pt x="418" y="1403" on="0"/>
        <pt x="353" y="1389" on="0"/>
        <pt x="281" y="1361" on="0"/>
        <pt x="208" y="1320" on="0"/>
        <pt x="151" y="1268" on="0"/>
        <pt x="115" y="1204" on="0"/>
        <pt x="115" y="1167" on="1"/>
        <pt x="115" y="1135" on="0"/>
        <pt x="132" y="1097" on="0"/>
        <pt x="154" y="1078" on="0"/>
        <pt x="177" y="1073" on="0"/>
        <pt x="182" y="1073" on="1"/>
        <pt x="207" y="1073" on="0"/>
        <pt x="239" y="1090" on="0"/>
        <pt x="265" y="1109" on="0"/>
        <pt x="288" y="1126" on="0"/>
        <pt x="303" y="1126" on="1"/>
        <pt x="315" y="1126" on="0"/>
        <pt x="342" y="1115" on="0"/>
        <pt x="365" y="1091" on="0"/>
        <pt x="381" y="1052" on="0"/>
        <pt x="381" y="1024" on="1"/>
        <pt x="381" y="984" on="0"/>
        <pt x="350" y="926" on="0"/>
        <pt x="301" y="887" on="0"/>
        <pt x="238" y="868" on="0"/>
        <pt x="207" y="868" on="1"/>
        <pt x="159" y="868" on="0"/>
        <pt x="82" y="901" on="0"/>
        <pt x="28" y="959" on="0"/>
        <pt x="0" y="1037" on="0"/>
        <pt x="0" y="1081" on="1"/>
        <pt x="0" y="1150" on="0"/>
        <pt x="50" y="1265" on="0"/>
        <pt x="137" y="1357" on="0"/>
        <pt x="254" y="1426" on="0"/>
        <pt x="390" y="1472" on="0"/>
        <pt x="538" y="1495" on="0"/>
        <pt x="612" y="1495" on="1"/>
        <pt x="694" y="1495" on="0"/>
        <pt x="785" y="1464" on="0"/>
        <pt x="828" y="1420" on="0"/>
        <pt x="836" y="1372" on="0"/>
        <pt x="836" y="1356" on="1"/>
      </contour>
    </TTGlyph>
    <TTGlyph name="IJ" xMin="0" yMin="-360" xMax="1556" yMax="1495">
      <contour>
        <pt x="836" y="131" on="1"/>
        <pt x="836" y="54" on="0"/>
        <pt x="755" y="-16" on="0"/>
        <pt x="672" y="-16" on="1"/>
        <pt x="588" y="-16" on="0"/>
        <pt x="508" y="54" on="0"/>
        <pt x="508" y="131" on="1"/>
        <pt x="508" y="1335" on="1"/>
        <pt x="508" y="1357" on="0"/>
        <pt x="498" y="1383" on="0"/>
        <pt x="480" y="1398" on="0"/>
        <pt x="455" y="1403" on="0"/>
        <pt x="440" y="1403" on="1"/>
        <pt x="418" y="1403" on="0"/>
        <pt x="353" y="1389" on="0"/>
        <pt x="281" y="1361" on="0"/>
        <pt x="208" y="1320" on="0"/>
        <pt x="151" y="1268" on="0"/>
        <pt x="115" y="1204" on="0"/>
        <pt x="115" y="1167" on="1"/>
        <pt x="115" y="1135" on="0"/>
        <pt x="132" y="1097" on="0"/>
        <pt x="154" y="1078" on="0"/>
        <pt x="177" y="1073" on="0"/>
        <pt x="182" y="1073" on="1"/>
        <pt x="207" y="1073" on="0"/>
        <pt x="239" y="1090" on="0"/>
        <pt x="265" y="1109" on="0"/>
        <pt x="288" y="1126" on="0"/>
        <pt x="303" y="1126" on="1"/>
        <pt x="315" y="1126" on="0"/>
        <pt x="342" y="1115" on="0"/>
        <pt x="365" y="1091" on="0"/>
        <pt x="381" y="1052" on="0"/>
        <pt x="381" y="1024" on="1"/>
        <pt x="381" y="984" on="0"/>
        <pt x="350" y="926" on="0"/>
        <pt x="301" y="887" on="0"/>
        <pt x="238" y="868" on="0"/>
        <pt x="207" y="868" on="1"/>
        <pt x="159" y="868" on="0"/>
        <pt x="82" y="901" on="0"/>
        <pt x="28" y="959" on="0"/>
        <pt x="0" y="1037" on="0"/>
        <pt x="0" y="1081" on="1"/>
        <pt x="0" y="1150" on="0"/>
        <pt x="50" y="1265" on="0"/>
        <pt x="137" y="1357" on="0"/>
        <pt x="254" y="1426" on="0"/>
        <pt x="390" y="1472" on="0"/>
        <pt x="538" y="1495" on="0"/>
        <pt x="612" y="1495" on="1"/>
        <pt x="694" y="1495" on="0"/>
        <pt x="785" y="1464" on="0"/>
        <pt x="828" y="1420" on="0"/>
        <pt x="836" y="1372" on="0"/>
        <pt x="836" y="1356" on="1"/>
      </contour>
      <contour>
        <pt x="1229" y="1311" on="1"/>
        <pt x="1229" y="1332" on="0"/>
        <pt x="1216" y="1359" on="0"/>
        <pt x="1196" y="1375" on="0"/>
        <pt x="1170" y="1382" on="0"/>
        <pt x="1157" y="1382" on="1"/>
        <pt x="1129" y="1382" on="0"/>
        <pt x="1072" y="1359" on="0"/>
        <pt x="1051" y="1348" on="1"/>
        <pt x="1032" y="1384" on="1"/>
        <pt x="1055" y="1397" on="0"/>
        <pt x="1131" y="1435" on="0"/>
        <pt x="1222" y="1470" on="0"/>
        <pt x="1322" y="1495" on="0"/>
        <pt x="1370" y="1495" on="1"/>
        <pt x="1438" y="1495" on="0"/>
        <pt x="1513" y="1460" on="0"/>
        <pt x="1549" y="1409" on="0"/>
        <pt x="1556" y="1351" on="0"/>
        <pt x="1556" y="1329" on="1"/>
        <pt x="1556" y="180" on="1"/>
        <pt x="1556" y="44" on="0"/>
        <pt x="1457" y="-158" on="0"/>
        <pt x="1286" y="-293" on="0"/>
        <pt x="1053" y="-360" on="0"/>
        <pt x="920" y="-360" on="1"/>
        <pt x="869" y="-360" on="0"/>
        <pt x="775" y="-343" on="0"/>
        <pt x="702" y="-313" on="0"/>
        <pt x="659" y="-272" on="0"/>
        <pt x="659" y="-248" on="1"/>
        <pt x="659" y="-230" on="0"/>
        <pt x="670" y="-193" on="0"/>
        <pt x="690" y="-163" on="0"/>
        <pt x="719" y="-143" on="0"/>
        <pt x="737" y="-143" on="1"/>
        <pt x="748" y="-143" on="0"/>
        <pt x="765" y="-165" on="0"/>
        <pt x="783" y="-198" on="0"/>
        <pt x="806" y="-236" on="0"/>
        <pt x="843" y="-269" on="0"/>
        <pt x="895" y="-291" on="0"/>
        <pt x="934" y="-291" on="1"/>
        <pt x="1011" y="-291" on="0"/>
        <pt x="1122" y="-235" on="0"/>
        <pt x="1194" y="-133" on="0"/>
        <pt x="1229" y="8" on="0"/>
        <pt x="1229" y="92" on="1"/>
      </contour>
    </TTGlyph>
    <TTGlyph name="Iacute" xMin="0" yMin="-16" xMax="905" yMax="1904">
      <component glyphName="I" x="0" y="0" flags="0x204"/>
      <component glyphName="acute" x="219" y="440" flags="0x4"/>
    </TTGlyph>
    <TTGlyph name="Ibreve" xMin="0" yMin="-16" xMax="893" yMax="1878">
      <component glyphName="I" x="0" y="0" flags="0x204"/>
      <component glyphName="breve" x="219" y="440" flags="0x4"/>
    </TTGlyph>
    <TTGlyph name="Icircumflex" xMin="0" yMin="-16" xMax="911" yMax="1904">
      <component glyphName="I" x="0" y="0" flags="0x204"/>
      <component glyphName="circumflex" x="219" y="440" flags="0x4"/>
    </TTGlyph>
    <TTGlyph name="Idieresis" xMin="0" yMin="-16" xMax="913" yMax="1859">
      <component glyphName="I" x="0" y="0" flags="0x204"/>
      <component glyphName="dieresis" x="219" y="440" flags="0x4"/>
    </TTGlyph>
    <TTGlyph name="Idotaccent" xMin="0" yMin="-16" xMax="836" yMax="1870">
      <component glyphName="I" x="0" y="0" flags="0x204"/>
      <component glyphName="dotaccent" x="219" y="440" flags="0x4"/>
    </TTGlyph>
    <TTGlyph name="Igrave" xMin="0" yMin="-16" xMax="836" yMax="1904">
      <component glyphName="I" x="0" y="0" flags="0x204"/>
      <component glyphName="grave" x="219" y="440" flags="0x4"/>
    </TTGlyph>
    <TTGlyph name="Imacron" xMin="0" yMin="-16" xMax="895" yMax="1822">
      <component glyphName="I" x="0" y="0" flags="0x204"/>
      <component glyphName="macron" x="219" y="440" flags="0x4"/>
    </TTGlyph>
    <TTGlyph name="Iogonek" xMin="0" yMin="-422" xMax="897" yMax="1495">
      <contour>
        <pt x="836" y="131" on="1"/>
        <pt x="836" y="69" on="0"/>
        <pt x="784" y="1" on="0"/>
        <pt x="731" y="-10" on="1"/>
        <pt x="699" y="-31" on="0"/>
        <pt x="649" y="-82" on="0"/>
        <pt x="613" y="-138" on="0"/>
        <pt x="594" y="-197" on="0"/>
        <pt x="594" y="-225" on="1"/>
        <pt x="594" y="-284" on="0"/>
        <pt x="666" y="-346" on="0"/>
        <pt x="731" y="-346" on="1"/>
        <pt x="784" y="-346" on="0"/>
        <pt x="859" y="-325" on="0"/>
        <pt x="881" y="-315" on="1"/>
        <pt x="897" y="-352" on="1"/>
        <pt x="881" y="-362" on="0"/>
        <pt x="832" y="-387" on="0"/>
        <pt x="769" y="-408" on="0"/>
        <pt x="695" y="-422" on="0"/>
        <pt x="653" y="-422" on="1"/>
        <pt x="556" y="-422" on="0"/>
        <pt x="440" y="-341" on="0"/>
        <pt x="440" y="-262" on="1"/>
        <pt x="440" y="-221" on="0"/>
        <pt x="467" y="-150" on="0"/>
        <pt x="515" y="-88" on="0"/>
        <pt x="580" y="-35" on="0"/>
        <pt x="618" y="-12" on="1"/>
        <pt x="561" y="-3" on="0"/>
        <pt x="508" y="66" on="0"/>
        <pt x="508" y="131" on="1"/>
        <pt x="508" y="1335" on="1"/>
        <pt x="508" y="1357" on="0"/>
        <pt x="498" y="1383" on="0"/>
        <pt x="480" y="1398" on="0"/>
        <pt x="455" y="1403" on="0"/>
        <pt x="440" y="1403" on="1"/>
        <pt x="418" y="1403" on="0"/>
        <pt x="353" y="1389" on="0"/>
        <pt x="281" y="1361" on="0"/>
        <pt x="208" y="1320" on="0"/>
        <pt x="151" y="1268" on="0"/>
        <pt x="115" y="1204" on="0"/>
        <pt x="115" y="1167" on="1"/>
        <pt x="115" y="1135" on="0"/>
        <pt x="132" y="1097" on="0"/>
        <pt x="154" y="1078" on="0"/>
        <pt x="177" y="1073" on="0"/>
        <pt x="182" y="1073" on="1"/>
        <pt x="207" y="1073" on="0"/>
        <pt x="239" y="1090" on="0"/>
        <pt x="265" y="1109" on="0"/>
        <pt x="288" y="1126" on="0"/>
        <pt x="303" y="1126" on="1"/>
        <pt x="315" y="1126" on="0"/>
        <pt x="342" y="1115" on="0"/>
        <pt x="365" y="1091" on="0"/>
        <pt x="381" y="1052" on="0"/>
        <pt x="381" y="1024" on="1"/>
        <pt x="381" y="984" on="0"/>
        <pt x="350" y="926" on="0"/>
        <pt x="301" y="887" on="0"/>
        <pt x="238" y="868" on="0"/>
        <pt x="207" y="868" on="1"/>
        <pt x="159" y="868" on="0"/>
        <pt x="82" y="901" on="0"/>
        <pt x="28" y="959" on="0"/>
        <pt x="0" y="1037" on="0"/>
        <pt x="0" y="1081" on="1"/>
        <pt x="0" y="1150" on="0"/>
        <pt x="50" y="1265" on="0"/>
        <pt x="137" y="1357" on="0"/>
        <pt x="254" y="1426" on="0"/>
        <pt x="390" y="1472" on="0"/>
        <pt x="538" y="1495" on="0"/>
        <pt x="612" y="1495" on="1"/>
        <pt x="694" y="1495" on="0"/>
        <pt x="785" y="1464" on="0"/>
        <pt x="828" y="1420" on="0"/>
        <pt x="836" y="1372" on="0"/>
        <pt x="836" y="1356" on="1"/>
      </contour>
    </TTGlyph>
    <TTGlyph name="Itilde" xMin="0" yMin="-16" xMax="909" yMax="1878">
      <component glyphName="I" x="0" y="0" flags="0x204"/>
      <component glyphName="tilde" x="219" y="440" flags="0x4"/>
    </TTGlyph>
    <TTGlyph name="J" xMin="-61" yMin="-360" xMax="836" yMax="1495">
      <contour>
        <pt x="836" y="180" on="1"/>
        <pt x="836" y="44" on="0"/>
        <pt x="737" y="-158" on="0"/>
        <pt x="565" y="-293" on="0"/>
        <pt x="332" y="-360" on="0"/>
        <pt x="199" y="-360" on="1"/>
        <pt x="148" y="-360" on="0"/>
        <pt x="54" y="-343" on="0"/>
        <pt x="-18" y="-313" on="0"/>
        <pt x="-61" y="-272" on="0"/>
        <pt x="-61" y="-248" on="1"/>
        <pt x="-61" y="-230" on="0"/>
        <pt x="-51" y="-193" on="0"/>
        <pt x="-31" y="-163" on="0"/>
        <pt x="-2" y="-143" on="0"/>
        <pt x="16" y="-143" on="1"/>
        <pt x="27" y="-143" on="0"/>
        <pt x="44" y="-165" on="0"/>
        <pt x="62" y="-198" on="0"/>
        <pt x="85" y="-236" on="0"/>
        <pt x="122" y="-269" on="0"/>
        <pt x="174" y="-291" on="0"/>
        <pt x="213" y="-291" on="1"/>
        <pt x="290" y="-291" on="0"/>
        <pt x="401" y="-235" on="0"/>
        <pt x="473" y="-133" on="0"/>
        <pt x="508" y="8" on="0"/>
        <pt x="508" y="92" on="1"/>
        <pt x="508" y="1335" on="1"/>
        <pt x="508" y="1357" on="0"/>
        <pt x="498" y="1383" on="0"/>
        <pt x="480" y="1398" on="0"/>
        <pt x="455" y="1403" on="0"/>
        <pt x="440" y="1403" on="1"/>
        <pt x="418" y="1403" on="0"/>
        <pt x="353" y="1389" on="0"/>
        <pt x="281" y="1361" on="0"/>
        <pt x="208" y="1320" on="0"/>
        <pt x="151" y="1268" on="0"/>
        <pt x="115" y="1204" on="0"/>
        <pt x="115" y="1167" on="1"/>
        <pt x="115" y="1135" on="0"/>
        <pt x="132" y="1097" on="0"/>
        <pt x="154" y="1078" on="0"/>
        <pt x="177" y="1073" on="0"/>
        <pt x="182" y="1073" on="1"/>
        <pt x="207" y="1073" on="0"/>
        <pt x="239" y="1090" on="0"/>
        <pt x="265" y="1109" on="0"/>
        <pt x="288" y="1126" on="0"/>
        <pt x="303" y="1126" on="1"/>
        <pt x="315" y="1126" on="0"/>
        <pt x="342" y="1115" on="0"/>
        <pt x="365" y="1091" on="0"/>
        <pt x="381" y="1052" on="0"/>
        <pt x="381" y="1024" on="1"/>
        <pt x="381" y="984" on="0"/>
        <pt x="350" y="926" on="0"/>
        <pt x="301" y="887" on="0"/>
        <pt x="238" y="868" on="0"/>
        <pt x="207" y="868" on="1"/>
        <pt x="159" y="868" on="0"/>
        <pt x="82" y="901" on="0"/>
        <pt x="28" y="959" on="0"/>
        <pt x="0" y="1037" on="0"/>
        <pt x="0" y="1081" on="1"/>
        <pt x="0" y="1150" on="0"/>
        <pt x="50" y="1265" on="0"/>
        <pt x="137" y="1357" on="0"/>
        <pt x="254" y="1426" on="0"/>
        <pt x="390" y="1472" on="0"/>
        <pt x="538" y="1495" on="0"/>
        <pt x="612" y="1495" on="1"/>
        <pt x="694" y="1495" on="0"/>
        <pt x="785" y="1464" on="0"/>
        <pt x="828" y="1420" on="0"/>
        <pt x="836" y="1372" on="0"/>
        <pt x="836" y="1356" on="1"/>
        <pt x="836" y="180" on="1"/>
      </contour>
    </TTGlyph>
    <TTGlyph name="Jcircumflex" xMin="-61" yMin="-360" xMax="911" yMax="1904">
      <component glyphName="J" x="0" y="0" flags="0x204"/>
      <component glyphName="circumflex" x="219" y="440" flags="0x4"/>
    </TTGlyph>
    <TTGlyph name="K" xMin="0" yMin="-319" xMax="2003" yMax="1559">
      <contour>
        <pt x="836" y="899" on="1"/>
        <pt x="925" y="1027" on="0"/>
        <pt x="1072" y="1225" on="0"/>
        <pt x="1196" y="1372" on="0"/>
        <pt x="1303" y="1472" on="0"/>
        <pt x="1404" y="1533" on="0"/>
        <pt x="1504" y="1559" on="0"/>
        <pt x="1559" y="1559" on="1"/>
        <pt x="1690" y="1559" on="0"/>
        <pt x="1690" y="1475" on="1"/>
        <pt x="1690" y="1464" on="0"/>
        <pt x="1686" y="1434" on="0"/>
        <pt x="1675" y="1406" on="0"/>
        <pt x="1655" y="1386" on="0"/>
        <pt x="1640" y="1386" on="1"/>
        <pt x="1629" y="1386" on="0"/>
        <pt x="1600" y="1408" on="0"/>
        <pt x="1562" y="1435" on="0"/>
        <pt x="1512" y="1458" on="0"/>
        <pt x="1481" y="1458" on="1"/>
        <pt x="1447" y="1458" on="0"/>
        <pt x="1360" y="1402" on="0"/>
        <pt x="1259" y="1306" on="0"/>
        <pt x="1150" y="1179" on="0"/>
        <pt x="1094" y="1108" on="1"/>
        <pt x="1244" y="766" on="0"/>
        <pt x="1473" y="264" on="0"/>
        <pt x="1662" y="-65" on="0"/>
        <pt x="1822" y="-225" on="0"/>
        <pt x="1903" y="-225" on="1"/>
        <pt x="1917" y="-225" on="0"/>
        <pt x="1945" y="-217" on="0"/>
        <pt x="1956" y="-212" on="1"/>
        <pt x="1969" y="-207" on="0"/>
        <pt x="1982" y="-199" on="1"/>
        <pt x="2003" y="-238" on="1"/>
        <pt x="1986" y="-248" on="0"/>
        <pt x="1927" y="-276" on="0"/>
        <pt x="1846" y="-301" on="0"/>
        <pt x="1748" y="-319" on="0"/>
        <pt x="1692" y="-319" on="1"/>
        <pt x="1615" y="-319" on="0"/>
        <pt x="1483" y="-271" on="0"/>
        <pt x="1358" y="-164" on="0"/>
        <pt x="1237" y="9" on="0"/>
        <pt x="1106" y="259" on="0"/>
        <pt x="960" y="591" on="0"/>
        <pt x="874" y="805" on="1"/>
        <pt x="836" y="748" on="1"/>
        <pt x="836" y="131" on="1"/>
        <pt x="836" y="54" on="0"/>
        <pt x="755" y="-16" on="0"/>
        <pt x="672" y="-16" on="1"/>
        <pt x="588" y="-16" on="0"/>
        <pt x="508" y="54" on="0"/>
        <pt x="508" y="131" on="1"/>
        <pt x="508" y="1335" on="1"/>
        <pt x="508" y="1357" on="0"/>
        <pt x="498" y="1383" on="0"/>
        <pt x="480" y="1398" on="0"/>
        <pt x="455" y="1403" on="0"/>
        <pt x="440" y="1403" on="1"/>
        <pt x="418" y="1403" on="0"/>
        <pt x="353" y="1389" on="0"/>
        <pt x="281" y="1361" on="0"/>
        <pt x="208" y="1320" on="0"/>
        <pt x="151" y="1268" on="0"/>
        <pt x="115" y="1204" on="0"/>
        <pt x="115" y="1167" on="1"/>
        <pt x="115" y="1135" on="0"/>
        <pt x="132" y="1097" on="0"/>
        <pt x="154" y="1078" on="0"/>
        <pt x="177" y="1073" on="0"/>
        <pt x="182" y="1073" on="1"/>
        <pt x="207" y="1073" on="0"/>
        <pt x="239" y="1090" on="0"/>
        <pt x="265" y="1109" on="0"/>
        <pt x="288" y="1126" on="0"/>
        <pt x="303" y="1126" on="1"/>
        <pt x="315" y="1126" on="0"/>
        <pt x="342" y="1115" on="0"/>
        <pt x="365" y="1091" on="0"/>
        <pt x="381" y="1052" on="0"/>
        <pt x="381" y="1024" on="1"/>
        <pt x="381" y="984" on="0"/>
        <pt x="350" y="926" on="0"/>
        <pt x="301" y="887" on="0"/>
        <pt x="238" y="868" on="0"/>
        <pt x="207" y="868" on="1"/>
        <pt x="159" y="868" on="0"/>
        <pt x="82" y="901" on="0"/>
        <pt x="28" y="959" on="0"/>
        <pt x="0" y="1037" on="0"/>
        <pt x="0" y="1081" on="1"/>
        <pt x="0" y="1150" on="0"/>
        <pt x="50" y="1265" on="0"/>
        <pt x="137" y="1357" on="0"/>
        <pt x="254" y="1426" on="0"/>
        <pt x="390" y="1472" on="0"/>
        <pt x="538" y="1495" on="0"/>
        <pt x="612" y="1495" on="1"/>
        <pt x="694" y="1495" on="0"/>
        <pt x="785" y="1464" on="0"/>
        <pt x="828" y="1420" on="0"/>
        <pt x="836" y="1372" on="0"/>
        <pt x="836" y="1356" on="1"/>
      </contour>
    </TTGlyph>
    <TTGlyph name="K_y" xMin="0" yMin="-463" xMax="2494" yMax="1559">
      <contour>
        <pt x="836" y="899" on="1"/>
        <pt x="925" y="1027" on="0"/>
        <pt x="1072" y="1225" on="0"/>
        <pt x="1196" y="1372" on="0"/>
        <pt x="1303" y="1472" on="0"/>
        <pt x="1404" y="1533" on="0"/>
        <pt x="1504" y="1559" on="0"/>
        <pt x="1559" y="1559" on="1"/>
        <pt x="1690" y="1559" on="0"/>
        <pt x="1690" y="1475" on="1"/>
        <pt x="1690" y="1464" on="0"/>
        <pt x="1686" y="1434" on="0"/>
        <pt x="1675" y="1406" on="0"/>
        <pt x="1655" y="1386" on="0"/>
        <pt x="1640" y="1386" on="1"/>
        <pt x="1629" y="1386" on="0"/>
        <pt x="1600" y="1408" on="0"/>
        <pt x="1562" y="1435" on="0"/>
        <pt x="1512" y="1458" on="0"/>
        <pt x="1481" y="1458" on="1"/>
        <pt x="1447" y="1458" on="0"/>
        <pt x="1360" y="1402" on="0"/>
        <pt x="1259" y="1306" on="0"/>
        <pt x="1150" y="1179" on="0"/>
        <pt x="1094" y="1108" on="1"/>
        <pt x="1193" y="881" on="0"/>
        <pt x="1349" y="529" on="0"/>
        <pt x="1475" y="265" on="0"/>
        <pt x="1579" y="85" on="0"/>
        <pt x="1675" y="-27" on="0"/>
        <pt x="1769" y="-76" on="0"/>
        <pt x="1823" y="-76" on="1"/>
        <pt x="1837" y="-76" on="0"/>
        <pt x="1866" y="-68" on="0"/>
        <pt x="1877" y="-63" on="1"/>
        <pt x="1890" y="-57" on="0"/>
        <pt x="1903" y="-49" on="1"/>
        <pt x="1923" y="-88" on="1"/>
        <pt x="1906" y="-98" on="0"/>
        <pt x="1847" y="-126" on="0"/>
        <pt x="1766" y="-152" on="0"/>
        <pt x="1668" y="-170" on="0"/>
        <pt x="1612" y="-170" on="1"/>
        <pt x="1536" y="-170" on="0"/>
        <pt x="1415" y="-144" on="0"/>
        <pt x="1309" y="-70" on="0"/>
        <pt x="1207" y="64" on="0"/>
        <pt x="1094" y="281" on="0"/>
        <pt x="960" y="591" on="0"/>
        <pt x="874" y="805" on="1"/>
        <pt x="836" y="748" on="1"/>
        <pt x="836" y="131" on="1"/>
        <pt x="836" y="54" on="0"/>
        <pt x="755" y="-16" on="0"/>
        <pt x="672" y="-16" on="1"/>
        <pt x="588" y="-16" on="0"/>
        <pt x="508" y="54" on="0"/>
        <pt x="508" y="131" on="1"/>
        <pt x="508" y="1335" on="1"/>
        <pt x="508" y="1357" on="0"/>
        <pt x="498" y="1383" on="0"/>
        <pt x="480" y="1398" on="0"/>
        <pt x="455" y="1403" on="0"/>
        <pt x="440" y="1403" on="1"/>
        <pt x="418" y="1403" on="0"/>
        <pt x="353" y="1389" on="0"/>
        <pt x="281" y="1361" on="0"/>
        <pt x="208" y="1320" on="0"/>
        <pt x="151" y="1268" on="0"/>
        <pt x="115" y="1204" on="0"/>
        <pt x="115" y="1167" on="1"/>
        <pt x="115" y="1135" on="0"/>
        <pt x="132" y="1097" on="0"/>
        <pt x="154" y="1078" on="0"/>
        <pt x="177" y="1073" on="0"/>
        <pt x="182" y="1073" on="1"/>
        <pt x="207" y="1073" on="0"/>
        <pt x="239" y="1090" on="0"/>
        <pt x="265" y="1109" on="0"/>
        <pt x="288" y="1126" on="0"/>
        <pt x="303" y="1126" on="1"/>
        <pt x="315" y="1126" on="0"/>
        <pt x="342" y="1115" on="0"/>
        <pt x="365" y="1091" on="0"/>
        <pt x="381" y="1052" on="0"/>
        <pt x="381" y="1024" on="1"/>
        <pt x="381" y="984" on="0"/>
        <pt x="350" y="926" on="0"/>
        <pt x="301" y="887" on="0"/>
        <pt x="238" y="868" on="0"/>
        <pt x="207" y="868" on="1"/>
        <pt x="159" y="868" on="0"/>
        <pt x="82" y="901" on="0"/>
        <pt x="28" y="959" on="0"/>
        <pt x="0" y="1037" on="0"/>
        <pt x="0" y="1081" on="1"/>
        <pt x="0" y="1150" on="0"/>
        <pt x="50" y="1265" on="0"/>
        <pt x="137" y="1357" on="0"/>
        <pt x="254" y="1426" on="0"/>
        <pt x="390" y="1472" on="0"/>
        <pt x="538" y="1495" on="0"/>
        <pt x="612" y="1495" on="1"/>
        <pt x="694" y="1495" on="0"/>
        <pt x="785" y="1464" on="0"/>
        <pt x="828" y="1420" on="0"/>
        <pt x="836" y="1372" on="0"/>
        <pt x="836" y="1356" on="1"/>
      </contour>
      <contour>
        <pt x="2494" y="817" on="1"/>
        <pt x="2486" y="650" on="0"/>
        <pt x="2409" y="331" on="0"/>
        <pt x="2284" y="46" on="0"/>
        <pt x="2117" y="-193" on="0"/>
        <pt x="1920" y="-366" on="0"/>
        <pt x="1700" y="-463" on="0"/>
        <pt x="1585" y="-463" on="1"/>
        <pt x="1497" y="-463" on="0"/>
        <pt x="1401" y="-404" on="0"/>
        <pt x="1401" y="-354" on="1"/>
        <pt x="1401" y="-335" on="0"/>
        <pt x="1413" y="-299" on="0"/>
        <pt x="1433" y="-271" on="0"/>
        <pt x="1461" y="-254" on="0"/>
        <pt x="1477" y="-254" on="1"/>
        <pt x="1496" y="-254" on="0"/>
        <pt x="1521" y="-292" on="0"/>
        <pt x="1549" y="-337" on="0"/>
        <pt x="1589" y="-375" on="0"/>
        <pt x="1624" y="-375" on="1"/>
        <pt x="1669" y="-375" on="0"/>
        <pt x="1767" y="-344" on="0"/>
        <pt x="1866" y="-286" on="0"/>
        <pt x="1965" y="-203" on="0"/>
        <pt x="2013" y="-152" on="1"/>
        <pt x="1984" y="-51" on="0"/>
        <pt x="1911" y="188" on="0"/>
        <pt x="1831" y="430" on="0"/>
        <pt x="1746" y="655" on="0"/>
        <pt x="1664" y="829" on="0"/>
        <pt x="1590" y="934" on="0"/>
        <pt x="1561" y="934" on="1"/>
        <pt x="1542" y="934" on="0"/>
        <pt x="1521" y="922" on="0"/>
        <pt x="1507" y="911" on="1"/>
        <pt x="1487" y="936" on="1"/>
        <pt x="1507" y="953" on="0"/>
        <pt x="1551" y="989" on="0"/>
        <pt x="1610" y="1019" on="0"/>
        <pt x="1691" y="1038" on="0"/>
        <pt x="1747" y="1038" on="1"/>
        <pt x="1808" y="1038" on="0"/>
        <pt x="1912" y="983" on="0"/>
        <pt x="1956" y="909" on="1"/>
        <pt x="1987" y="854" on="0"/>
        <pt x="2054" y="700" on="0"/>
        <pt x="2122" y="510" on="0"/>
        <pt x="2191" y="289" on="0"/>
        <pt x="2226" y="168" on="1"/>
        <pt x="2288" y="298" on="0"/>
        <pt x="2363" y="589" on="0"/>
        <pt x="2363" y="743" on="1"/>
        <pt x="2363" y="798" on="0"/>
        <pt x="2349" y="876" on="0"/>
        <pt x="2332" y="931" on="0"/>
        <pt x="2318" y="970" on="0"/>
        <pt x="2318" y="985" on="1"/>
        <pt x="2318" y="1000" on="0"/>
        <pt x="2342" y="1021" on="0"/>
        <pt x="2376" y="1033" on="0"/>
        <pt x="2411" y="1038" on="0"/>
        <pt x="2423" y="1038" on="1"/>
        <pt x="2450" y="1038" on="0"/>
        <pt x="2478" y="1016" on="0"/>
        <pt x="2492" y="975" on="0"/>
        <pt x="2494" y="917" on="0"/>
        <pt x="2494" y="881" on="1"/>
      </contour>
    </TTGlyph>
    <TTGlyph name="Kcommaaccent" xMin="0" yMin="-477" xMax="2003" yMax="1559">
      <component glyphName="K" x="0" y="0" flags="0x204"/>
      <component glyphName="commaaccent" x="592" y="0" flags="0x4"/>
    </TTGlyph>
    <TTGlyph name="L" xMin="0" yMin="-16" xMax="1362" yMax="1495">
      <contour>
        <pt x="836" y="227" on="1"/>
        <pt x="836" y="184" on="0"/>
        <pt x="857" y="131" on="0"/>
        <pt x="897" y="101" on="0"/>
        <pt x="958" y="90" on="0"/>
        <pt x="999" y="90" on="1"/>
        <pt x="1065" y="90" on="0"/>
        <pt x="1171" y="117" on="0"/>
        <pt x="1251" y="150" on="0"/>
        <pt x="1306" y="178" on="0"/>
        <pt x="1321" y="178" on="1"/>
        <pt x="1340" y="178" on="0"/>
        <pt x="1362" y="154" on="0"/>
        <pt x="1362" y="131" on="1"/>
        <pt x="1362" y="91" on="0"/>
        <pt x="1346" y="56" on="0"/>
        <pt x="1321" y="47" on="1"/>
        <pt x="1230" y="15" on="0"/>
        <pt x="1002" y="-16" on="0"/>
        <pt x="858" y="-16" on="1"/>
        <pt x="751" y="-16" on="0"/>
        <pt x="615" y="3" on="0"/>
        <pt x="537" y="51" on="0"/>
        <pt x="508" y="134" on="0"/>
        <pt x="508" y="199" on="1"/>
        <pt x="508" y="1335" on="1"/>
        <pt x="508" y="1357" on="0"/>
        <pt x="498" y="1383" on="0"/>
        <pt x="480" y="1398" on="0"/>
        <pt x="455" y="1403" on="0"/>
        <pt x="440" y="1403" on="1"/>
        <pt x="418" y="1403" on="0"/>
        <pt x="353" y="1389" on="0"/>
        <pt x="281" y="1361" on="0"/>
        <pt x="208" y="1320" on="0"/>
        <pt x="151" y="1268" on="0"/>
        <pt x="115" y="1204" on="0"/>
        <pt x="115" y="1167" on="1"/>
        <pt x="115" y="1135" on="0"/>
        <pt x="132" y="1097" on="0"/>
        <pt x="154" y="1078" on="0"/>
        <pt x="177" y="1073" on="0"/>
        <pt x="182" y="1073" on="1"/>
        <pt x="207" y="1073" on="0"/>
        <pt x="239" y="1090" on="0"/>
        <pt x="265" y="1109" on="0"/>
        <pt x="288" y="1126" on="0"/>
        <pt x="303" y="1126" on="1"/>
        <pt x="315" y="1126" on="0"/>
        <pt x="342" y="1115" on="0"/>
        <pt x="365" y="1091" on="0"/>
        <pt x="381" y="1052" on="0"/>
        <pt x="381" y="1024" on="1"/>
        <pt x="381" y="984" on="0"/>
        <pt x="350" y="926" on="0"/>
        <pt x="301" y="887" on="0"/>
        <pt x="238" y="868" on="0"/>
        <pt x="207" y="868" on="1"/>
        <pt x="159" y="868" on="0"/>
        <pt x="82" y="901" on="0"/>
        <pt x="28" y="959" on="0"/>
        <pt x="0" y="1037" on="0"/>
        <pt x="0" y="1081" on="1"/>
        <pt x="0" y="1150" on="0"/>
        <pt x="50" y="1265" on="0"/>
        <pt x="137" y="1357" on="0"/>
        <pt x="254" y="1426" on="0"/>
        <pt x="390" y="1472" on="0"/>
        <pt x="538" y="1495" on="0"/>
        <pt x="612" y="1495" on="1"/>
        <pt x="694" y="1495" on="0"/>
        <pt x="785" y="1464" on="0"/>
        <pt x="828" y="1420" on="0"/>
        <pt x="836" y="1372" on="0"/>
        <pt x="836" y="1356" on="1"/>
      </contour>
    </TTGlyph>
    <TTGlyph name="Lacute" xMin="0" yMin="-16" xMax="1362" yMax="1904">
      <component glyphName="L" x="0" y="0" flags="0x204"/>
      <component glyphName="acute" x="213" y="440" flags="0x4"/>
    </TTGlyph>
    <TTGlyph name="Lcaron" xMin="0" yMin="-16" xMax="1362" yMax="1495">
      <component glyphName="L" x="0" y="0" flags="0x204"/>
      <component glyphName="uni0315" x="983" y="0" flags="0x4"/>
    </TTGlyph>
    <TTGlyph name="Lcommaaccent" xMin="0" yMin="-477" xMax="1362" yMax="1495">
      <component glyphName="L" x="0" y="0" flags="0x204"/>
      <component glyphName="commaaccent" x="500" y="0" flags="0x4"/>
    </TTGlyph>
    <TTGlyph name="Ldot" xMin="0" yMin="-16" xMax="1362" yMax="1495">
      <component glyphName="L" x="0" y="0" flags="0x204"/>
      <component glyphName="periodcentered" x="858" y="0" flags="0x4"/>
    </TTGlyph>
    <TTGlyph name="Lslash" xMin="0" yMin="-16" xMax="1362" yMax="1495">
      <contour>
        <pt x="836" y="799" on="1"/>
        <pt x="1018" y="905" on="1"/>
        <pt x="1059" y="829" on="1"/>
        <pt x="836" y="698" on="1"/>
        <pt x="836" y="227" on="1"/>
        <pt x="836" y="184" on="0"/>
        <pt x="857" y="131" on="0"/>
        <pt x="897" y="101" on="0"/>
        <pt x="958" y="90" on="0"/>
        <pt x="999" y="90" on="1"/>
        <pt x="1065" y="90" on="0"/>
        <pt x="1171" y="117" on="0"/>
        <pt x="1251" y="150" on="0"/>
        <pt x="1306" y="178" on="0"/>
        <pt x="1321" y="178" on="1"/>
        <pt x="1340" y="178" on="0"/>
        <pt x="1362" y="154" on="0"/>
        <pt x="1362" y="131" on="1"/>
        <pt x="1362" y="91" on="0"/>
        <pt x="1346" y="56" on="0"/>
        <pt x="1321" y="47" on="1"/>
        <pt x="1230" y="15" on="0"/>
        <pt x="1002" y="-16" on="0"/>
        <pt x="858" y="-16" on="1"/>
        <pt x="751" y="-16" on="0"/>
        <pt x="615" y="3" on="0"/>
        <pt x="537" y="51" on="0"/>
        <pt x="508" y="134" on="0"/>
        <pt x="508" y="199" on="1"/>
        <pt x="508" y="508" on="1"/>
        <pt x="358" y="422" on="1"/>
        <pt x="317" y="498" on="1"/>
        <pt x="508" y="608" on="1"/>
        <pt x="508" y="1335" on="1"/>
        <pt x="508" y="1357" on="0"/>
        <pt x="498" y="1383" on="0"/>
        <pt x="480" y="1398" on="0"/>
        <pt x="455" y="1403" on="0"/>
        <pt x="440" y="1403" on="1"/>
        <pt x="418" y="1403" on="0"/>
        <pt x="353" y="1389" on="0"/>
        <pt x="281" y="1361" on="0"/>
        <pt x="208" y="1320" on="0"/>
        <pt x="151" y="1268" on="0"/>
        <pt x="115" y="1204" on="0"/>
        <pt x="115" y="1167" on="1"/>
        <pt x="115" y="1135" on="0"/>
        <pt x="132" y="1097" on="0"/>
        <pt x="154" y="1078" on="0"/>
        <pt x="177" y="1073" on="0"/>
        <pt x="182" y="1073" on="1"/>
        <pt x="207" y="1073" on="0"/>
        <pt x="239" y="1090" on="0"/>
        <pt x="265" y="1109" on="0"/>
        <pt x="288" y="1126" on="0"/>
        <pt x="303" y="1126" on="1"/>
        <pt x="315" y="1126" on="0"/>
        <pt x="342" y="1115" on="0"/>
        <pt x="365" y="1091" on="0"/>
        <pt x="381" y="1052" on="0"/>
        <pt x="381" y="1024" on="1"/>
        <pt x="381" y="984" on="0"/>
        <pt x="350" y="926" on="0"/>
        <pt x="301" y="887" on="0"/>
        <pt x="238" y="868" on="0"/>
        <pt x="207" y="868" on="1"/>
        <pt x="159" y="868" on="0"/>
        <pt x="82" y="901" on="0"/>
        <pt x="28" y="959" on="0"/>
        <pt x="0" y="1037" on="0"/>
        <pt x="0" y="1081" on="1"/>
        <pt x="0" y="1150" on="0"/>
        <pt x="50" y="1265" on="0"/>
        <pt x="137" y="1357" on="0"/>
        <pt x="254" y="1426" on="0"/>
        <pt x="390" y="1472" on="0"/>
        <pt x="538" y="1495" on="0"/>
        <pt x="612" y="1495" on="1"/>
        <pt x="694" y="1495" on="0"/>
        <pt x="785" y="1464" on="0"/>
        <pt x="828" y="1420" on="0"/>
        <pt x="836" y="1372" on="0"/>
        <pt x="836" y="1356" on="1"/>
      </contour>
    </TTGlyph>
    <TTGlyph name="M" xMin="-61" yMin="-16" xMax="2136" yMax="1855">
      <contour>
        <pt x="1030" y="358" on="1"/>
        <pt x="670" y="1075" on="1"/>
        <pt x="657" y="834" on="1"/>
        <pt x="651" y="729" on="0"/>
        <pt x="642" y="522" on="0"/>
        <pt x="618" y="335" on="0"/>
        <pt x="567" y="175" on="0"/>
        <pt x="470" y="58" on="0"/>
        <pt x="315" y="-8" on="0"/>
        <pt x="199" y="-8" on="1"/>
        <pt x="148" y="-8" on="0"/>
        <pt x="54" y="9" on="0"/>
        <pt x="-18" y="39" on="0"/>
        <pt x="-61" y="80" on="0"/>
        <pt x="-61" y="104" on="1"/>
        <pt x="-61" y="122" on="0"/>
        <pt x="-51" y="159" on="0"/>
        <pt x="-31" y="190" on="0"/>
        <pt x="-2" y="209" on="0"/>
        <pt x="16" y="209" on="1"/>
        <pt x="27" y="209" on="0"/>
        <pt x="44" y="187" on="0"/>
        <pt x="62" y="154" on="0"/>
        <pt x="85" y="116" on="0"/>
        <pt x="122" y="83" on="0"/>
        <pt x="174" y="61" on="0"/>
        <pt x="213" y="61" on="1"/>
        <pt x="290" y="61" on="0"/>
        <pt x="395" y="114" on="0"/>
        <pt x="463" y="214" on="0"/>
        <pt x="499" y="356" on="0"/>
        <pt x="508" y="446" on="1"/>
        <pt x="512" y="496" on="0"/>
        <pt x="520" y="589" on="0"/>
        <pt x="528" y="681" on="0"/>
        <pt x="535" y="776" on="0"/>
        <pt x="539" y="829" on="1"/>
        <pt x="544" y="906" on="0"/>
        <pt x="552" y="1045" on="0"/>
        <pt x="557" y="1165" on="0"/>
        <pt x="560" y="1261" on="0"/>
        <pt x="561" y="1296" on="1"/>
        <pt x="544" y="1331" on="0"/>
        <pt x="518" y="1374" on="0"/>
        <pt x="490" y="1397" on="0"/>
        <pt x="456" y="1405" on="0"/>
        <pt x="432" y="1405" on="1"/>
        <pt x="412" y="1405" on="0"/>
        <pt x="353" y="1390" on="0"/>
        <pt x="290" y="1362" on="0"/>
        <pt x="227" y="1321" on="0"/>
        <pt x="178" y="1268" on="0"/>
        <pt x="147" y="1204" on="0"/>
        <pt x="147" y="1167" on="1"/>
        <pt x="147" y="1135" on="0"/>
        <pt x="164" y="1097" on="0"/>
        <pt x="187" y="1078" on="0"/>
        <pt x="210" y="1073" on="0"/>
        <pt x="215" y="1073" on="1"/>
        <pt x="240" y="1073" on="0"/>
        <pt x="272" y="1090" on="0"/>
        <pt x="298" y="1109" on="0"/>
        <pt x="321" y="1126" on="0"/>
        <pt x="336" y="1126" on="1"/>
        <pt x="348" y="1126" on="0"/>
        <pt x="375" y="1115" on="0"/>
        <pt x="398" y="1091" on="0"/>
        <pt x="414" y="1052" on="0"/>
        <pt x="414" y="1024" on="1"/>
        <pt x="414" y="984" on="0"/>
        <pt x="383" y="926" on="0"/>
        <pt x="334" y="887" on="0"/>
        <pt x="271" y="868" on="0"/>
        <pt x="240" y="868" on="1"/>
        <pt x="192" y="868" on="0"/>
        <pt x="115" y="901" on="0"/>
        <pt x="61" y="959" on="0"/>
        <pt x="33" y="1037" on="0"/>
        <pt x="33" y="1081" on="1"/>
        <pt x="33" y="1185" on="0"/>
        <pt x="129" y="1340" on="0"/>
        <pt x="285" y="1444" on="0"/>
        <pt x="482" y="1495" on="0"/>
        <pt x="584" y="1495" on="1"/>
        <pt x="666" y="1495" on="0"/>
        <pt x="776" y="1462" on="0"/>
        <pt x="850" y="1407" on="0"/>
        <pt x="898" y="1333" on="0"/>
        <pt x="918" y="1292" on="1"/>
        <pt x="1182" y="756" on="1"/>
        <pt x="1285" y="959" on="0"/>
        <pt x="1454" y="1280" on="0"/>
        <pt x="1598" y="1524" on="0"/>
        <pt x="1723" y="1696" on="0"/>
        <pt x="1840" y="1805" on="0"/>
        <pt x="1955" y="1855" on="0"/>
        <pt x="2017" y="1855" on="1"/>
        <pt x="2070" y="1855" on="0"/>
        <pt x="2136" y="1810" on="0"/>
        <pt x="2136" y="1765" on="1"/>
        <pt x="2136" y="1725" on="0"/>
        <pt x="2110" y="1673" on="0"/>
        <pt x="2087" y="1673" on="1"/>
        <pt x="2068" y="1673" on="0"/>
        <pt x="2048" y="1702" on="0"/>
        <pt x="2029" y="1736" on="0"/>
        <pt x="2001" y="1765" on="0"/>
        <pt x="1974" y="1765" on="1"/>
        <pt x="1958" y="1765" on="0"/>
        <pt x="1912" y="1747" on="0"/>
        <pt x="1863" y="1711" on="0"/>
        <pt x="1815" y="1657" on="0"/>
        <pt x="1779" y="1585" on="0"/>
        <pt x="1759" y="1493" on="0"/>
        <pt x="1763" y="1438" on="1"/>
        <pt x="1767" y="1375" on="0"/>
        <pt x="1781" y="1206" on="0"/>
        <pt x="1798" y="1013" on="0"/>
        <pt x="1817" y="807" on="0"/>
        <pt x="1837" y="607" on="0"/>
        <pt x="1856" y="423" on="0"/>
        <pt x="1872" y="274" on="0"/>
        <pt x="1886" y="171" on="0"/>
        <pt x="1890" y="152" on="1"/>
        <pt x="1896" y="123" on="0"/>
        <pt x="1916" y="88" on="0"/>
        <pt x="1942" y="88" on="1"/>
        <pt x="1969" y="88" on="0"/>
        <pt x="2017" y="107" on="0"/>
        <pt x="2036" y="117" on="1"/>
        <pt x="2052" y="80" on="1"/>
        <pt x="2034" y="67" on="0"/>
        <pt x="1979" y="34" on="0"/>
        <pt x="1908" y="4" on="0"/>
        <pt x="1823" y="-16" on="0"/>
        <pt x="1774" y="-16" on="1"/>
        <pt x="1705" y="-16" on="0"/>
        <pt x="1625" y="19" on="0"/>
        <pt x="1582" y="70" on="0"/>
        <pt x="1567" y="127" on="0"/>
        <pt x="1563" y="150" on="1"/>
        <pt x="1554" y="201" on="0"/>
        <pt x="1534" y="345" on="0"/>
        <pt x="1515" y="510" on="0"/>
        <pt x="1497" y="685" on="0"/>
        <pt x="1482" y="852" on="0"/>
        <pt x="1470" y="1000" on="0"/>
        <pt x="1466" y="1055" on="1"/>
        <pt x="1436" y="1006" on="0"/>
        <pt x="1385" y="915" on="0"/>
        <pt x="1337" y="820" on="0"/>
        <pt x="1287" y="716" on="0"/>
        <pt x="1232" y="594" on="0"/>
        <pt x="1167" y="448" on="0"/>
        <pt x="1128" y="358" on="1"/>
      </contour>
    </TTGlyph>
    <TTGlyph name="N" xMin="-61" yMin="-201" xMax="1956" yMax="1536">
      <contour>
        <pt x="496" y="961" on="1"/>
        <pt x="496" y="1052" on="0"/>
        <pt x="493" y="1204" on="0"/>
        <pt x="490" y="1317" on="0"/>
        <pt x="487" y="1383" on="0"/>
        <pt x="487" y="1389" on="1"/>
        <pt x="467" y="1403" on="0"/>
        <pt x="416" y="1405" on="0"/>
        <pt x="391" y="1405" on="1"/>
        <pt x="356" y="1405" on="0"/>
        <pt x="258" y="1372" on="0"/>
        <pt x="166" y="1311" on="0"/>
        <pt x="102" y="1222" on="0"/>
        <pt x="102" y="1167" on="1"/>
        <pt x="102" y="1135" on="0"/>
        <pt x="119" y="1097" on="0"/>
        <pt x="142" y="1078" on="0"/>
        <pt x="165" y="1073" on="0"/>
        <pt x="170" y="1073" on="1"/>
        <pt x="195" y="1073" on="0"/>
        <pt x="227" y="1090" on="0"/>
        <pt x="253" y="1109" on="0"/>
        <pt x="276" y="1126" on="0"/>
        <pt x="291" y="1126" on="1"/>
        <pt x="303" y="1126" on="0"/>
        <pt x="330" y="1115" on="0"/>
        <pt x="353" y="1091" on="0"/>
        <pt x="369" y="1052" on="0"/>
        <pt x="369" y="1024" on="1"/>
        <pt x="369" y="984" on="0"/>
        <pt x="338" y="926" on="0"/>
        <pt x="289" y="887" on="0"/>
        <pt x="226" y="868" on="0"/>
        <pt x="195" y="868" on="1"/>
        <pt x="147" y="868" on="0"/>
        <pt x="70" y="901" on="0"/>
        <pt x="16" y="959" on="0"/>
        <pt x="-12" y="1037" on="0"/>
        <pt x="-12" y="1081" on="1"/>
        <pt x="-12" y="1185" on="0"/>
        <pt x="75" y="1340" on="0"/>
        <pt x="220" y="1444" on="0"/>
        <pt x="409" y="1495" on="0"/>
        <pt x="510" y="1495" on="1"/>
        <pt x="601" y="1495" on="0"/>
        <pt x="719" y="1471" on="0"/>
        <pt x="793" y="1431" on="0"/>
        <pt x="835" y="1376" on="0"/>
        <pt x="850" y="1346" on="1"/>
        <pt x="911" y="1222" on="0"/>
        <pt x="1026" y="982" on="0"/>
        <pt x="1133" y="754" on="0"/>
        <pt x="1234" y="543" on="0"/>
        <pt x="1282" y="449" on="1"/>
        <pt x="1282" y="592" on="1"/>
        <pt x="1282" y="901" on="1"/>
        <pt x="1282" y="984" on="0"/>
        <pt x="1291" y="1143" on="0"/>
        <pt x="1320" y="1284" on="0"/>
        <pt x="1378" y="1402" on="0"/>
        <pt x="1475" y="1488" on="0"/>
        <pt x="1619" y="1536" on="0"/>
        <pt x="1720" y="1536" on="1"/>
        <pt x="1771" y="1536" on="0"/>
        <pt x="1857" y="1521" on="0"/>
        <pt x="1920" y="1493" on="0"/>
        <pt x="1956" y="1452" on="0"/>
        <pt x="1956" y="1427" on="1"/>
        <pt x="1956" y="1411" on="0"/>
        <pt x="1947" y="1376" on="0"/>
        <pt x="1929" y="1348" on="0"/>
        <pt x="1902" y="1329" on="0"/>
        <pt x="1884" y="1329" on="1"/>
        <pt x="1869" y="1329" on="0"/>
        <pt x="1844" y="1371" on="0"/>
        <pt x="1807" y="1422" on="0"/>
        <pt x="1746" y="1464" on="0"/>
        <pt x="1694" y="1464" on="1"/>
        <pt x="1613" y="1464" on="0"/>
        <pt x="1506" y="1407" on="0"/>
        <pt x="1440" y="1303" on="0"/>
        <pt x="1409" y="1154" on="0"/>
        <pt x="1405" y="1063" on="1"/>
        <pt x="1403" y="1000" on="0"/>
        <pt x="1400" y="881" on="0"/>
        <pt x="1399" y="759" on="0"/>
        <pt x="1399" y="628" on="0"/>
        <pt x="1399" y="553" on="1"/>
        <pt x="1399" y="447" on="0"/>
        <pt x="1401" y="279" on="0"/>
        <pt x="1403" y="225" on="1"/>
        <pt x="1448" y="148" on="0"/>
        <pt x="1536" y="25" on="0"/>
        <pt x="1621" y="-60" on="0"/>
        <pt x="1707" y="-106" on="0"/>
        <pt x="1751" y="-106" on="1"/>
        <pt x="1765" y="-106" on="0"/>
        <pt x="1791" y="-98" on="0"/>
        <pt x="1801" y="-93" on="1"/>
        <pt x="1812" y="-88" on="0"/>
        <pt x="1823" y="-80" on="1"/>
        <pt x="1855" y="-119" on="1"/>
        <pt x="1841" y="-129" on="0"/>
        <pt x="1790" y="-157" on="0"/>
        <pt x="1717" y="-183" on="0"/>
        <pt x="1623" y="-201" on="0"/>
        <pt x="1567" y="-201" on="1"/>
        <pt x="1486" y="-201" on="0"/>
        <pt x="1337" y="-122" on="0"/>
        <pt x="1199" y="16" on="0"/>
        <pt x="1073" y="201" on="0"/>
        <pt x="956" y="413" on="0"/>
        <pt x="848" y="643" on="0"/>
        <pt x="747" y="868" on="0"/>
        <pt x="654" y="1079" on="0"/>
        <pt x="610" y="1167" on="1"/>
        <pt x="610" y="1109" on="0"/>
        <pt x="612" y="985" on="0"/>
        <pt x="612" y="922" on="1"/>
        <pt x="612" y="612" on="1"/>
        <pt x="612" y="529" on="0"/>
        <pt x="604" y="371" on="0"/>
        <pt x="574" y="230" on="0"/>
        <pt x="517" y="111" on="0"/>
        <pt x="419" y="25" on="0"/>
        <pt x="275" y="-23" on="0"/>
        <pt x="174" y="-23" on="1"/>
        <pt x="123" y="-23" on="0"/>
        <pt x="37" y="-8" on="0"/>
        <pt x="-26" y="20" on="0"/>
        <pt x="-61" y="60" on="0"/>
        <pt x="-61" y="86" on="1"/>
        <pt x="-61" y="102" on="0"/>
        <pt x="-52" y="137" on="0"/>
        <pt x="-34" y="165" on="0"/>
        <pt x="-8" y="184" on="0"/>
        <pt x="10" y="184" on="1"/>
        <pt x="20" y="184" on="0"/>
        <pt x="37" y="164" on="0"/>
        <pt x="56" y="134" on="0"/>
        <pt x="81" y="99" on="0"/>
        <pt x="116" y="69" on="0"/>
        <pt x="166" y="49" on="0"/>
        <pt x="201" y="49" on="1"/>
        <pt x="282" y="49" on="0"/>
        <pt x="389" y="106" on="0"/>
        <pt x="455" y="211" on="0"/>
        <pt x="485" y="359" on="0"/>
        <pt x="489" y="451" on="1"/>
        <pt x="492" y="514" on="0"/>
        <pt x="494" y="632" on="0"/>
        <pt x="496" y="754" on="0"/>
        <pt x="496" y="886" on="0"/>
      </contour>
    </TTGlyph>
    <TTGlyph name="Nacute" xMin="-61" yMin="-201" xMax="1956" yMax="1904">
      <component glyphName="N" x="0" y="0" flags="0x204"/>
      <component glyphName="acute" x="608" y="440" flags="0x4"/>
    </TTGlyph>
    <TTGlyph name="Ncaron" xMin="-61" yMin="-201" xMax="1956" yMax="1904">
      <component glyphName="N" x="0" y="0" flags="0x204"/>
      <component glyphName="caron" x="608" y="440" flags="0x4"/>
    </TTGlyph>
    <TTGlyph name="Ncommaaccent" xMin="-61" yMin="-477" xMax="1956" yMax="1536">
      <component glyphName="N" x="0" y="0" flags="0x204"/>
      <component glyphName="commaaccent" x="465" y="0" flags="0x4"/>
    </TTGlyph>
    <TTGlyph name="Ntilde" xMin="-61" yMin="-201" xMax="1956" yMax="1878">
      <component glyphName="N" x="0" y="0" flags="0x204"/>
      <component glyphName="tilde" x="608" y="440" flags="0x4"/>
    </TTGlyph>
    <TTGlyph name="O" xMin="82" yMin="-16" xMax="1391" yMax="1495">
      <contour>
        <pt x="645" y="1178" on="1"/>
        <pt x="645" y="1143" on="0"/>
        <pt x="667" y="1098" on="0"/>
        <pt x="700" y="1067" on="0"/>
        <pt x="738" y="1047" on="0"/>
        <pt x="771" y="1025" on="0"/>
        <pt x="793" y="997" on="0"/>
        <pt x="793" y="975" on="1"/>
        <pt x="793" y="938" on="0"/>
        <pt x="741" y="899" on="0"/>
        <pt x="707" y="899" on="1"/>
        <pt x="675" y="899" on="0"/>
        <pt x="620" y="939" on="0"/>
        <pt x="579" y="1008" on="0"/>
        <pt x="555" y="1101" on="0"/>
        <pt x="555" y="1153" on="1"/>
        <pt x="555" y="1217" on="0"/>
        <pt x="595" y="1334" on="0"/>
        <pt x="673" y="1423" on="0"/>
        <pt x="788" y="1475" on="0"/>
        <pt x="862" y="1475" on="1"/>
        <pt x="912" y="1475" on="0"/>
        <pt x="1030" y="1442" on="0"/>
        <pt x="1147" y="1370" on="0"/>
        <pt x="1256" y="1256" on="0"/>
        <pt x="1341" y="1092" on="0"/>
        <pt x="1391" y="876" on="0"/>
        <pt x="1391" y="739" on="1"/>
        <pt x="1391" y="562" on="0"/>
        <pt x="1286" y="282" on="0"/>
        <pt x="1107" y="87" on="0"/>
        <pt x="871" y="-16" on="0"/>
        <pt x="739" y="-16" on="1"/>
        <pt x="608" y="-16" on="0"/>
        <pt x="370" y="74" on="0"/>
        <pt x="189" y="259" on="0"/>
        <pt x="82" y="544" on="0"/>
        <pt x="82" y="739" on="1"/>
        <pt x="82" y="890" on="0"/>
        <pt x="163" y="1138" on="0"/>
        <pt x="300" y="1330" on="0"/>
        <pt x="482" y="1461" on="0"/>
        <pt x="584" y="1495" on="1"/>
        <pt x="618" y="1452" on="1"/>
        <pt x="589" y="1423" on="0"/>
        <pt x="539" y="1361" on="0"/>
        <pt x="497" y="1282" on="0"/>
        <pt x="464" y="1179" on="0"/>
        <pt x="442" y="1040" on="0"/>
        <pt x="430" y="858" on="0"/>
        <pt x="430" y="739" on="1"/>
        <pt x="430" y="585" on="0"/>
        <pt x="463" y="367" on="0"/>
        <pt x="516" y="220" on="0"/>
        <pt x="583" y="133" on="0"/>
        <pt x="651" y="89" on="0"/>
        <pt x="715" y="76" on="0"/>
        <pt x="739" y="76" on="1"/>
        <pt x="763" y="76" on="0"/>
        <pt x="826" y="89" on="0"/>
        <pt x="893" y="133" on="0"/>
        <pt x="959" y="220" on="0"/>
        <pt x="1010" y="367" on="0"/>
        <pt x="1042" y="585" on="0"/>
        <pt x="1042" y="739" on="1"/>
        <pt x="1042" y="874" on="0"/>
        <pt x="1018" y="1074" on="0"/>
        <pt x="979" y="1216" on="0"/>
        <pt x="928" y="1307" on="0"/>
        <pt x="873" y="1360" on="0"/>
        <pt x="818" y="1380" on="0"/>
        <pt x="795" y="1380" on="1"/>
        <pt x="759" y="1380" on="0"/>
        <pt x="703" y="1346" on="0"/>
        <pt x="665" y="1289" on="0"/>
        <pt x="645" y="1216" on="0"/>
      </contour>
    </TTGlyph>
    <TTGlyph name="OE" xMin="82" yMin="-16" xMax="1950" yMax="1495">
      <contour>
        <pt x="1786" y="688" on="1"/>
        <pt x="1370" y="688" on="1"/>
        <pt x="1370" y="297" on="1"/>
        <pt x="1370" y="250" on="0"/>
        <pt x="1399" y="183" on="0"/>
        <pt x="1451" y="139" on="0"/>
        <pt x="1524" y="119" on="0"/>
        <pt x="1569" y="119" on="1"/>
        <pt x="1620" y="119" on="0"/>
        <pt x="1722" y="140" on="0"/>
        <pt x="1813" y="172" on="0"/>
        <pt x="1888" y="212" on="0"/>
        <pt x="1911" y="231" on="1"/>
        <pt x="1950" y="188" on="1"/>
        <pt x="1924" y="168" on="0"/>
        <pt x="1841" y="99" on="0"/>
        <pt x="1719" y="33" on="0"/>
        <pt x="1558" y="-16" on="0"/>
        <pt x="1456" y="-16" on="1"/>
        <pt x="1420" y="-16" on="0"/>
        <pt x="1326" y="-8" on="0"/>
        <pt x="1228" y="18" on="0"/>
        <pt x="1136" y="66" on="0"/>
        <pt x="1102" y="106" on="1"/>
        <pt x="1024" y="46" on="0"/>
        <pt x="841" y="-16" on="0"/>
        <pt x="739" y="-16" on="1"/>
        <pt x="608" y="-16" on="0"/>
        <pt x="370" y="74" on="0"/>
        <pt x="189" y="259" on="0"/>
        <pt x="82" y="544" on="0"/>
        <pt x="82" y="739" on="1"/>
        <pt x="82" y="903" on="0"/>
        <pt x="175" y="1169" on="0"/>
        <pt x="338" y="1363" on="0"/>
        <pt x="558" y="1480" on="0"/>
        <pt x="686" y="1495" on="1"/>
        <pt x="702" y="1444" on="1"/>
        <pt x="660" y="1417" on="0"/>
        <pt x="587" y="1358" on="0"/>
        <pt x="527" y="1282" on="0"/>
        <pt x="480" y="1181" on="0"/>
        <pt x="447" y="1043" on="0"/>
        <pt x="430" y="859" on="0"/>
        <pt x="430" y="739" on="1"/>
        <pt x="430" y="585" on="0"/>
        <pt x="463" y="367" on="0"/>
        <pt x="516" y="220" on="0"/>
        <pt x="583" y="133" on="0"/>
        <pt x="651" y="89" on="0"/>
        <pt x="715" y="76" on="0"/>
        <pt x="739" y="76" on="1"/>
        <pt x="762" y="76" on="0"/>
        <pt x="822" y="88" on="0"/>
        <pt x="888" y="129" on="0"/>
        <pt x="952" y="209" on="0"/>
        <pt x="1004" y="345" on="0"/>
        <pt x="1039" y="546" on="0"/>
        <pt x="1042" y="688" on="1"/>
        <pt x="887" y="688" on="1"/>
        <pt x="887" y="776" on="1"/>
        <pt x="1042" y="776" on="1"/>
        <pt x="1042" y="1405" on="1"/>
        <pt x="1010" y="1402" on="0"/>
        <pt x="932" y="1382" on="0"/>
        <pt x="851" y="1349" on="0"/>
        <pt x="775" y="1303" on="0"/>
        <pt x="716" y="1247" on="0"/>
        <pt x="680" y="1183" on="0"/>
        <pt x="680" y="1147" on="1"/>
        <pt x="680" y="1118" on="0"/>
        <pt x="695" y="1085" on="0"/>
        <pt x="715" y="1068" on="0"/>
        <pt x="734" y="1063" on="0"/>
        <pt x="739" y="1063" on="1"/>
        <pt x="761" y="1063" on="0"/>
        <pt x="791" y="1078" on="0"/>
        <pt x="813" y="1095" on="0"/>
        <pt x="833" y="1110" on="0"/>
        <pt x="846" y="1110" on="1"/>
        <pt x="856" y="1110" on="0"/>
        <pt x="881" y="1101" on="0"/>
        <pt x="901" y="1080" on="0"/>
        <pt x="915" y="1045" on="0"/>
        <pt x="915" y="1020" on="1"/>
        <pt x="915" y="985" on="0"/>
        <pt x="888" y="933" on="0"/>
        <pt x="844" y="899" on="0"/>
        <pt x="790" y="883" on="0"/>
        <pt x="762" y="883" on="1"/>
        <pt x="719" y="883" on="0"/>
        <pt x="651" y="912" on="0"/>
        <pt x="605" y="963" on="0"/>
        <pt x="580" y="1032" on="0"/>
        <pt x="580" y="1071" on="1"/>
        <pt x="580" y="1174" on="0"/>
        <pt x="695" y="1332" on="0"/>
        <pt x="901" y="1440" on="0"/>
        <pt x="1186" y="1495" on="0"/>
        <pt x="1356" y="1495" on="1"/>
        <pt x="1437" y="1495" on="0"/>
        <pt x="1591" y="1492" on="0"/>
        <pt x="1718" y="1486" on="0"/>
        <pt x="1810" y="1478" on="0"/>
        <pt x="1831" y="1473" on="1"/>
        <pt x="1851" y="1468" on="0"/>
        <pt x="1874" y="1456" on="0"/>
        <pt x="1886" y="1440" on="0"/>
        <pt x="1890" y="1419" on="0"/>
        <pt x="1890" y="1405" on="1"/>
        <pt x="1890" y="1393" on="0"/>
        <pt x="1885" y="1364" on="0"/>
        <pt x="1873" y="1339" on="0"/>
        <pt x="1854" y="1321" on="0"/>
        <pt x="1841" y="1321" on="1"/>
        <pt x="1833" y="1321" on="0"/>
        <pt x="1815" y="1335" on="0"/>
        <pt x="1780" y="1357" on="0"/>
        <pt x="1720" y="1381" on="0"/>
        <pt x="1621" y="1403" on="0"/>
        <pt x="1474" y="1417" on="0"/>
        <pt x="1370" y="1417" on="1"/>
        <pt x="1370" y="776" on="1"/>
        <pt x="1786" y="776" on="1"/>
      </contour>
    </TTGlyph>
    <TTGlyph name="Oacute" xMin="82" yMin="-16" xMax="1391" yMax="1904">
      <component glyphName="O" x="0" y="0" flags="0x204"/>
      <component glyphName="acute" x="350" y="440" flags="0x4"/>
    </TTGlyph>
    <TTGlyph name="Obreve" xMin="82" yMin="-16" xMax="1391" yMax="1878">
      <component glyphName="O" x="0" y="0" flags="0x204"/>
      <component glyphName="breve" x="350" y="440" flags="0x4"/>
    </TTGlyph>
    <TTGlyph name="Ocircumflex" xMin="82" yMin="-16" xMax="1391" yMax="1904">
      <component glyphName="O" x="0" y="0" flags="0x204"/>
      <component glyphName="circumflex" x="350" y="440" flags="0x4"/>
    </TTGlyph>
    <TTGlyph name="Odieresis" xMin="82" yMin="-16" xMax="1391" yMax="1859">
      <component glyphName="O" x="0" y="0" flags="0x204"/>
      <component glyphName="dieresis" x="350" y="440" flags="0x4"/>
    </TTGlyph>
    <TTGlyph name="Ograve" xMin="82" yMin="-16" xMax="1391" yMax="1904">
      <component glyphName="O" x="0" y="0" flags="0x204"/>
      <component glyphName="grave" x="350" y="440" flags="0x4"/>
    </TTGlyph>
    <TTGlyph name="Ohungarumlaut" xMin="82" yMin="-16" xMax="1391" yMax="1904">
      <component glyphName="O" x="0" y="0" flags="0x204"/>
      <component glyphName="hungarumlaut" x="369" y="440" flags="0x4"/>
    </TTGlyph>
    <TTGlyph name="Omacron" xMin="82" yMin="-16" xMax="1391" yMax="1822">
      <component glyphName="O" x="0" y="0" flags="0x204"/>
      <component glyphName="macron" x="350" y="440" flags="0x4"/>
    </TTGlyph>
    <TTGlyph name="Oslash" xMin="82" yMin="-78" xMax="1391" yMax="1556">
      <contour>
        <pt x="645" y="1202" on="1"/>
        <pt x="645" y="1171" on="0"/>
        <pt x="667" y="1132" on="0"/>
        <pt x="700" y="1105" on="0"/>
        <pt x="738" y="1087" on="0"/>
        <pt x="771" y="1068" on="0"/>
        <pt x="793" y="1043" on="0"/>
        <pt x="793" y="1024" on="1"/>
        <pt x="793" y="987" on="0"/>
        <pt x="741" y="948" on="0"/>
        <pt x="707" y="948" on="1"/>
        <pt x="675" y="948" on="0"/>
        <pt x="620" y="985" on="0"/>
        <pt x="579" y="1048" on="0"/>
        <pt x="555" y="1132" on="0"/>
        <pt x="555" y="1180" on="1"/>
        <pt x="555" y="1239" on="0"/>
        <pt x="595" y="1346" on="0"/>
        <pt x="673" y="1427" on="0"/>
        <pt x="788" y="1475" on="0"/>
        <pt x="862" y="1475" on="1"/>
        <pt x="910" y="1475" on="0"/>
        <pt x="1024" y="1443" on="0"/>
        <pt x="1081" y="1409" on="1"/>
        <pt x="1167" y="1556" on="1"/>
        <pt x="1243" y="1513" on="1"/>
        <pt x="1151" y="1360" on="1"/>
        <pt x="1200" y="1318" on="0"/>
        <pt x="1287" y="1203" on="0"/>
        <pt x="1353" y="1050" on="0"/>
        <pt x="1391" y="857" on="0"/>
        <pt x="1391" y="739" on="1"/>
        <pt x="1391" y="562" on="0"/>
        <pt x="1286" y="282" on="0"/>
        <pt x="1107" y="87" on="0"/>
        <pt x="871" y="-16" on="0"/>
        <pt x="739" y="-16" on="1"/>
        <pt x="645" y="-16" on="0"/>
        <pt x="471" y="27" on="0"/>
        <pt x="395" y="74" on="1"/>
        <pt x="305" y="-78" on="1"/>
        <pt x="229" y="-35" on="1"/>
        <pt x="324" y="125" on="1"/>
        <pt x="269" y="170" on="0"/>
        <pt x="180" y="292" on="0"/>
        <pt x="117" y="445" on="0"/>
        <pt x="82" y="630" on="0"/>
        <pt x="82" y="739" on="1"/>
        <pt x="82" y="890" on="0"/>
        <pt x="163" y="1138" on="0"/>
        <pt x="300" y="1330" on="0"/>
        <pt x="482" y="1461" on="0"/>
        <pt x="584" y="1495" on="1"/>
        <pt x="618" y="1452" on="1"/>
        <pt x="589" y="1423" on="0"/>
        <pt x="539" y="1361" on="0"/>
        <pt x="497" y="1282" on="0"/>
        <pt x="464" y="1179" on="0"/>
        <pt x="442" y="1040" on="0"/>
        <pt x="430" y="858" on="0"/>
        <pt x="430" y="739" on="1"/>
        <pt x="430" y="619" on="0"/>
        <pt x="450" y="438" on="0"/>
        <pt x="467" y="369" on="1"/>
        <pt x="971" y="1225" on="1"/>
        <pt x="952" y="1271" on="0"/>
        <pt x="907" y="1331" on="0"/>
        <pt x="860" y="1366" on="0"/>
        <pt x="815" y="1380" on="0"/>
        <pt x="795" y="1380" on="1"/>
        <pt x="759" y="1380" on="0"/>
        <pt x="703" y="1350" on="0"/>
        <pt x="665" y="1300" on="0"/>
        <pt x="645" y="1236" on="0"/>
      </contour>
      <contour>
        <pt x="1042" y="739" on="1"/>
        <pt x="1042" y="860" on="0"/>
        <pt x="1023" y="1043" on="0"/>
        <pt x="1006" y="1112" on="1"/>
        <pt x="502" y="258" on="1"/>
        <pt x="529" y="196" on="0"/>
        <pt x="593" y="124" on="0"/>
        <pt x="657" y="87" on="0"/>
        <pt x="717" y="76" on="0"/>
        <pt x="739" y="76" on="1"/>
        <pt x="763" y="76" on="0"/>
        <pt x="826" y="89" on="0"/>
        <pt x="893" y="133" on="0"/>
        <pt x="959" y="220" on="0"/>
        <pt x="1010" y="367" on="0"/>
        <pt x="1042" y="585" on="0"/>
      </contour>
    </TTGlyph>
    <TTGlyph name="Oslashacute" xMin="82" yMin="-78" xMax="1391" yMax="1904">
      <component glyphName="Oslash" x="0" y="0" flags="0x204"/>
      <component glyphName="acute" x="328" y="440" flags="0x4"/>
    </TTGlyph>
    <TTGlyph name="Otilde" xMin="82" yMin="-16" xMax="1391" yMax="1878">
      <component glyphName="O" x="0" y="0" flags="0x204"/>
      <component glyphName="tilde" x="350" y="440" flags="0x4"/>
    </TTGlyph>
    <TTGlyph name="P" xMin="0" yMin="-16" xMax="1442" yMax="1495">
      <contour>
        <pt x="836" y="131" on="1"/>
        <pt x="836" y="54" on="0"/>
        <pt x="755" y="-16" on="0"/>
        <pt x="672" y="-16" on="1"/>
        <pt x="588" y="-16" on="0"/>
        <pt x="508" y="54" on="0"/>
        <pt x="508" y="131" on="1"/>
        <pt x="508" y="1327" on="1"/>
        <pt x="508" y="1382" on="0"/>
        <pt x="432" y="1382" on="1"/>
        <pt x="377" y="1382" on="0"/>
        <pt x="264" y="1349" on="0"/>
        <pt x="173" y="1292" on="0"/>
        <pt x="115" y="1213" on="0"/>
        <pt x="115" y="1167" on="1"/>
        <pt x="115" y="1135" on="0"/>
        <pt x="132" y="1097" on="0"/>
        <pt x="154" y="1078" on="0"/>
        <pt x="177" y="1073" on="0"/>
        <pt x="182" y="1073" on="1"/>
        <pt x="207" y="1073" on="0"/>
        <pt x="239" y="1090" on="0"/>
        <pt x="265" y="1109" on="0"/>
        <pt x="288" y="1126" on="0"/>
        <pt x="303" y="1126" on="1"/>
        <pt x="315" y="1126" on="0"/>
        <pt x="342" y="1115" on="0"/>
        <pt x="365" y="1091" on="0"/>
        <pt x="381" y="1052" on="0"/>
        <pt x="381" y="1024" on="1"/>
        <pt x="381" y="984" on="0"/>
        <pt x="350" y="926" on="0"/>
        <pt x="301" y="887" on="0"/>
        <pt x="238" y="868" on="0"/>
        <pt x="207" y="868" on="1"/>
        <pt x="159" y="868" on="0"/>
        <pt x="82" y="901" on="0"/>
        <pt x="28" y="959" on="0"/>
        <pt x="0" y="1037" on="0"/>
        <pt x="0" y="1081" on="1"/>
        <pt x="0" y="1164" on="0"/>
        <pt x="62" y="1291" on="0"/>
        <pt x="175" y="1383" on="0"/>
        <pt x="333" y="1444" on="0"/>
        <pt x="525" y="1480" on="0"/>
        <pt x="744" y="1495" on="0"/>
        <pt x="862" y="1495" on="1"/>
        <pt x="1148" y="1495" on="0"/>
        <pt x="1442" y="1276" on="0"/>
        <pt x="1442" y="1071" on="1"/>
        <pt x="1442" y="971" on="0"/>
        <pt x="1389" y="817" on="0"/>
        <pt x="1300" y="706" on="0"/>
        <pt x="1184" y="637" on="0"/>
        <pt x="1060" y="607" on="0"/>
        <pt x="935" y="613" on="0"/>
        <pt x="881" y="633" on="1"/>
        <pt x="895" y="676" on="1"/>
        <pt x="970" y="653" on="0"/>
        <pt x="1067" y="696" on="0"/>
        <pt x="1122" y="806" on="0"/>
        <pt x="1143" y="974" on="0"/>
        <pt x="1143" y="1075" on="1"/>
        <pt x="1143" y="1151" on="0"/>
        <pt x="1111" y="1276" on="0"/>
        <pt x="1056" y="1364" on="0"/>
        <pt x="983" y="1413" on="0"/>
        <pt x="942" y="1413" on="1"/>
        <pt x="910" y="1413" on="0"/>
        <pt x="869" y="1394" on="0"/>
        <pt x="846" y="1365" on="0"/>
        <pt x="837" y="1332" on="0"/>
        <pt x="836" y="1317" on="1"/>
      </contour>
    </TTGlyph>
    <TTGlyph name="Q" xMin="82" yMin="-512" xMax="1624" yMax="1495">
      <contour>
        <pt x="733" y="-16" on="1"/>
        <pt x="718" y="-16" on="0"/>
        <pt x="688" y="-14" on="0"/>
        <pt x="674" y="-12" on="1"/>
        <pt x="730" y="-27" on="0"/>
        <pt x="865" y="-82" on="0"/>
        <pt x="1009" y="-148" on="0"/>
        <pt x="1156" y="-216" on="0"/>
        <pt x="1291" y="-272" on="0"/>
        <pt x="1407" y="-307" on="0"/>
        <pt x="1450" y="-307" on="1"/>
        <pt x="1488" y="-307" on="0"/>
        <pt x="1541" y="-290" on="0"/>
        <pt x="1574" y="-265" on="0"/>
        <pt x="1591" y="-234" on="0"/>
        <pt x="1593" y="-219" on="1"/>
        <pt x="1624" y="-225" on="1"/>
        <pt x="1619" y="-282" on="0"/>
        <pt x="1584" y="-386" on="0"/>
        <pt x="1520" y="-465" on="0"/>
        <pt x="1426" y="-512" on="0"/>
        <pt x="1362" y="-512" on="1"/>
        <pt x="1308" y="-512" on="0"/>
        <pt x="1162" y="-460" on="0"/>
        <pt x="997" y="-383" on="0"/>
        <pt x="824" y="-293" on="0"/>
        <pt x="661" y="-216" on="0"/>
        <pt x="519" y="-164" on="0"/>
        <pt x="467" y="-164" on="1"/>
        <pt x="406" y="-164" on="0"/>
        <pt x="383" y="-215" on="1"/>
        <pt x="352" y="-205" on="1"/>
        <pt x="353" y="-193" on="0"/>
        <pt x="365" y="-154" on="0"/>
        <pt x="388" y="-109" on="0"/>
        <pt x="424" y="-63" on="0"/>
        <pt x="473" y="-26" on="0"/>
        <pt x="538" y="-1" on="0"/>
        <pt x="580" y="0" on="1"/>
        <pt x="475" y="23" on="0"/>
        <pt x="293" y="135" on="0"/>
        <pt x="159" y="318" on="0"/>
        <pt x="82" y="573" on="0"/>
        <pt x="82" y="739" on="1"/>
        <pt x="82" y="934" on="0"/>
        <pt x="187" y="1219" on="0"/>
        <pt x="365" y="1405" on="0"/>
        <pt x="602" y="1495" on="0"/>
        <pt x="733" y="1495" on="1"/>
        <pt x="864" y="1495" on="0"/>
        <pt x="1100" y="1405" on="0"/>
        <pt x="1279" y="1219" on="0"/>
        <pt x="1384" y="934" on="0"/>
        <pt x="1384" y="739" on="1"/>
        <pt x="1384" y="544" on="0"/>
        <pt x="1279" y="259" on="0"/>
        <pt x="1100" y="74" on="0"/>
        <pt x="864" y="-16" on="0"/>
      </contour>
      <contour>
        <pt x="733" y="1415" on="1"/>
        <pt x="709" y="1415" on="0"/>
        <pt x="646" y="1400" on="0"/>
        <pt x="579" y="1351" on="0"/>
        <pt x="513" y="1261" on="0"/>
        <pt x="462" y="1111" on="0"/>
        <pt x="430" y="892" on="0"/>
        <pt x="430" y="739" on="1"/>
        <pt x="430" y="587" on="0"/>
        <pt x="462" y="370" on="0"/>
        <pt x="513" y="223" on="0"/>
        <pt x="579" y="136" on="0"/>
        <pt x="646" y="91" on="0"/>
        <pt x="709" y="78" on="0"/>
        <pt x="733" y="78" on="1"/>
        <pt x="756" y="78" on="0"/>
        <pt x="820" y="91" on="0"/>
        <pt x="887" y="136" on="0"/>
        <pt x="953" y="223" on="0"/>
        <pt x="1004" y="370" on="0"/>
        <pt x="1036" y="586" on="0"/>
        <pt x="1036" y="739" on="1"/>
        <pt x="1036" y="892" on="0"/>
        <pt x="1004" y="1111" on="0"/>
        <pt x="953" y="1261" on="0"/>
        <pt x="887" y="1351" on="0"/>
        <pt x="820" y="1400" on="0"/>
        <pt x="756" y="1415" on="0"/>
      </contour>
    </TTGlyph>
    <TTGlyph name="R" xMin="0" yMin="-319" xMax="1946" yMax="1495">
      <contour>
        <pt x="862" y="1495" on="1"/>
        <pt x="1134" y="1495" on="0"/>
        <pt x="1421" y="1302" on="0"/>
        <pt x="1421" y="1122" on="1"/>
        <pt x="1421" y="1034" on="0"/>
        <pt x="1380" y="909" on="0"/>
        <pt x="1307" y="822" on="0"/>
        <pt x="1206" y="765" on="0"/>
        <pt x="1147" y="745" on="1"/>
        <pt x="1188" y="734" on="0"/>
        <pt x="1271" y="638" on="0"/>
        <pt x="1357" y="497" on="0"/>
        <pt x="1445" y="325" on="0"/>
        <pt x="1534" y="149" on="0"/>
        <pt x="1625" y="-17" on="0"/>
        <pt x="1716" y="-147" on="0"/>
        <pt x="1809" y="-225" on="0"/>
        <pt x="1855" y="-225" on="1"/>
        <pt x="1875" y="-225" on="0"/>
        <pt x="1914" y="-209" on="0"/>
        <pt x="1925" y="-201" on="1"/>
        <pt x="1946" y="-240" on="1"/>
        <pt x="1926" y="-251" on="0"/>
        <pt x="1868" y="-278" on="0"/>
        <pt x="1790" y="-302" on="0"/>
        <pt x="1693" y="-319" on="0"/>
        <pt x="1634" y="-319" on="1"/>
        <pt x="1537" y="-319" on="0"/>
        <pt x="1381" y="-212" on="0"/>
        <pt x="1325" y="-115" on="1"/>
        <pt x="1268" y="-15" on="0"/>
        <pt x="1158" y="205" on="0"/>
        <pt x="1049" y="425" on="0"/>
        <pt x="940" y="635" on="0"/>
        <pt x="885" y="727" on="1"/>
        <pt x="893" y="768" on="1"/>
        <pt x="952" y="753" on="0"/>
        <pt x="1039" y="797" on="0"/>
        <pt x="1095" y="896" on="0"/>
        <pt x="1122" y="1040" on="0"/>
        <pt x="1122" y="1124" on="1"/>
        <pt x="1122" y="1184" on="0"/>
        <pt x="1096" y="1289" on="0"/>
        <pt x="1049" y="1368" on="0"/>
        <pt x="983" y="1413" on="0"/>
        <pt x="942" y="1413" on="1"/>
        <pt x="910" y="1413" on="0"/>
        <pt x="869" y="1394" on="0"/>
        <pt x="845" y="1365" on="0"/>
        <pt x="836" y="1332" on="0"/>
        <pt x="836" y="1317" on="1"/>
        <pt x="836" y="131" on="1"/>
        <pt x="836" y="54" on="0"/>
        <pt x="755" y="-16" on="0"/>
        <pt x="672" y="-16" on="1"/>
        <pt x="588" y="-16" on="0"/>
        <pt x="508" y="54" on="0"/>
        <pt x="508" y="131" on="1"/>
        <pt x="508" y="1327" on="1"/>
        <pt x="508" y="1382" on="0"/>
        <pt x="432" y="1382" on="1"/>
        <pt x="377" y="1382" on="0"/>
        <pt x="264" y="1349" on="0"/>
        <pt x="173" y="1292" on="0"/>
        <pt x="115" y="1213" on="0"/>
        <pt x="115" y="1167" on="1"/>
        <pt x="115" y="1135" on="0"/>
        <pt x="132" y="1097" on="0"/>
        <pt x="154" y="1078" on="0"/>
        <pt x="177" y="1073" on="0"/>
        <pt x="182" y="1073" on="1"/>
        <pt x="207" y="1073" on="0"/>
        <pt x="239" y="1090" on="0"/>
        <pt x="265" y="1109" on="0"/>
        <pt x="288" y="1126" on="0"/>
        <pt x="303" y="1126" on="1"/>
        <pt x="315" y="1126" on="0"/>
        <pt x="342" y="1115" on="0"/>
        <pt x="365" y="1091" on="0"/>
        <pt x="381" y="1052" on="0"/>
        <pt x="381" y="1024" on="1"/>
        <pt x="381" y="984" on="0"/>
        <pt x="350" y="926" on="0"/>
        <pt x="301" y="887" on="0"/>
        <pt x="238" y="868" on="0"/>
        <pt x="207" y="868" on="1"/>
        <pt x="159" y="868" on="0"/>
        <pt x="82" y="901" on="0"/>
        <pt x="28" y="959" on="0"/>
        <pt x="0" y="1037" on="0"/>
        <pt x="0" y="1081" on="1"/>
        <pt x="0" y="1164" on="0"/>
        <pt x="62" y="1291" on="0"/>
        <pt x="175" y="1383" on="0"/>
        <pt x="333" y="1444" on="0"/>
        <pt x="525" y="1480" on="0"/>
        <pt x="744" y="1495" on="0"/>
      </contour>
    </TTGlyph>
    <TTGlyph name="R_y" xMin="0" yMin="-463" xMax="2499" yMax="1495">
      <contour>
        <pt x="862" y="1495" on="1"/>
        <pt x="1134" y="1495" on="0"/>
        <pt x="1421" y="1302" on="0"/>
        <pt x="1421" y="1122" on="1"/>
        <pt x="1421" y="1034" on="0"/>
        <pt x="1380" y="909" on="0"/>
        <pt x="1307" y="822" on="0"/>
        <pt x="1206" y="765" on="0"/>
        <pt x="1147" y="745" on="1"/>
        <pt x="1188" y="734" on="0"/>
        <pt x="1265" y="651" on="0"/>
        <pt x="1341" y="531" on="0"/>
        <pt x="1415" y="385" on="0"/>
        <pt x="1491" y="236" on="0"/>
        <pt x="1568" y="96" on="0"/>
        <pt x="1649" y="-12" on="0"/>
        <pt x="1735" y="-78" on="0"/>
        <pt x="1782" y="-78" on="1"/>
        <pt x="1802" y="-78" on="0"/>
        <pt x="1840" y="-61" on="0"/>
        <pt x="1851" y="-53" on="1"/>
        <pt x="1872" y="-92" on="1"/>
        <pt x="1852" y="-103" on="0"/>
        <pt x="1794" y="-131" on="0"/>
        <pt x="1717" y="-155" on="0"/>
        <pt x="1620" y="-172" on="0"/>
        <pt x="1561" y="-172" on="1"/>
        <pt x="1464" y="-172" on="0"/>
        <pt x="1307" y="-64" on="0"/>
        <pt x="1251" y="33" on="1"/>
        <pt x="1194" y="133" on="0"/>
        <pt x="1107" y="306" on="0"/>
        <pt x="1026" y="471" on="0"/>
        <pt x="940" y="635" on="0"/>
        <pt x="885" y="727" on="1"/>
        <pt x="893" y="768" on="1"/>
        <pt x="952" y="753" on="0"/>
        <pt x="1039" y="797" on="0"/>
        <pt x="1095" y="896" on="0"/>
        <pt x="1122" y="1040" on="0"/>
        <pt x="1122" y="1124" on="1"/>
        <pt x="1122" y="1184" on="0"/>
        <pt x="1096" y="1289" on="0"/>
        <pt x="1049" y="1368" on="0"/>
        <pt x="983" y="1413" on="0"/>
        <pt x="942" y="1413" on="1"/>
        <pt x="910" y="1413" on="0"/>
        <pt x="869" y="1394" on="0"/>
        <pt x="846" y="1365" on="0"/>
        <pt x="837" y="1332" on="0"/>
        <pt x="836" y="1317" on="1"/>
        <pt x="836" y="131" on="1"/>
        <pt x="836" y="54" on="0"/>
        <pt x="755" y="-16" on="0"/>
        <pt x="672" y="-16" on="1"/>
        <pt x="588" y="-16" on="0"/>
        <pt x="508" y="54" on="0"/>
        <pt x="508" y="131" on="1"/>
        <pt x="508" y="1327" on="1"/>
        <pt x="508" y="1382" on="0"/>
        <pt x="432" y="1382" on="1"/>
        <pt x="377" y="1382" on="0"/>
        <pt x="264" y="1349" on="0"/>
        <pt x="173" y="1292" on="0"/>
        <pt x="115" y="1213" on="0"/>
        <pt x="115" y="1167" on="1"/>
        <pt x="115" y="1135" on="0"/>
        <pt x="132" y="1097" on="0"/>
        <pt x="154" y="1078" on="0"/>
        <pt x="177" y="1073" on="0"/>
        <pt x="182" y="1073" on="1"/>
        <pt x="207" y="1073" on="0"/>
        <pt x="239" y="1090" on="0"/>
        <pt x="265" y="1109" on="0"/>
        <pt x="288" y="1126" on="0"/>
        <pt x="303" y="1126" on="1"/>
        <pt x="315" y="1126" on="0"/>
        <pt x="342" y="1115" on="0"/>
        <pt x="365" y="1091" on="0"/>
        <pt x="381" y="1052" on="0"/>
        <pt x="381" y="1024" on="1"/>
        <pt x="381" y="984" on="0"/>
        <pt x="350" y="926" on="0"/>
        <pt x="301" y="887" on="0"/>
        <pt x="238" y="868" on="0"/>
        <pt x="207" y="868" on="1"/>
        <pt x="159" y="868" on="0"/>
        <pt x="82" y="901" on="0"/>
        <pt x="28" y="959" on="0"/>
        <pt x="0" y="1037" on="0"/>
        <pt x="0" y="1081" on="1"/>
        <pt x="0" y="1164" on="0"/>
        <pt x="62" y="1291" on="0"/>
        <pt x="175" y="1383" on="0"/>
        <pt x="333" y="1444" on="0"/>
        <pt x="525" y="1480" on="0"/>
        <pt x="744" y="1495" on="0"/>
      </contour>
      <contour>
        <pt x="2499" y="817" on="1"/>
        <pt x="2491" y="650" on="0"/>
        <pt x="2414" y="331" on="0"/>
        <pt x="2288" y="46" on="0"/>
        <pt x="2121" y="-193" on="0"/>
        <pt x="1924" y="-366" on="0"/>
        <pt x="1704" y="-463" on="0"/>
        <pt x="1589" y="-463" on="1"/>
        <pt x="1501" y="-463" on="0"/>
        <pt x="1405" y="-404" on="0"/>
        <pt x="1405" y="-354" on="1"/>
        <pt x="1405" y="-335" on="0"/>
        <pt x="1417" y="-299" on="0"/>
        <pt x="1437" y="-271" on="0"/>
        <pt x="1465" y="-254" on="0"/>
        <pt x="1481" y="-254" on="1"/>
        <pt x="1500" y="-254" on="0"/>
        <pt x="1525" y="-292" on="0"/>
        <pt x="1553" y="-337" on="0"/>
        <pt x="1593" y="-375" on="0"/>
        <pt x="1628" y="-375" on="1"/>
        <pt x="1673" y="-375" on="0"/>
        <pt x="1771" y="-344" on="0"/>
        <pt x="1870" y="-286" on="0"/>
        <pt x="1969" y="-203" on="0"/>
        <pt x="2017" y="-152" on="1"/>
        <pt x="1989" y="-51" on="0"/>
        <pt x="1916" y="188" on="0"/>
        <pt x="1835" y="430" on="0"/>
        <pt x="1750" y="655" on="0"/>
        <pt x="1669" y="829" on="0"/>
        <pt x="1594" y="934" on="0"/>
        <pt x="1565" y="934" on="1"/>
        <pt x="1546" y="934" on="0"/>
        <pt x="1525" y="922" on="0"/>
        <pt x="1511" y="911" on="1"/>
        <pt x="1491" y="936" on="1"/>
        <pt x="1511" y="953" on="0"/>
        <pt x="1555" y="989" on="0"/>
        <pt x="1615" y="1019" on="0"/>
        <pt x="1695" y="1038" on="0"/>
        <pt x="1751" y="1038" on="1"/>
        <pt x="1812" y="1038" on="0"/>
        <pt x="1917" y="983" on="0"/>
        <pt x="1960" y="909" on="1"/>
        <pt x="1991" y="854" on="0"/>
        <pt x="2058" y="700" on="0"/>
        <pt x="2126" y="510" on="0"/>
        <pt x="2195" y="289" on="0"/>
        <pt x="2230" y="168" on="1"/>
        <pt x="2292" y="298" on="0"/>
        <pt x="2367" y="589" on="0"/>
        <pt x="2367" y="743" on="1"/>
        <pt x="2367" y="798" on="0"/>
        <pt x="2353" y="876" on="0"/>
        <pt x="2336" y="931" on="0"/>
        <pt x="2322" y="970" on="0"/>
        <pt x="2322" y="985" on="1"/>
        <pt x="2322" y="1000" on="0"/>
        <pt x="2346" y="1021" on="0"/>
        <pt x="2380" y="1033" on="0"/>
        <pt x="2415" y="1038" on="0"/>
        <pt x="2427" y="1038" on="1"/>
        <pt x="2454" y="1038" on="0"/>
        <pt x="2483" y="1016" on="0"/>
        <pt x="2497" y="975" on="0"/>
        <pt x="2499" y="917" on="0"/>
        <pt x="2499" y="881" on="1"/>
      </contour>
    </TTGlyph>
    <TTGlyph name="Racute" xMin="0" yMin="-319" xMax="1946" yMax="1904">
      <component glyphName="R" x="0" y="0" flags="0x204"/>
      <component glyphName="acute" x="453" y="440" flags="0x4"/>
    </TTGlyph>
    <TTGlyph name="Rcaron" xMin="0" yMin="-319" xMax="1946" yMax="1904">
      <component glyphName="R" x="0" y="0" flags="0x204"/>
      <component glyphName="caron" x="453" y="440" flags="0x4"/>
    </TTGlyph>
    <TTGlyph name="Rcommaaccent" xMin="0" yMin="-477" xMax="1946" yMax="1495">
      <component glyphName="R" x="0" y="0" flags="0x204"/>
      <component glyphName="commaaccent" x="584" y="0" flags="0x4"/>
    </TTGlyph>
    <TTGlyph name="S" xMin="18" yMin="-246" xMax="989" yMax="1495">
      <contour>
        <pt x="436" y="-145" on="1"/>
        <pt x="476" y="-145" on="0"/>
        <pt x="554" y="-116" on="0"/>
        <pt x="615" y="-49" on="0"/>
        <pt x="653" y="59" on="0"/>
        <pt x="653" y="137" on="1"/>
        <pt x="653" y="221" on="0"/>
        <pt x="570" y="379" on="0"/>
        <pt x="445" y="532" on="0"/>
        <pt x="300" y="683" on="0"/>
        <pt x="175" y="840" on="0"/>
        <pt x="92" y="1007" on="0"/>
        <pt x="92" y="1098" on="1"/>
        <pt x="92" y="1189" on="0"/>
        <pt x="159" y="1336" on="0"/>
        <pt x="274" y="1439" on="0"/>
        <pt x="427" y="1495" on="0"/>
        <pt x="514" y="1495" on="1"/>
        <pt x="607" y="1495" on="0"/>
        <pt x="752" y="1456" on="0"/>
        <pt x="853" y="1389" on="0"/>
        <pt x="905" y="1298" on="0"/>
        <pt x="905" y="1247" on="1"/>
        <pt x="905" y="1223" on="0"/>
        <pt x="891" y="1172" on="0"/>
        <pt x="861" y="1130" on="0"/>
        <pt x="815" y="1102" on="0"/>
        <pt x="784" y="1102" on="1"/>
        <pt x="747" y="1102" on="0"/>
        <pt x="712" y="1147" on="0"/>
        <pt x="695" y="1213" on="0"/>
        <pt x="683" y="1292" on="0"/>
        <pt x="657" y="1358" on="0"/>
        <pt x="605" y="1403" on="0"/>
        <pt x="555" y="1403" on="1"/>
        <pt x="528" y="1403" on="0"/>
        <pt x="475" y="1379" on="0"/>
        <pt x="432" y="1330" on="0"/>
        <pt x="406" y="1254" on="0"/>
        <pt x="406" y="1202" on="1"/>
        <pt x="406" y="1142" on="0"/>
        <pt x="456" y="1028" on="0"/>
        <pt x="538" y="917" on="0"/>
        <pt x="643" y="806" on="0"/>
        <pt x="752" y="693" on="0"/>
        <pt x="857" y="574" on="0"/>
        <pt x="939" y="446" on="0"/>
        <pt x="989" y="306" on="0"/>
        <pt x="989" y="229" on="1"/>
        <pt x="989" y="116" on="0"/>
        <pt x="902" y="-61" on="0"/>
        <pt x="753" y="-182" on="0"/>
        <pt x="553" y="-246" on="0"/>
        <pt x="440" y="-246" on="1"/>
        <pt x="338" y="-246" on="0"/>
        <pt x="181" y="-195" on="0"/>
        <pt x="73" y="-111" on="0"/>
        <pt x="18" y="-4" on="0"/>
        <pt x="18" y="53" on="1"/>
        <pt x="18" y="77" on="0"/>
        <pt x="33" y="132" on="0"/>
        <pt x="62" y="178" on="0"/>
        <pt x="106" y="209" on="0"/>
        <pt x="135" y="209" on="1"/>
        <pt x="165" y="209" on="0"/>
        <pt x="202" y="179" on="0"/>
        <pt x="224" y="129" on="0"/>
        <pt x="238" y="65" on="0"/>
        <pt x="254" y="-1" on="0"/>
        <pt x="278" y="-65" on="0"/>
        <pt x="320" y="-115" on="0"/>
        <pt x="386" y="-145" on="0"/>
      </contour>
    </TTGlyph>
    <TTGlyph name="Sacute" xMin="18" yMin="-246" xMax="989" yMax="1904">
      <component glyphName="S" x="0" y="0" flags="0x204"/>
      <component glyphName="acute" x="96" y="440" flags="0x4"/>
    </TTGlyph>
    <TTGlyph name="Scaron" xMin="18" yMin="-246" xMax="989" yMax="1904">
      <component glyphName="S" x="0" y="0" flags="0x204"/>
      <component glyphName="caron" x="96" y="440" flags="0x4"/>
    </TTGlyph>
    <TTGlyph name="Scedilla" xMin="18" yMin="-512" xMax="989" yMax="1495">
      <contour>
        <pt x="436" y="-45" on="1"/>
        <pt x="476" y="-45" on="0"/>
        <pt x="554" y="-17" on="0"/>
        <pt x="615" y="46" on="0"/>
        <pt x="653" y="147" on="0"/>
        <pt x="653" y="221" on="1"/>
        <pt x="653" y="280" on="0"/>
        <pt x="605" y="393" on="0"/>
        <pt x="526" y="501" on="0"/>
        <pt x="425" y="608" on="0"/>
        <pt x="320" y="715" on="0"/>
        <pt x="219" y="825" on="0"/>
        <pt x="140" y="938" on="0"/>
        <pt x="92" y="1058" on="0"/>
        <pt x="92" y="1122" on="1"/>
        <pt x="92" y="1208" on="0"/>
        <pt x="159" y="1346" on="0"/>
        <pt x="274" y="1443" on="0"/>
        <pt x="427" y="1495" on="0"/>
        <pt x="514" y="1495" on="1"/>
        <pt x="607" y="1495" on="0"/>
        <pt x="752" y="1456" on="0"/>
        <pt x="853" y="1389" on="0"/>
        <pt x="905" y="1298" on="0"/>
        <pt x="905" y="1247" on="1"/>
        <pt x="905" y="1223" on="0"/>
        <pt x="891" y="1172" on="0"/>
        <pt x="861" y="1130" on="0"/>
        <pt x="815" y="1102" on="0"/>
        <pt x="784" y="1102" on="1"/>
        <pt x="747" y="1102" on="0"/>
        <pt x="712" y="1147" on="0"/>
        <pt x="695" y="1213" on="0"/>
        <pt x="683" y="1292" on="0"/>
        <pt x="657" y="1358" on="0"/>
        <pt x="605" y="1403" on="0"/>
        <pt x="555" y="1403" on="1"/>
        <pt x="528" y="1403" on="0"/>
        <pt x="475" y="1381" on="0"/>
        <pt x="432" y="1335" on="0"/>
        <pt x="406" y="1263" on="0"/>
        <pt x="406" y="1214" on="1"/>
        <pt x="406" y="1158" on="0"/>
        <pt x="456" y="1051" on="0"/>
        <pt x="538" y="947" on="0"/>
        <pt x="643" y="843" on="0"/>
        <pt x="752" y="736" on="0"/>
        <pt x="857" y="625" on="0"/>
        <pt x="939" y="504" on="0"/>
        <pt x="989" y="374" on="0"/>
        <pt x="989" y="301" on="1"/>
        <pt x="989" y="201" on="0"/>
        <pt x="912" y="43" on="0"/>
        <pt x="778" y="-71" on="0"/>
        <pt x="599" y="-136" on="0"/>
        <pt x="496" y="-143" on="1"/>
        <pt x="487" y="-178" on="1"/>
        <pt x="550" y="-178" on="0"/>
        <pt x="644" y="-204" on="0"/>
        <pt x="706" y="-248" on="0"/>
        <pt x="737" y="-306" on="0"/>
        <pt x="737" y="-338" on="1"/>
        <pt x="737" y="-394" on="0"/>
        <pt x="688" y="-462" on="0"/>
        <pt x="611" y="-500" on="0"/>
        <pt x="519" y="-512" on="0"/>
        <pt x="477" y="-512" on="1"/>
        <pt x="436" y="-512" on="0"/>
        <pt x="364" y="-498" on="0"/>
        <pt x="305" y="-476" on="0"/>
        <pt x="259" y="-450" on="0"/>
        <pt x="244" y="-438" on="1"/>
        <pt x="262" y="-406" on="1"/>
        <pt x="302" y="-427" on="0"/>
        <pt x="390" y="-446" on="0"/>
        <pt x="432" y="-444" on="1"/>
        <pt x="497" y="-441" on="0"/>
        <pt x="578" y="-391" on="0"/>
        <pt x="578" y="-340" on="1"/>
        <pt x="578" y="-306" on="0"/>
        <pt x="548" y="-262" on="0"/>
        <pt x="499" y="-237" on="0"/>
        <pt x="437" y="-226" on="0"/>
        <pt x="406" y="-225" on="1"/>
        <pt x="426" y="-145" on="1"/>
        <pt x="327" y="-143" on="0"/>
        <pt x="175" y="-91" on="0"/>
        <pt x="71" y="-8" on="0"/>
        <pt x="18" y="98" on="0"/>
        <pt x="18" y="154" on="1"/>
        <pt x="18" y="178" on="0"/>
        <pt x="33" y="232" on="0"/>
        <pt x="62" y="278" on="0"/>
        <pt x="106" y="309" on="0"/>
        <pt x="135" y="309" on="1"/>
        <pt x="165" y="309" on="0"/>
        <pt x="202" y="279" on="0"/>
        <pt x="224" y="229" on="0"/>
        <pt x="238" y="165" on="0"/>
        <pt x="254" y="99" on="0"/>
        <pt x="278" y="35" on="0"/>
        <pt x="320" y="-15" on="0"/>
        <pt x="386" y="-45" on="0"/>
      </contour>
    </TTGlyph>
    <TTGlyph name="Scircumflex" xMin="18" yMin="-246" xMax="989" yMax="1904">
      <component glyphName="S" x="0" y="0" flags="0x204"/>
      <component glyphName="circumflex" x="96" y="440" flags="0x4"/>
    </TTGlyph>
    <TTGlyph name="T" xMin="0" yMin="-16" xMax="1356" yMax="1495">
      <contour>
        <pt x="748" y="-16" on="1"/>
        <pt x="664" y="-16" on="0"/>
        <pt x="584" y="54" on="0"/>
        <pt x="584" y="131" on="1"/>
        <pt x="584" y="1401" on="1"/>
        <pt x="552" y="1398" on="0"/>
        <pt x="457" y="1381" on="0"/>
        <pt x="353" y="1349" on="0"/>
        <pt x="249" y="1304" on="0"/>
        <pt x="167" y="1245" on="0"/>
        <pt x="115" y="1171" on="0"/>
        <pt x="115" y="1126" on="1"/>
        <pt x="115" y="1094" on="0"/>
        <pt x="132" y="1056" on="0"/>
        <pt x="154" y="1037" on="0"/>
        <pt x="177" y="1032" on="0"/>
        <pt x="182" y="1032" on="1"/>
        <pt x="207" y="1032" on="0"/>
        <pt x="239" y="1049" on="0"/>
        <pt x="265" y="1068" on="0"/>
        <pt x="288" y="1085" on="0"/>
        <pt x="303" y="1085" on="1"/>
        <pt x="315" y="1085" on="0"/>
        <pt x="342" y="1074" on="0"/>
        <pt x="365" y="1050" on="0"/>
        <pt x="381" y="1011" on="0"/>
        <pt x="381" y="983" on="1"/>
        <pt x="381" y="943" on="0"/>
        <pt x="350" y="885" on="0"/>
        <pt x="301" y="846" on="0"/>
        <pt x="238" y="827" on="0"/>
        <pt x="207" y="827" on="1"/>
        <pt x="159" y="827" on="0"/>
        <pt x="82" y="860" on="0"/>
        <pt x="28" y="918" on="0"/>
        <pt x="0" y="996" on="0"/>
        <pt x="0" y="1040" on="1"/>
        <pt x="0" y="1157" on="0"/>
        <pt x="129" y="1328" on="0"/>
        <pt x="353" y="1441" on="0"/>
        <pt x="651" y="1495" on="0"/>
        <pt x="821" y="1495" on="1"/>
        <pt x="902" y="1495" on="0"/>
        <pt x="1056" y="1492" on="0"/>
        <pt x="1183" y="1486" on="0"/>
        <pt x="1275" y="1478" on="0"/>
        <pt x="1296" y="1473" on="1"/>
        <pt x="1316" y="1468" on="0"/>
        <pt x="1340" y="1449" on="0"/>
        <pt x="1352" y="1425" on="0"/>
        <pt x="1356" y="1398" on="0"/>
        <pt x="1356" y="1384" on="1"/>
        <pt x="1356" y="1373" on="0"/>
        <pt x="1350" y="1344" on="0"/>
        <pt x="1338" y="1318" on="0"/>
        <pt x="1320" y="1300" on="0"/>
        <pt x="1307" y="1300" on="1"/>
        <pt x="1299" y="1300" on="0"/>
        <pt x="1282" y="1314" on="0"/>
        <pt x="1252" y="1334" on="0"/>
        <pt x="1201" y="1360" on="0"/>
        <pt x="1118" y="1382" on="0"/>
        <pt x="997" y="1400" on="0"/>
        <pt x="911" y="1403" on="1"/>
        <pt x="911" y="131" on="1"/>
        <pt x="911" y="54" on="0"/>
        <pt x="831" y="-16" on="0"/>
      </contour>
    </TTGlyph>
    <TTGlyph name="Tbar" xMin="0" yMin="-16" xMax="1356" yMax="1495">
      <contour>
        <pt x="1083" y="965" on="1"/>
        <pt x="911" y="965" on="1"/>
        <pt x="911" y="131" on="1"/>
        <pt x="911" y="54" on="0"/>
        <pt x="831" y="-16" on="0"/>
        <pt x="748" y="-16" on="1"/>
        <pt x="664" y="-16" on="0"/>
        <pt x="584" y="54" on="0"/>
        <pt x="584" y="131" on="1"/>
        <pt x="584" y="965" on="1"/>
        <pt x="416" y="965" on="1"/>
        <pt x="416" y="1053" on="1"/>
        <pt x="584" y="1053" on="1"/>
        <pt x="584" y="1401" on="1"/>
        <pt x="567" y="1399" on="0"/>
        <pt x="533" y="1396" on="0"/>
        <pt x="516" y="1393" on="1"/>
        <pt x="484" y="1387" on="0"/>
        <pt x="399" y="1365" on="0"/>
        <pt x="310" y="1332" on="0"/>
        <pt x="224" y="1289" on="0"/>
        <pt x="156" y="1234" on="0"/>
        <pt x="115" y="1166" on="0"/>
        <pt x="115" y="1126" on="1"/>
        <pt x="115" y="1094" on="0"/>
        <pt x="132" y="1056" on="0"/>
        <pt x="154" y="1037" on="0"/>
        <pt x="177" y="1032" on="0"/>
        <pt x="182" y="1032" on="1"/>
        <pt x="207" y="1032" on="0"/>
        <pt x="239" y="1049" on="0"/>
        <pt x="265" y="1068" on="0"/>
        <pt x="288" y="1085" on="0"/>
        <pt x="303" y="1085" on="1"/>
        <pt x="315" y="1085" on="0"/>
        <pt x="342" y="1074" on="0"/>
        <pt x="365" y="1050" on="0"/>
        <pt x="381" y="1011" on="0"/>
        <pt x="381" y="983" on="1"/>
        <pt x="381" y="943" on="0"/>
        <pt x="350" y="885" on="0"/>
        <pt x="301" y="846" on="0"/>
        <pt x="238" y="827" on="0"/>
        <pt x="207" y="827" on="1"/>
        <pt x="159" y="827" on="0"/>
        <pt x="82" y="860" on="0"/>
        <pt x="28" y="918" on="0"/>
        <pt x="0" y="996" on="0"/>
        <pt x="0" y="1040" on="1"/>
        <pt x="0" y="1157" on="0"/>
        <pt x="129" y="1328" on="0"/>
        <pt x="353" y="1441" on="0"/>
        <pt x="651" y="1495" on="0"/>
        <pt x="821" y="1495" on="1"/>
        <pt x="902" y="1495" on="0"/>
        <pt x="1056" y="1492" on="0"/>
        <pt x="1183" y="1486" on="0"/>
        <pt x="1275" y="1478" on="0"/>
        <pt x="1296" y="1473" on="1"/>
        <pt x="1316" y="1468" on="0"/>
        <pt x="1340" y="1449" on="0"/>
        <pt x="1352" y="1425" on="0"/>
        <pt x="1356" y="1398" on="0"/>
        <pt x="1356" y="1384" on="1"/>
        <pt x="1356" y="1373" on="0"/>
        <pt x="1350" y="1344" on="0"/>
        <pt x="1338" y="1318" on="0"/>
        <pt x="1320" y="1300" on="0"/>
        <pt x="1307" y="1300" on="1"/>
        <pt x="1299" y="1300" on="0"/>
        <pt x="1282" y="1314" on="0"/>
        <pt x="1252" y="1334" on="0"/>
        <pt x="1201" y="1360" on="0"/>
        <pt x="1118" y="1382" on="0"/>
        <pt x="997" y="1400" on="0"/>
        <pt x="911" y="1403" on="1"/>
        <pt x="911" y="1053" on="1"/>
        <pt x="1083" y="1053" on="1"/>
      </contour>
    </TTGlyph>
    <TTGlyph name="Tcaron" xMin="0" yMin="-16" xMax="1356" yMax="1904">
      <component glyphName="T" x="0" y="0" flags="0x204"/>
      <component glyphName="caron" x="342" y="440" flags="0x4"/>
    </TTGlyph>
    <TTGlyph name="Tcommaaccent" xMin="0" yMin="-477" xMax="1356" yMax="1495">
      <component glyphName="T" x="0" y="0" flags="0x204"/>
      <component glyphName="commaaccent" x="330" y="0" flags="0x4"/>
    </TTGlyph>
    <TTGlyph name="Thorn" xMin="0" yMin="-16" xMax="1442" yMax="1495">
      <contour>
        <pt x="836" y="131" on="1"/>
        <pt x="836" y="54" on="0"/>
        <pt x="755" y="-16" on="0"/>
        <pt x="672" y="-16" on="1"/>
        <pt x="588" y="-16" on="0"/>
        <pt x="508" y="54" on="0"/>
        <pt x="508" y="131" on="1"/>
        <pt x="508" y="1040" on="1"/>
        <pt x="508" y="1096" on="0"/>
        <pt x="432" y="1096" on="1"/>
        <pt x="377" y="1096" on="0"/>
        <pt x="264" y="1063" on="0"/>
        <pt x="173" y="1006" on="0"/>
        <pt x="115" y="927" on="0"/>
        <pt x="115" y="881" on="1"/>
        <pt x="115" y="849" on="0"/>
        <pt x="132" y="811" on="0"/>
        <pt x="154" y="791" on="0"/>
        <pt x="177" y="786" on="0"/>
        <pt x="182" y="786" on="1"/>
        <pt x="207" y="786" on="0"/>
        <pt x="239" y="803" on="0"/>
        <pt x="265" y="823" on="0"/>
        <pt x="288" y="840" on="0"/>
        <pt x="303" y="840" on="1"/>
        <pt x="315" y="840" on="0"/>
        <pt x="342" y="829" on="0"/>
        <pt x="365" y="805" on="0"/>
        <pt x="381" y="765" on="0"/>
        <pt x="381" y="737" on="1"/>
        <pt x="381" y="697" on="0"/>
        <pt x="350" y="639" on="0"/>
        <pt x="301" y="601" on="0"/>
        <pt x="238" y="582" on="0"/>
        <pt x="207" y="582" on="1"/>
        <pt x="159" y="582" on="0"/>
        <pt x="82" y="615" on="0"/>
        <pt x="28" y="673" on="0"/>
        <pt x="0" y="750" on="0"/>
        <pt x="0" y="795" on="1"/>
        <pt x="0" y="886" on="0"/>
        <pt x="75" y="1020" on="0"/>
        <pt x="209" y="1114" on="0"/>
        <pt x="396" y="1173" on="0"/>
        <pt x="508" y="1188" on="1"/>
        <pt x="508" y="1327" on="1"/>
        <pt x="508" y="1356" on="0"/>
        <pt x="483" y="1391" on="0"/>
        <pt x="457" y="1391" on="1"/>
        <pt x="429" y="1391" on="0"/>
        <pt x="381" y="1371" on="0"/>
        <pt x="362" y="1362" on="1"/>
        <pt x="346" y="1399" on="1"/>
        <pt x="371" y="1412" on="0"/>
        <pt x="444" y="1445" on="0"/>
        <pt x="526" y="1475" on="0"/>
        <pt x="611" y="1495" on="0"/>
        <pt x="649" y="1495" on="1"/>
        <pt x="717" y="1495" on="0"/>
        <pt x="793" y="1460" on="0"/>
        <pt x="829" y="1409" on="0"/>
        <pt x="836" y="1351" on="0"/>
        <pt x="836" y="1329" on="1"/>
        <pt x="836" y="1208" on="1"/>
        <pt x="862" y="1208" on="1"/>
        <pt x="1148" y="1208" on="0"/>
        <pt x="1442" y="990" on="0"/>
        <pt x="1442" y="784" on="1"/>
        <pt x="1442" y="684" on="0"/>
        <pt x="1389" y="530" on="0"/>
        <pt x="1300" y="419" on="0"/>
        <pt x="1184" y="350" on="0"/>
        <pt x="1060" y="320" on="0"/>
        <pt x="935" y="326" on="0"/>
        <pt x="881" y="346" on="1"/>
        <pt x="895" y="389" on="1"/>
        <pt x="970" y="366" on="0"/>
        <pt x="1067" y="409" on="0"/>
        <pt x="1122" y="520" on="0"/>
        <pt x="1143" y="687" on="0"/>
        <pt x="1143" y="788" on="1"/>
        <pt x="1143" y="864" on="0"/>
        <pt x="1111" y="989" on="0"/>
        <pt x="1056" y="1077" on="0"/>
        <pt x="983" y="1126" on="0"/>
        <pt x="942" y="1126" on="1"/>
        <pt x="910" y="1126" on="0"/>
        <pt x="869" y="1107" on="0"/>
        <pt x="846" y="1078" on="0"/>
        <pt x="837" y="1045" on="0"/>
        <pt x="836" y="1030" on="1"/>
      </contour>
    </TTGlyph>
    <TTGlyph name="U" xMin="0" yMin="-16" xMax="1714" yMax="1495">
      <contour>
        <pt x="1411" y="-16" on="1"/>
        <pt x="1360" y="-16" on="0"/>
        <pt x="1294" y="3" on="0"/>
        <pt x="1253" y="35" on="0"/>
        <pt x="1233" y="74" on="0"/>
        <pt x="1229" y="94" on="1"/>
        <pt x="1166" y="48" on="0"/>
        <pt x="1002" y="-16" on="0"/>
        <pt x="899" y="-16" on="1"/>
        <pt x="807" y="-16" on="0"/>
        <pt x="650" y="36" on="0"/>
        <pt x="533" y="145" on="0"/>
        <pt x="467" y="316" on="0"/>
        <pt x="467" y="436" on="1"/>
        <pt x="467" y="524" on="0"/>
        <pt x="473" y="664" on="0"/>
        <pt x="482" y="787" on="0"/>
        <pt x="493" y="901" on="0"/>
        <pt x="502" y="1025" on="0"/>
        <pt x="508" y="1167" on="0"/>
        <pt x="508" y="1257" on="1"/>
        <pt x="508" y="1285" on="0"/>
        <pt x="497" y="1336" on="0"/>
        <pt x="472" y="1375" on="0"/>
        <pt x="428" y="1399" on="0"/>
        <pt x="395" y="1399" on="1"/>
        <pt x="363" y="1399" on="0"/>
        <pt x="267" y="1368" on="0"/>
        <pt x="178" y="1309" on="0"/>
        <pt x="115" y="1222" on="0"/>
        <pt x="115" y="1167" on="1"/>
        <pt x="115" y="1135" on="0"/>
        <pt x="132" y="1097" on="0"/>
        <pt x="154" y="1078" on="0"/>
        <pt x="177" y="1073" on="0"/>
        <pt x="182" y="1073" on="1"/>
        <pt x="207" y="1073" on="0"/>
        <pt x="239" y="1090" on="0"/>
        <pt x="265" y="1109" on="0"/>
        <pt x="288" y="1126" on="0"/>
        <pt x="303" y="1126" on="1"/>
        <pt x="315" y="1126" on="0"/>
        <pt x="342" y="1115" on="0"/>
        <pt x="365" y="1091" on="0"/>
        <pt x="381" y="1052" on="0"/>
        <pt x="381" y="1024" on="1"/>
        <pt x="381" y="984" on="0"/>
        <pt x="350" y="926" on="0"/>
        <pt x="301" y="887" on="0"/>
        <pt x="238" y="868" on="0"/>
        <pt x="207" y="868" on="1"/>
        <pt x="159" y="868" on="0"/>
        <pt x="82" y="901" on="0"/>
        <pt x="28" y="959" on="0"/>
        <pt x="0" y="1037" on="0"/>
        <pt x="0" y="1081" on="1"/>
        <pt x="0" y="1150" on="0"/>
        <pt x="46" y="1265" on="0"/>
        <pt x="126" y="1357" on="0"/>
        <pt x="231" y="1426" on="0"/>
        <pt x="351" y="1472" on="0"/>
        <pt x="477" y="1495" on="0"/>
        <pt x="537" y="1495" on="1"/>
        <pt x="606" y="1495" on="0"/>
        <pt x="703" y="1466" on="0"/>
        <pt x="770" y="1420" on="0"/>
        <pt x="809" y="1364" on="0"/>
        <pt x="830" y="1311" on="0"/>
        <pt x="836" y="1268" on="0"/>
        <pt x="836" y="1257" on="1"/>
        <pt x="836" y="1176" on="0"/>
        <pt x="830" y="1041" on="0"/>
        <pt x="821" y="917" on="0"/>
        <pt x="810" y="798" on="0"/>
        <pt x="801" y="669" on="0"/>
        <pt x="795" y="524" on="0"/>
        <pt x="795" y="436" on="1"/>
        <pt x="795" y="327" on="0"/>
        <pt x="838" y="194" on="0"/>
        <pt x="902" y="122" on="0"/>
        <pt x="975" y="98" on="0"/>
        <pt x="1004" y="98" on="1"/>
        <pt x="1059" y="98" on="0"/>
        <pt x="1172" y="134" on="0"/>
        <pt x="1225" y="168" on="1"/>
        <pt x="1225" y="1327" on="1"/>
        <pt x="1225" y="1356" on="0"/>
        <pt x="1200" y="1391" on="0"/>
        <pt x="1174" y="1391" on="1"/>
        <pt x="1146" y="1391" on="0"/>
        <pt x="1098" y="1371" on="0"/>
        <pt x="1079" y="1362" on="1"/>
        <pt x="1063" y="1399" on="1"/>
        <pt x="1088" y="1412" on="0"/>
        <pt x="1160" y="1445" on="0"/>
        <pt x="1242" y="1475" on="0"/>
        <pt x="1328" y="1495" on="0"/>
        <pt x="1366" y="1495" on="1"/>
        <pt x="1434" y="1495" on="0"/>
        <pt x="1509" y="1460" on="0"/>
        <pt x="1545" y="1409" on="0"/>
        <pt x="1552" y="1351" on="0"/>
        <pt x="1552" y="1329" on="1"/>
        <pt x="1552" y="152" on="1"/>
        <pt x="1552" y="123" on="0"/>
        <pt x="1578" y="88" on="0"/>
        <pt x="1604" y="88" on="1"/>
        <pt x="1631" y="88" on="0"/>
        <pt x="1679" y="107" on="0"/>
        <pt x="1698" y="117" on="1"/>
        <pt x="1714" y="80" on="1"/>
        <pt x="1689" y="67" on="0"/>
        <pt x="1617" y="34" on="0"/>
        <pt x="1535" y="4" on="0"/>
        <pt x="1449" y="-16" on="0"/>
      </contour>
    </TTGlyph>
    <TTGlyph name="Uacute" xMin="0" yMin="-16" xMax="1714" yMax="1904">
      <component glyphName="U" x="0" y="0" flags="0x204"/>
      <component glyphName="acute" x="559" y="440" flags="0x4"/>
    </TTGlyph>
    <TTGlyph name="Ubreve" xMin="0" yMin="-16" xMax="1714" yMax="1878">
      <component glyphName="U" x="0" y="0" flags="0x204"/>
      <component glyphName="breve" x="559" y="440" flags="0x4"/>
    </TTGlyph>
    <TTGlyph name="Ucircumflex" xMin="0" yMin="-16" xMax="1714" yMax="1904">
      <component glyphName="U" x="0" y="0" flags="0x204"/>
      <component glyphName="circumflex" x="559" y="440" flags="0x4"/>
    </TTGlyph>
    <TTGlyph name="Udieresis" xMin="0" yMin="-16" xMax="1714" yMax="1859">
      <component glyphName="U" x="0" y="0" flags="0x204"/>
      <component glyphName="dieresis" x="559" y="440" flags="0x4"/>
    </TTGlyph>
    <TTGlyph name="Ugrave" xMin="0" yMin="-16" xMax="1714" yMax="1904">
      <component glyphName="U" x="0" y="0" flags="0x204"/>
      <component glyphName="grave" x="559" y="440" flags="0x4"/>
    </TTGlyph>
    <TTGlyph name="Uhungarumlaut" xMin="0" yMin="-16" xMax="1714" yMax="1904">
      <component glyphName="U" x="0" y="0" flags="0x204"/>
      <component glyphName="hungarumlaut" x="578" y="440" flags="0x4"/>
    </TTGlyph>
    <TTGlyph name="Umacron" xMin="0" yMin="-16" xMax="1714" yMax="1822">
      <component glyphName="U" x="0" y="0" flags="0x204"/>
      <component glyphName="macron" x="559" y="440" flags="0x4"/>
    </TTGlyph>
    <TTGlyph name="Uogonek" xMin="0" yMin="-408" xMax="1714" yMax="1495">
      <contour>
        <pt x="1407" y="-16" on="1"/>
        <pt x="1358" y="-15" on="0"/>
        <pt x="1293" y="4" on="0"/>
        <pt x="1252" y="35" on="0"/>
        <pt x="1233" y="74" on="0"/>
        <pt x="1229" y="94" on="1"/>
        <pt x="1166" y="48" on="0"/>
        <pt x="1002" y="-16" on="0"/>
        <pt x="899" y="-16" on="1"/>
        <pt x="807" y="-16" on="0"/>
        <pt x="650" y="36" on="0"/>
        <pt x="533" y="145" on="0"/>
        <pt x="467" y="316" on="0"/>
        <pt x="467" y="436" on="1"/>
        <pt x="467" y="524" on="0"/>
        <pt x="473" y="664" on="0"/>
        <pt x="482" y="787" on="0"/>
        <pt x="493" y="901" on="0"/>
        <pt x="502" y="1025" on="0"/>
        <pt x="508" y="1167" on="0"/>
        <pt x="508" y="1257" on="1"/>
        <pt x="508" y="1285" on="0"/>
        <pt x="497" y="1336" on="0"/>
        <pt x="472" y="1375" on="0"/>
        <pt x="428" y="1399" on="0"/>
        <pt x="395" y="1399" on="1"/>
        <pt x="363" y="1399" on="0"/>
        <pt x="267" y="1368" on="0"/>
        <pt x="178" y="1309" on="0"/>
        <pt x="115" y="1222" on="0"/>
        <pt x="115" y="1167" on="1"/>
        <pt x="115" y="1135" on="0"/>
        <pt x="132" y="1097" on="0"/>
        <pt x="154" y="1078" on="0"/>
        <pt x="177" y="1073" on="0"/>
        <pt x="182" y="1073" on="1"/>
        <pt x="207" y="1073" on="0"/>
        <pt x="239" y="1090" on="0"/>
        <pt x="265" y="1109" on="0"/>
        <pt x="288" y="1126" on="0"/>
        <pt x="303" y="1126" on="1"/>
        <pt x="315" y="1126" on="0"/>
        <pt x="342" y="1115" on="0"/>
        <pt x="365" y="1091" on="0"/>
        <pt x="381" y="1052" on="0"/>
        <pt x="381" y="1024" on="1"/>
        <pt x="381" y="984" on="0"/>
        <pt x="350" y="926" on="0"/>
        <pt x="301" y="887" on="0"/>
        <pt x="238" y="868" on="0"/>
        <pt x="207" y="868" on="1"/>
        <pt x="159" y="868" on="0"/>
        <pt x="82" y="901" on="0"/>
        <pt x="28" y="959" on="0"/>
        <pt x="0" y="1037" on="0"/>
        <pt x="0" y="1081" on="1"/>
        <pt x="0" y="1150" on="0"/>
        <pt x="46" y="1265" on="0"/>
        <pt x="126" y="1357" on="0"/>
        <pt x="231" y="1426" on="0"/>
        <pt x="351" y="1472" on="0"/>
        <pt x="477" y="1495" on="0"/>
        <pt x="537" y="1495" on="1"/>
        <pt x="606" y="1495" on="0"/>
        <pt x="703" y="1466" on="0"/>
        <pt x="770" y="1420" on="0"/>
        <pt x="809" y="1364" on="0"/>
        <pt x="830" y="1311" on="0"/>
        <pt x="836" y="1268" on="0"/>
        <pt x="836" y="1257" on="1"/>
        <pt x="836" y="1176" on="0"/>
        <pt x="830" y="1041" on="0"/>
        <pt x="821" y="917" on="0"/>
        <pt x="810" y="798" on="0"/>
        <pt x="801" y="669" on="0"/>
        <pt x="795" y="524" on="0"/>
        <pt x="795" y="436" on="1"/>
        <pt x="795" y="327" on="0"/>
        <pt x="838" y="194" on="0"/>
        <pt x="902" y="122" on="0"/>
        <pt x="975" y="98" on="0"/>
        <pt x="1004" y="98" on="1"/>
        <pt x="1059" y="98" on="0"/>
        <pt x="1172" y="134" on="0"/>
        <pt x="1225" y="168" on="1"/>
        <pt x="1225" y="1327" on="1"/>
        <pt x="1225" y="1356" on="0"/>
        <pt x="1200" y="1391" on="0"/>
        <pt x="1174" y="1391" on="1"/>
        <pt x="1146" y="1391" on="0"/>
        <pt x="1098" y="1371" on="0"/>
        <pt x="1079" y="1362" on="1"/>
        <pt x="1063" y="1399" on="1"/>
        <pt x="1088" y="1412" on="0"/>
        <pt x="1160" y="1445" on="0"/>
        <pt x="1242" y="1475" on="0"/>
        <pt x="1328" y="1495" on="0"/>
        <pt x="1366" y="1495" on="1"/>
        <pt x="1434" y="1495" on="0"/>
        <pt x="1509" y="1460" on="0"/>
        <pt x="1545" y="1409" on="0"/>
        <pt x="1552" y="1351" on="0"/>
        <pt x="1552" y="1329" on="1"/>
        <pt x="1552" y="152" on="1"/>
        <pt x="1552" y="123" on="0"/>
        <pt x="1578" y="88" on="0"/>
        <pt x="1604" y="88" on="1"/>
        <pt x="1631" y="88" on="0"/>
        <pt x="1679" y="107" on="0"/>
        <pt x="1698" y="117" on="1"/>
        <pt x="1714" y="80" on="1"/>
        <pt x="1671" y="56" on="0"/>
        <pt x="1565" y="7" on="0"/>
        <pt x="1473" y="-57" on="0"/>
        <pt x="1411" y="-147" on="0"/>
        <pt x="1411" y="-211" on="1"/>
        <pt x="1411" y="-270" on="0"/>
        <pt x="1483" y="-332" on="0"/>
        <pt x="1548" y="-332" on="1"/>
        <pt x="1601" y="-332" on="0"/>
        <pt x="1676" y="-310" on="0"/>
        <pt x="1698" y="-301" on="1"/>
        <pt x="1714" y="-338" on="1"/>
        <pt x="1698" y="-348" on="0"/>
        <pt x="1649" y="-373" on="0"/>
        <pt x="1586" y="-394" on="0"/>
        <pt x="1512" y="-408" on="0"/>
        <pt x="1470" y="-408" on="1"/>
        <pt x="1373" y="-408" on="0"/>
        <pt x="1257" y="-326" on="0"/>
        <pt x="1257" y="-248" on="1"/>
        <pt x="1257" y="-172" on="0"/>
        <pt x="1341" y="-61" on="0"/>
      </contour>
    </TTGlyph>
    <TTGlyph name="Uring" xMin="0" yMin="-16" xMax="1714" yMax="2007">
      <component glyphName="U" x="0" y="0" flags="0x204"/>
      <component glyphName="ring" x="559" y="440" flags="0x4"/>
    </TTGlyph>
    <TTGlyph name="Utilde" xMin="0" yMin="-16" xMax="1714" yMax="1878">
      <component glyphName="U" x="0" y="0" flags="0x204"/>
      <component glyphName="tilde" x="559" y="440" flags="0x4"/>
    </TTGlyph>
    <TTGlyph name="V" xMin="0" yMin="-16" xMax="1513" yMax="1556">
      <contour>
        <pt x="1110" y="344" on="1"/>
        <pt x="1146" y="437" on="0"/>
        <pt x="1226" y="666" on="0"/>
        <pt x="1293" y="901" on="0"/>
        <pt x="1337" y="1123" on="0"/>
        <pt x="1337" y="1210" on="1"/>
        <pt x="1337" y="1276" on="0"/>
        <pt x="1319" y="1364" on="0"/>
        <pt x="1296" y="1423" on="0"/>
        <pt x="1278" y="1461" on="0"/>
        <pt x="1278" y="1477" on="1"/>
        <pt x="1278" y="1498" on="0"/>
        <pt x="1301" y="1527" on="0"/>
        <pt x="1335" y="1547" on="0"/>
        <pt x="1375" y="1556" on="0"/>
        <pt x="1393" y="1556" on="1"/>
        <pt x="1433" y="1556" on="0"/>
        <pt x="1488" y="1532" on="0"/>
        <pt x="1499" y="1503" on="1"/>
        <pt x="1504" y="1488" on="0"/>
        <pt x="1510" y="1455" on="0"/>
        <pt x="1513" y="1424" on="0"/>
        <pt x="1513" y="1397" on="0"/>
        <pt x="1513" y="1389" on="1"/>
        <pt x="1513" y="1347" on="0"/>
        <pt x="1485" y="1201" on="0"/>
        <pt x="1438" y="1017" on="0"/>
        <pt x="1376" y="807" on="0"/>
        <pt x="1310" y="594" on="0"/>
        <pt x="1242" y="390" on="0"/>
        <pt x="1182" y="217" on="0"/>
        <pt x="1135" y="87" on="0"/>
        <pt x="1122" y="55" on="1"/>
        <pt x="1113" y="32" on="0"/>
        <pt x="1086" y="4" on="0"/>
        <pt x="1052" y="-11" on="0"/>
        <pt x="1011" y="-16" on="0"/>
        <pt x="989" y="-16" on="1"/>
        <pt x="949" y="-16" on="0"/>
        <pt x="899" y="0" on="0"/>
        <pt x="868" y="24" on="0"/>
        <pt x="854" y="52" on="0"/>
        <pt x="850" y="63" on="1"/>
        <pt x="471" y="1253" on="1"/>
        <pt x="460" y="1287" on="0"/>
        <pt x="437" y="1334" on="0"/>
        <pt x="404" y="1364" on="0"/>
        <pt x="358" y="1378" on="0"/>
        <pt x="324" y="1378" on="1"/>
        <pt x="296" y="1378" on="0"/>
        <pt x="222" y="1351" on="0"/>
        <pt x="155" y="1298" on="0"/>
        <pt x="109" y="1219" on="0"/>
        <pt x="109" y="1167" on="1"/>
        <pt x="109" y="1135" on="0"/>
        <pt x="126" y="1097" on="0"/>
        <pt x="148" y="1078" on="0"/>
        <pt x="171" y="1073" on="0"/>
        <pt x="176" y="1073" on="1"/>
        <pt x="201" y="1073" on="0"/>
        <pt x="233" y="1090" on="0"/>
        <pt x="259" y="1109" on="0"/>
        <pt x="282" y="1126" on="0"/>
        <pt x="297" y="1126" on="1"/>
        <pt x="309" y="1126" on="0"/>
        <pt x="336" y="1115" on="0"/>
        <pt x="359" y="1091" on="0"/>
        <pt x="375" y="1052" on="0"/>
        <pt x="375" y="1024" on="1"/>
        <pt x="375" y="984" on="0"/>
        <pt x="344" y="926" on="0"/>
        <pt x="295" y="887" on="0"/>
        <pt x="232" y="868" on="0"/>
        <pt x="201" y="868" on="1"/>
        <pt x="153" y="868" on="0"/>
        <pt x="78" y="902" on="0"/>
        <pt x="27" y="960" on="0"/>
        <pt x="0" y="1037" on="0"/>
        <pt x="0" y="1081" on="1"/>
        <pt x="0" y="1185" on="0"/>
        <pt x="80" y="1340" on="0"/>
        <pt x="212" y="1444" on="0"/>
        <pt x="380" y="1495" on="0"/>
        <pt x="469" y="1495" on="1"/>
        <pt x="569" y="1495" on="0"/>
        <pt x="697" y="1434" on="0"/>
        <pt x="776" y="1338" on="0"/>
        <pt x="822" y="1219" on="0"/>
        <pt x="840" y="1161" on="1"/>
      </contour>
    </TTGlyph>
    <TTGlyph name="W" xMin="0" yMin="-16" xMax="2177" yMax="1556">
      <contour>
        <pt x="1090" y="350" on="1"/>
        <pt x="1112" y="409" on="0"/>
        <pt x="1160" y="545" on="0"/>
        <pt x="1206" y="690" on="0"/>
        <pt x="1249" y="839" on="0"/>
        <pt x="1266" y="911" on="1"/>
        <pt x="1169" y="1229" on="1"/>
        <pt x="1159" y="1262" on="0"/>
        <pt x="1182" y="1311" on="0"/>
        <pt x="1232" y="1344" on="0"/>
        <pt x="1301" y="1360" on="0"/>
        <pt x="1339" y="1360" on="1"/>
        <pt x="1372" y="1360" on="0"/>
        <pt x="1424" y="1353" on="0"/>
        <pt x="1463" y="1335" on="0"/>
        <pt x="1489" y="1302" on="0"/>
        <pt x="1497" y="1276" on="1"/>
        <pt x="1784" y="352" on="1"/>
        <pt x="1807" y="414" on="0"/>
        <pt x="1857" y="558" on="0"/>
        <pt x="1905" y="710" on="0"/>
        <pt x="1949" y="866" on="0"/>
        <pt x="1982" y="1016" on="0"/>
        <pt x="2001" y="1153" on="0"/>
        <pt x="2001" y="1210" on="1"/>
        <pt x="2001" y="1276" on="0"/>
        <pt x="1983" y="1364" on="0"/>
        <pt x="1960" y="1423" on="0"/>
        <pt x="1942" y="1461" on="0"/>
        <pt x="1942" y="1477" on="1"/>
        <pt x="1942" y="1498" on="0"/>
        <pt x="1964" y="1527" on="0"/>
        <pt x="1998" y="1547" on="0"/>
        <pt x="2038" y="1556" on="0"/>
        <pt x="2056" y="1556" on="1"/>
        <pt x="2096" y="1556" on="0"/>
        <pt x="2152" y="1532" on="0"/>
        <pt x="2163" y="1503" on="1"/>
        <pt x="2168" y="1488" on="0"/>
        <pt x="2174" y="1455" on="0"/>
        <pt x="2177" y="1424" on="0"/>
        <pt x="2177" y="1397" on="0"/>
        <pt x="2177" y="1389" on="1"/>
        <pt x="2177" y="1347" on="0"/>
        <pt x="2150" y="1201" on="0"/>
        <pt x="2103" y="1018" on="0"/>
        <pt x="2043" y="808" on="0"/>
        <pt x="1978" y="595" on="0"/>
        <pt x="1912" y="391" on="0"/>
        <pt x="1853" y="218" on="0"/>
        <pt x="1808" y="87" on="0"/>
        <pt x="1796" y="55" on="1"/>
        <pt x="1788" y="31" on="0"/>
        <pt x="1761" y="3" on="0"/>
        <pt x="1726" y="-12" on="0"/>
        <pt x="1685" y="-16" on="0"/>
        <pt x="1663" y="-16" on="1"/>
        <pt x="1623" y="-16" on="0"/>
        <pt x="1572" y="0" on="0"/>
        <pt x="1542" y="24" on="0"/>
        <pt x="1528" y="52" on="0"/>
        <pt x="1524" y="63" on="1"/>
        <pt x="1325" y="717" on="1"/>
        <pt x="1292" y="608" on="0"/>
        <pt x="1224" y="397" on="0"/>
        <pt x="1163" y="219" on="0"/>
        <pt x="1115" y="86" on="0"/>
        <pt x="1102" y="55" on="1"/>
        <pt x="1092" y="31" on="0"/>
        <pt x="1063" y="3" on="0"/>
        <pt x="1028" y="-12" on="0"/>
        <pt x="988" y="-16" on="0"/>
        <pt x="967" y="-16" on="1"/>
        <pt x="927" y="-16" on="0"/>
        <pt x="876" y="0" on="0"/>
        <pt x="846" y="24" on="0"/>
        <pt x="831" y="52" on="0"/>
        <pt x="827" y="63" on="1"/>
        <pt x="471" y="1253" on="1"/>
        <pt x="461" y="1287" on="0"/>
        <pt x="438" y="1334" on="0"/>
        <pt x="405" y="1364" on="0"/>
        <pt x="358" y="1378" on="0"/>
        <pt x="324" y="1378" on="1"/>
        <pt x="296" y="1378" on="0"/>
        <pt x="222" y="1351" on="0"/>
        <pt x="155" y="1298" on="0"/>
        <pt x="109" y="1219" on="0"/>
        <pt x="109" y="1167" on="1"/>
        <pt x="109" y="1135" on="0"/>
        <pt x="126" y="1097" on="0"/>
        <pt x="148" y="1078" on="0"/>
        <pt x="171" y="1073" on="0"/>
        <pt x="176" y="1073" on="1"/>
        <pt x="201" y="1073" on="0"/>
        <pt x="233" y="1090" on="0"/>
        <pt x="259" y="1109" on="0"/>
        <pt x="282" y="1126" on="0"/>
        <pt x="297" y="1126" on="1"/>
        <pt x="309" y="1126" on="0"/>
        <pt x="336" y="1115" on="0"/>
        <pt x="359" y="1091" on="0"/>
        <pt x="375" y="1052" on="0"/>
        <pt x="375" y="1024" on="1"/>
        <pt x="375" y="984" on="0"/>
        <pt x="344" y="926" on="0"/>
        <pt x="295" y="887" on="0"/>
        <pt x="232" y="868" on="0"/>
        <pt x="201" y="868" on="1"/>
        <pt x="153" y="868" on="0"/>
        <pt x="78" y="902" on="0"/>
        <pt x="27" y="960" on="0"/>
        <pt x="0" y="1037" on="0"/>
        <pt x="0" y="1081" on="1"/>
        <pt x="0" y="1185" on="0"/>
        <pt x="80" y="1340" on="0"/>
        <pt x="212" y="1444" on="0"/>
        <pt x="380" y="1495" on="0"/>
        <pt x="469" y="1495" on="1"/>
        <pt x="569" y="1495" on="0"/>
        <pt x="697" y="1434" on="0"/>
        <pt x="776" y="1338" on="0"/>
        <pt x="822" y="1219" on="0"/>
        <pt x="840" y="1161" on="1"/>
      </contour>
    </TTGlyph>
    <TTGlyph name="Wacute" xMin="0" yMin="-16" xMax="2177" yMax="1802">
      <component glyphName="W" x="0" y="0" flags="0x204"/>
      <component glyphName="acute" x="877" y="338" flags="0x4"/>
    </TTGlyph>
    <TTGlyph name="Wcircumflex" xMin="0" yMin="-16" xMax="2177" yMax="1802">
      <component glyphName="W" x="0" y="0" flags="0x204"/>
      <component glyphName="circumflex" x="877" y="338" flags="0x4"/>
    </TTGlyph>
    <TTGlyph name="Wdieresis" xMin="0" yMin="-16" xMax="2177" yMax="1757">
      <component glyphName="W" x="0" y="0" flags="0x204"/>
      <component glyphName="dieresis" x="877" y="338" flags="0x4"/>
    </TTGlyph>
    <TTGlyph name="Wgrave" xMin="0" yMin="-16" xMax="2177" yMax="1802">
      <component glyphName="W" x="0" y="0" flags="0x204"/>
      <component glyphName="grave" x="877" y="338" flags="0x4"/>
    </TTGlyph>
    <TTGlyph name="X" xMin="-61" yMin="-16" xMax="1394" yMax="1495">
      <contour>
        <pt x="741" y="1012" on="1"/>
        <pt x="766" y="1114" on="0"/>
        <pt x="837" y="1290" on="0"/>
        <pt x="933" y="1421" on="0"/>
        <pt x="1060" y="1495" on="0"/>
        <pt x="1141" y="1495" on="1"/>
        <pt x="1192" y="1495" on="0"/>
        <pt x="1280" y="1478" on="0"/>
        <pt x="1348" y="1448" on="0"/>
        <pt x="1390" y="1407" on="0"/>
        <pt x="1393" y="1382" on="1"/>
        <pt x="1394" y="1364" on="0"/>
        <pt x="1388" y="1327" on="0"/>
        <pt x="1372" y="1297" on="0"/>
        <pt x="1345" y="1278" on="0"/>
        <pt x="1327" y="1278" on="1"/>
        <pt x="1316" y="1278" on="0"/>
        <pt x="1300" y="1300" on="0"/>
        <pt x="1283" y="1332" on="0"/>
        <pt x="1260" y="1371" on="0"/>
        <pt x="1225" y="1403" on="0"/>
        <pt x="1173" y="1425" on="0"/>
        <pt x="1135" y="1425" on="1"/>
        <pt x="1075" y="1425" on="0"/>
        <pt x="981" y="1328" on="0"/>
        <pt x="908" y="1164" on="0"/>
        <pt x="853" y="951" on="0"/>
        <pt x="831" y="834" on="1"/>
        <pt x="1167" y="178" on="1"/>
        <pt x="1187" y="138" on="0"/>
        <pt x="1234" y="98" on="0"/>
        <pt x="1266" y="98" on="1"/>
        <pt x="1298" y="98" on="0"/>
        <pt x="1347" y="126" on="0"/>
        <pt x="1366" y="141" on="1"/>
        <pt x="1391" y="111" on="1"/>
        <pt x="1370" y="90" on="0"/>
        <pt x="1309" y="45" on="0"/>
        <pt x="1233" y="8" on="0"/>
        <pt x="1146" y="-16" on="0"/>
        <pt x="1098" y="-16" on="1"/>
        <pt x="1050" y="-16" on="0"/>
        <pt x="968" y="2" on="0"/>
        <pt x="892" y="51" on="0"/>
        <pt x="822" y="137" on="0"/>
        <pt x="786" y="205" on="1"/>
        <pt x="637" y="496" on="1"/>
        <pt x="610" y="388" on="0"/>
        <pt x="534" y="201" on="0"/>
        <pt x="431" y="63" on="0"/>
        <pt x="297" y="-16" on="0"/>
        <pt x="213" y="-16" on="1"/>
        <pt x="162" y="-16" on="0"/>
        <pt x="67" y="1" on="0"/>
        <pt x="-8" y="31" on="0"/>
        <pt x="-56" y="72" on="0"/>
        <pt x="-59" y="96" on="1"/>
        <pt x="-61" y="114" on="0"/>
        <pt x="-54" y="151" on="0"/>
        <pt x="-38" y="181" on="0"/>
        <pt x="-12" y="201" on="0"/>
        <pt x="6" y="201" on="1"/>
        <pt x="17" y="201" on="0"/>
        <pt x="36" y="179" on="0"/>
        <pt x="58" y="146" on="0"/>
        <pt x="86" y="108" on="0"/>
        <pt x="126" y="75" on="0"/>
        <pt x="181" y="53" on="0"/>
        <pt x="219" y="53" on="1"/>
        <pt x="280" y="53" on="0"/>
        <pt x="381" y="156" on="0"/>
        <pt x="461" y="328" on="0"/>
        <pt x="522" y="554" on="0"/>
        <pt x="545" y="676" on="1"/>
        <pt x="227" y="1300" on="1"/>
        <pt x="207" y="1341" on="0"/>
        <pt x="161" y="1380" on="0"/>
        <pt x="129" y="1380" on="1"/>
        <pt x="97" y="1380" on="0"/>
        <pt x="47" y="1353" on="0"/>
        <pt x="29" y="1337" on="1"/>
        <pt x="4" y="1368" on="1"/>
        <pt x="25" y="1389" on="0"/>
        <pt x="86" y="1433" on="0"/>
        <pt x="161" y="1471" on="0"/>
        <pt x="249" y="1495" on="0"/>
        <pt x="297" y="1495" on="1"/>
        <pt x="345" y="1495" on="0"/>
        <pt x="427" y="1477" on="0"/>
        <pt x="502" y="1428" on="0"/>
        <pt x="573" y="1342" on="0"/>
        <pt x="608" y="1274" on="1"/>
      </contour>
    </TTGlyph>
    <TTGlyph name="Y" xMin="-164" yMin="-537" xMax="1552" yMax="1556">
      <contour>
        <pt x="168" y="-467" on="1"/>
        <pt x="241" y="-467" on="0"/>
        <pt x="368" y="-390" on="0"/>
        <pt x="481" y="-255" on="0"/>
        <pt x="582" y="-69" on="0"/>
        <pt x="627" y="39" on="1"/>
        <pt x="518" y="399" on="0"/>
        <pt x="294" y="969" on="0"/>
        <pt x="188" y="1167" on="1"/>
        <pt x="133" y="1273" on="0"/>
        <pt x="14" y="1380" on="0"/>
        <pt x="-39" y="1380" on="1"/>
        <pt x="-71" y="1380" on="0"/>
        <pt x="-121" y="1353" on="0"/>
        <pt x="-139" y="1337" on="1"/>
        <pt x="-164" y="1368" on="1"/>
        <pt x="-143" y="1389" on="0"/>
        <pt x="-81" y="1433" on="0"/>
        <pt x="1" y="1471" on="0"/>
        <pt x="104" y="1495" on="0"/>
        <pt x="166" y="1495" on="1"/>
        <pt x="197" y="1495" on="0"/>
        <pt x="273" y="1484" on="0"/>
        <pt x="352" y="1451" on="0"/>
        <pt x="430" y="1392" on="0"/>
        <pt x="465" y="1343" on="1"/>
        <pt x="542" y="1235" on="0"/>
        <pt x="714" y="842" on="0"/>
        <pt x="811" y="561" on="1"/>
        <pt x="842" y="654" on="0"/>
        <pt x="902" y="839" on="0"/>
        <pt x="964" y="1014" on="0"/>
        <pt x="1027" y="1176" on="0"/>
        <pt x="1061" y="1247" on="1"/>
        <pt x="1096" y="1322" on="0"/>
        <pt x="1169" y="1437" on="0"/>
        <pt x="1256" y="1515" on="0"/>
        <pt x="1364" y="1556" on="0"/>
        <pt x="1434" y="1556" on="1"/>
        <pt x="1486" y="1556" on="0"/>
        <pt x="1552" y="1511" on="0"/>
        <pt x="1552" y="1466" on="1"/>
        <pt x="1552" y="1426" on="0"/>
        <pt x="1526" y="1374" on="0"/>
        <pt x="1503" y="1374" on="1"/>
        <pt x="1484" y="1374" on="0"/>
        <pt x="1463" y="1403" on="0"/>
        <pt x="1442" y="1437" on="0"/>
        <pt x="1413" y="1466" on="0"/>
        <pt x="1386" y="1466" on="1"/>
        <pt x="1325" y="1466" on="0"/>
        <pt x="1222" y="1354" on="0"/>
        <pt x="1131" y="1162" on="0"/>
        <pt x="1046" y="905" on="0"/>
        <pt x="960" y="617" on="0"/>
        <pt x="866" y="312" on="0"/>
        <pt x="758" y="24" on="0"/>
        <pt x="629" y="-233" on="0"/>
        <pt x="471" y="-425" on="0"/>
        <pt x="279" y="-537" on="0"/>
        <pt x="162" y="-537" on="1"/>
        <pt x="111" y="-537" on="0"/>
        <pt x="16" y="-520" on="0"/>
        <pt x="-59" y="-490" on="0"/>
        <pt x="-108" y="-448" on="0"/>
        <pt x="-111" y="-424" on="1"/>
        <pt x="-113" y="-406" on="0"/>
        <pt x="-106" y="-369" on="0"/>
        <pt x="-90" y="-339" on="0"/>
        <pt x="-63" y="-319" on="0"/>
        <pt x="-45" y="-319" on="1"/>
        <pt x="-34" y="-319" on="0"/>
        <pt x="-15" y="-341" on="0"/>
        <pt x="7" y="-374" on="0"/>
        <pt x="34" y="-412" on="0"/>
        <pt x="74" y="-445" on="0"/>
        <pt x="129" y="-467" on="0"/>
      </contour>
    </TTGlyph>
    <TTGlyph name="Yacute" xMin="-164" yMin="-537" xMax="1552" yMax="1904">
      <component glyphName="Y" x="0" y="0" flags="0x204"/>
      <component glyphName="acute" x="383" y="440" flags="0x4"/>
    </TTGlyph>
    <TTGlyph name="Ycircumflex" xMin="-164" yMin="-537" xMax="1552" yMax="1904">
      <component glyphName="Y" x="0" y="0" flags="0x204"/>
      <component glyphName="circumflex" x="383" y="440" flags="0x4"/>
    </TTGlyph>
    <TTGlyph name="Ydieresis" xMin="-164" yMin="-537" xMax="1552" yMax="1859">
      <component glyphName="Y" x="0" y="0" flags="0x204"/>
      <component glyphName="dieresis" x="383" y="440" flags="0x4"/>
    </TTGlyph>
    <TTGlyph name="Ygrave" xMin="-164" yMin="-537" xMax="1552" yMax="1904">
      <component glyphName="Y" x="0" y="0" flags="0x204"/>
      <component glyphName="grave" x="383" y="440" flags="0x4"/>
    </TTGlyph>
</ttFont>
